<?xml version="1.0" encoding="utf-8"?>
<!-- Generator: Adobe Illustrator 24.1.2, SVG Export Plug-In . SVG Version: 6.00 Build 0)  -->
<svg version="1.1" id="Layer_1" xmlns="http://www.w3.org/2000/svg" xmlns:xlink="http://www.w3.org/1999/xlink" x="0px" y="0px"
	 viewBox="0 0 47.2 47.2" enable-background="new 0 0 47.2 47.2" xml:space="preserve">
<path d="M27.7,34c0,0.6-0.4,1-1,1h-6.3c-0.6,0-1-0.4-1-1s0.4-1,1-1h2.1V20.8h-1c-0.6,0-1-0.4-1-1s0.4-1,1-1h2c0.6,0,1,0.4,1,1V33
	h2.1C27.3,33,27.7,33.5,27.7,34z M22.5,14.8c0.1,0.1,0.3,0.3,0.5,0.3c0.2,0.1,0.4,0.1,0.6,0.1c0.4,0,0.8-0.2,1.1-0.4
	c0.1-0.1,0.3-0.3,0.3-0.5c0.1-0.2,0.1-0.4,0.1-0.6c0-0.1,0-0.2,0-0.3s0-0.2-0.1-0.3c0-0.1-0.1-0.2-0.1-0.3c-0.1-0.1-0.1-0.2-0.2-0.2
	c-0.2-0.2-0.5-0.3-0.8-0.4c-0.5-0.1-1,0.1-1.4,0.4c-0.1,0.1-0.1,0.1-0.2,0.2c-0.1,0.1-0.1,0.2-0.1,0.3s-0.1,0.2-0.1,0.3s0,0.2,0,0.3
	c0,0.2,0,0.4,0.1,0.6C22.3,14.5,22.4,14.6,22.5,14.8z"/>
<circle fill="none" stroke="#FFFFFF" stroke-miterlimit="10" cx="23.6" cy="23.6" r="22.4"/>
</svg>
