<?xml version="1.0" encoding="utf-8"?>
<!-- Generator: Adobe Illustrator 24.1.2, SVG Export Plug-In . SVG Version: 6.00 Build 0)  -->
<svg version="1.1" id="Layer_1" xmlns="http://www.w3.org/2000/svg" xmlns:xlink="http://www.w3.org/1999/xlink" x="0px" y="0px"
	 viewBox="0 0 50.8 50.8" enable-background="new 0 0 50.8 50.8" xml:space="preserve">
<g>
	<path d="M28.4,21.7h-5.9c-0.8,0-1.5,0.7-1.5,1.5v15.2c0,0.8,0.7,1.5,1.5,1.5h5.9c0.8,0,1.5-0.7,1.5-1.5V23.2
		C29.9,22.4,29.2,21.7,28.4,21.7z M26.9,36.9H24V24.7h2.9V36.9z M25.4,10.9c-2.5,0-4.4,2-4.4,4.4c0,2.5,2,4.4,4.4,4.4
		c2.5,0,4.4-2,4.4-4.4C29.9,12.9,27.9,10.9,25.4,10.9z M25.4,16.8c-0.8,0-1.4-0.6-1.4-1.4c0-0.8,0.6-1.4,1.4-1.4
		c0.8,0,1.4,0.6,1.4,1.4C26.9,16.2,26.2,16.8,25.4,16.8L25.4,16.8z M25.4,0C11.4,0,0,11.4,0,25.4s11.4,25.4,25.4,25.4
		s25.4-11.4,25.4-25.4l0,0C50.8,11.4,39.4,0,25.4,0z M25.4,47.8C13,47.8,3,37.8,3,25.4S13,3,25.4,3s22.4,10,22.4,22.4l0,0
		C47.8,37.8,37.8,47.8,25.4,47.8z"/>
</g>
</svg>
