<svg xmlns="http://www.w3.org/2000/svg" width="508.8" height="345.1" viewBox="0 0 508.8 345.1"><g id="Cloud"><path d="M397.8,123.1H397A123.72,123.72,0,0,0,273.3,0H236.7A123.72,123.72,0,0,0,113,123.1h-2A111,111,0,0,0,0,234.1H0a111,111,0,0,0,111,111H397.8a111,111,0,0,0,111-111h0C508.9,172.8,459.1,123.1,397.8,123.1Z" fill="red" fill-rule="evenodd"/></g><g id="Offline"><path d="M232,84.1l11.6,133.2h21.5L276.7,84.1s0-23.7-22.4-23.7S232,84.1,232,84.1Z" fill="#fff" fill-rule="evenodd"/><circle cx="254.4" cy="258.1" r="26.6" fill="#fff"/></g></svg>