<svg xmlns="http://www.w3.org/2000/svg" width="81.86" height="99.46" viewBox="0 0 81.86 99.46"><g id="Layer_1" data-name="Layer 1"><polygon points="16 63.13 31.3 71.93 31.3 89.63 16 98.53 0.7 89.63 0.7 71.93 16 63.13" fill="none" stroke="#231f20" stroke-miterlimit="10"/><polygon points="16 69.63 25.41 86.03 6.5 86.03 16 69.63" fill="none" stroke="#231f20" stroke-miterlimit="10"/><polyline points="31.3 89.63 25.41 86.03 31.3 71.93 16 69.63 0.7 71.93 6.5 86.03" fill="none" stroke="#231f20" stroke-miterlimit="10"/><line x1="16.01" y1="63.13" x2="16.01" y2="69.63" fill="none" stroke="#231f20" stroke-miterlimit="10"/><polyline points="25.41 86.03 16.11 98.63 6.61 86.13 0.7 89.63" fill="none" stroke="#231f20" stroke-miterlimit="10"/></g><g id="Layer_2" data-name="Layer 2"><path d="M57.38,68c-3-.21-5.79-.58-6.88-1.11" transform="translate(-0.09 -0.47)" fill="none" stroke="#000" stroke-linecap="round" stroke-linejoin="round"/><path d="M76,37.11A14.45,14.45,0,0,1,79.4,39.3a6.88,6.88,0,0,1,1.83,2.47,2.67,2.67,0,0,1,.22,1.11v17.8a2,2,0,0,1-.28,1,11.17,11.17,0,0,1-2.88,3.17A16.08,16.08,0,0,1,73.55,67a32.9,32.9,0,0,1-8.1,1" transform="translate(-0.09 -0.47)" fill="none" stroke="#000" stroke-linecap="round" stroke-linejoin="round"/><path d="M56.65,43.51l-5.84,6.54a4.31,4.31,0,0,0-.12,3.7L59.4,71.51a1.31,1.31,0,0,1-.34,1.59l-4,3.32c-.94.79-.29,2.23.28,3s2.2,1.45,3,.65l7.91-6.91c.48-.43.25-1.2,0-1.83L60.07,56.87a2.4,2.4,0,0,1,.42-2.51L75.54,37.75a.27.27,0,0,0,.07-.08l.56-.81a5.86,5.86,0,0,0,.27-3.54l-.28-1.24" transform="translate(-0.09 -0.47)" fill="none" stroke="#000" stroke-linecap="round" stroke-linejoin="round"/><path d="M45.32,40l-8.64,9.34A3.61,3.61,0,0,0,36,52.9l8.89,18.85a1,1,0,0,1-.38,1.3L40.7,76.2a2.48,2.48,0,0,0,.06,3.43,2.38,2.38,0,0,0,3.33.26l7.36-6.42c.85-.81.62-2.37.2-3.3,0,0-5.83-13-6.23-13.91a1.2,1.2,0,0,1,.23-1.37L56.29,42.81" transform="translate(-0.09 -0.47)" fill="none" stroke="#000" stroke-linecap="round" stroke-linejoin="round"/><path d="M61.61,9a34.76,34.76,0,0,1,7.19,1c4.64,1.17,5.86,2.54,6.27,3.06a6.23,6.23,0,0,1,1.44,3.77L76.1,35a1.41,1.41,0,0,1-.66,1.16L61.13,45.3A3.2,3.2,0,0,1,57,44.18,2.92,2.92,0,0,1,57.69,40l10.43-6.52,0-13" transform="translate(-0.09 -0.47)" fill="none" stroke="#000" stroke-linecap="round" stroke-linejoin="round"/><path d="M49.86,29.2l4.84-9.34a3.16,3.16,0,0,1,2.69-1.49,3.08,3.08,0,0,1,3.12,3,2.83,2.83,0,0,1-.31,1.3S51.77,39.38,51.39,40a3.22,3.22,0,0,1-2.85,1.62c-2.09,0-3.17-2.49-3.33-2.86a5.63,5.63,0,0,1-.38-1.82c.05.54-.09-18.52-.09-18.52A8.65,8.65,0,0,1,46,13.48a6.17,6.17,0,0,1,2.71-2.38,4.73,4.73,0,0,1,.72-.28" transform="translate(-0.09 -0.47)" fill="none" stroke="#000" stroke-linecap="round" stroke-linejoin="round"/><path d="M49.73,11.69s.19,5.67,5.82,5.67,6-5.81,6-5.81V6.38A5.87,5.87,0,0,0,55.62,1a5.94,5.94,0,0,0-5.89,5.71Z" transform="translate(-0.09 -0.47)" fill="none" stroke="#000" stroke-linecap="round" stroke-linejoin="round"/></g></svg>