<svg id="e5fd7bb9-799a-480e-8f8d-bf3dd275fb3a" data-name="Layer 1" xmlns="http://www.w3.org/2000/svg" viewBox="0 0 11.65 11.5"><path d="M6.8,11.5A14.76,14.76,0,0,0,8.1,8h3.1A6.06,6.06,0,0,1,6.8,11.5Z" transform="translate(0.03)"/><path d="M5.2,11a.69.69,0,0,0,.9.3l.3-.3A9.77,9.77,0,0,0,7.5,8H4.1A18.15,18.15,0,0,0,5.2,11Z" transform="translate(0.03)"/><path d="M4.8,11.5A5.65,5.65,0,0,1,.4,8H3.5A14.76,14.76,0,0,0,4.8,11.5Z" transform="translate(0.03)"/><path d="M8.2,4.1a9.7,9.7,0,0,1,0,3.4h3.2a6.53,6.53,0,0,0,0-3.4Z" transform="translate(0.03)"/><path d="M7.6,7.4A9.7,9.7,0,0,0,7.6,4H4A9.7,9.7,0,0,0,4,7.4Z" transform="translate(0.03)"/><path d="M3.4,7.4A9.7,9.7,0,0,1,3.4,4H.2a6.53,6.53,0,0,0,0,3.4Z" transform="translate(0.03)"/><path d="M6.8,0A14.76,14.76,0,0,1,8.1,3.5h3.1A5.65,5.65,0,0,0,6.8,0Z" transform="translate(0.03)"/><path d="M5.2.5a9.77,9.77,0,0,0-1.1,3H7.5A12.13,12.13,0,0,0,6.4.5.69.69,0,0,0,5.5.2L5.2.5Z" transform="translate(0.03)"/><path d="M.5,3.5H3.6A11.42,11.42,0,0,1,4.9,0,5.5,5.5,0,0,0,.5,3.5Z" transform="translate(0.03)"/></svg>