<?xml version="1.0" encoding="utf-8"?>
<!-- Generator: Adobe Illustrator 24.1.2, SVG Export Plug-In . SVG Version: 6.00 Build 0)  -->
<svg version="1.1" id="Layer_1" xmlns="http://www.w3.org/2000/svg" xmlns:xlink="http://www.w3.org/1999/xlink" x="0px" y="0px"
	 viewBox="0 0 59.2 49" enable-background="new 0 0 59.2 49" xml:space="preserve">
<g>
	<path d="M59,20.2c-0.3,0.4-0.8,0.7-1.3,0.7c-0.3,0-0.6-0.1-0.8-0.2L29.6,3.1L2.3,20.6c-0.2,0.2-0.5,0.2-0.8,0.2
		c-0.8,0-1.5-0.7-1.5-1.5c0-0.5,0.3-1,0.7-1.3l28.1-18l0,0l0,0h0.1L29,0h0.1h0.2h0.1h0.2h0.1h0.2H30h0.2l0.2,0.1l0.1,0.1l28.1,18
		C59.2,18.6,59.4,19.5,59,20.2z M50.1,22.3c-0.8,0-1.5,0.7-1.5,1.5v16.7c0,3-2.5,5.5-5.5,5.5H16.2c-3,0-5.5-2.5-5.5-5.5V23.8
		c0-0.8-0.7-1.5-1.5-1.5S7.7,23,7.7,23.8v16.7c0,4.7,3.8,8.5,8.5,8.5h26.9c4.7,0,8.5-3.8,8.5-8.5V23.8C51.6,23,50.9,22.3,50.1,22.3z
		"/>
</g>
</svg>
