<?xml version="1.0" encoding="utf-8"?>
<!-- Generator: Adobe Illustrator 24.1.2, SVG Export Plug-In . SVG Version: 6.00 Build 0)  -->
<svg version="1.1" id="Layer_1" xmlns="http://www.w3.org/2000/svg" xmlns:xlink="http://www.w3.org/1999/xlink" x="0px" y="0px"
	 viewBox="0 0 102 102" enable-background="new 0 0 102 102" xml:space="preserve">
<path fill="none" stroke="#FFFFFF" stroke-width="2" stroke-miterlimit="10" d="M18.2,1h65.7C93.3,1,101,8.7,101,18.2v65.7
	c0,9.5-7.7,17.2-17.2,17.2H18.2C8.7,101,1,93.3,1,83.8V18.2C1,8.7,8.7,1,18.2,1z"/>
<line fill="none" stroke="#FFFFFF" stroke-width="2" stroke-miterlimit="10" x1="45.5" y1="34.3" x2="100.5" y2="34.7"/>
<line fill="none" stroke="#FFFFFF" stroke-width="2" stroke-miterlimit="10" x1="0.5" y1="33.9" x2="22.9" y2="34.1"/>
<line fill="none" stroke="#FFFFFF" stroke-width="2" stroke-miterlimit="10" x1="0.5" y1="67.3" x2="100.5" y2="68.1"/>
<line fill="none" stroke="#FFFFFF" stroke-width="2" stroke-miterlimit="10" x1="67.8" y1="0.5" x2="67.8" y2="100.5"/>
<line fill="none" stroke="#FFFFFF" stroke-width="2" stroke-miterlimit="10" x1="34.2" y1="45.5" x2="34.2" y2="100.5"/>
<line fill="none" stroke="#FFFFFF" stroke-width="2" stroke-miterlimit="10" x1="34.2" y1="0.5" x2="34.2" y2="22.9"/>
<circle fill="none" stroke="#FFFFFF" stroke-width="3" stroke-miterlimit="10" cx="34.2" cy="34.2" r="11.3"/>
<circle fill="#FFFFFF" stroke="#FFFFFF" stroke-width="2" stroke-miterlimit="10" cx="34.2" cy="67.6" r="11.3"/>
<circle fill="#FFFFFF" stroke="#FFFFFF" stroke-width="2" stroke-miterlimit="10" cx="67.8" cy="34.2" r="11.3"/>
</svg>
