<?xml version="1.0" encoding="utf-8"?>
<!-- Generator: Adobe Illustrator 24.1.2, SVG Export Plug-In . SVG Version: 6.00 Build 0)  -->
<svg version="1.1" id="Layer_1" xmlns="http://www.w3.org/2000/svg" xmlns:xlink="http://www.w3.org/1999/xlink" x="0px" y="0px"
	 viewBox="0 0 72 100" enable-background="new 0 0 72 100" xml:space="preserve">
<g>
	<path d="M68.9,3C68.9,3,69,3.1,69,3.1v93.7c0,0.1-0.1,0.1-0.1,0.1H3.1C3.1,97,3,96.9,3,96.9V3.1C3,3.1,3.1,3,3.1,3H68.9 M68.9,0
		H3.1C1.4,0,0,1.4,0,3.1v93.7c0,1.7,1.4,3.1,3.1,3.1h65.7c1.7,0,3.1-1.4,3.1-3.1V3.1C72,1.4,70.6,0,68.9,0L68.9,0z"/>
</g>
<g>
	<path d="M60.5,51.5h-26c-0.8,0-1.5-0.7-1.5-1.5s0.7-1.5,1.5-1.5h26c0.8,0,1.5,0.7,1.5,1.5S61.3,51.5,60.5,51.5z"/>
</g>
<path d="M17.9,50l4.2-4.2c0.6-0.6,0.6-1.5,0-2.1c-0.6-0.6-1.5-0.6-2.1,0l-4.2,4.2l-4.2-4.2c-0.6-0.6-1.5-0.6-2.1,0
	c-0.6,0.6-0.6,1.5,0,2.1l4.2,4.2l-4.2,4.2c-0.6,0.6-0.6,1.5,0,2.1c0.3,0.3,0.7,0.4,1.1,0.4s0.8-0.1,1.1-0.4l4.2-4.2l4.2,4.2
	c0.3,0.3,0.7,0.4,1.1,0.4s0.8-0.1,1.1-0.4c0.6-0.6,0.6-1.5,0-2.1L17.9,50z"/>
<g>
	<path d="M60.5,29h-26c-0.8,0-1.5-0.7-1.5-1.5s0.7-1.5,1.5-1.5h26c0.8,0,1.5,0.7,1.5,1.5S61.3,29,60.5,29z"/>
</g>
<g>
	<path d="M14,34.4l-4.6-4.6c-0.6-0.6-0.6-1.5,0-2.1c0.6-0.6,1.5-0.6,2.1,0l2.4,2.4l8.4-8.4c0.6-0.6,1.5-0.6,2.1,0
		c0.6,0.6,0.6,1.5,0,2.1L14,34.4z"/>
</g>
<g>
	<path d="M60.5,74h-26c-0.8,0-1.5-0.7-1.5-1.5s0.7-1.5,1.5-1.5h26c0.8,0,1.5,0.7,1.5,1.5S61.3,74,60.5,74z"/>
</g>
<g>
	<path d="M14,79.4l-4.6-4.6c-0.6-0.6-0.6-1.5,0-2.1s1.5-0.6,2.1,0l2.4,2.4l8.4-8.4c0.6-0.6,1.5-0.6,2.1,0s0.6,1.5,0,2.1L14,79.4z"/>
</g>
</svg>
