<svg xmlns="http://www.w3.org/2000/svg" width="555.33" height="339.27" viewBox="0 0 555.33 339.27"><line x1="172.35" y1="123.07" x2="321.23" y2="123.07" fill="none" stroke="#808285" stroke-miterlimit="10" stroke-width="0.5"/><line x1="172.35" y1="145.93" x2="321.23" y2="145.93" fill="none" stroke="#808285" stroke-miterlimit="10" stroke-width="0.5"/><line x1="172.35" y1="168.79" x2="321.23" y2="168.79" fill="none" stroke="#808285" stroke-miterlimit="10" stroke-width="0.5"/><line x1="172.35" y1="191.65" x2="321.23" y2="191.65" fill="none" stroke="#808285" stroke-miterlimit="10" stroke-width="0.5"/><line x1="172.35" y1="214.51" x2="321.23" y2="214.51" fill="none" stroke="#808285" stroke-miterlimit="10" stroke-width="0.5"/><line x1="172.35" y1="237.37" x2="321.23" y2="237.37" fill="none" stroke="#808285" stroke-miterlimit="10" stroke-width="0.5"/><line x1="172.35" y1="260.23" x2="321.23" y2="260.23" fill="none" stroke="#808285" stroke-miterlimit="10" stroke-width="0.5"/><line x1="172.35" y1="283.09" x2="321.23" y2="283.09" fill="none" stroke="#808285" stroke-miterlimit="10" stroke-width="0.5"/><line x1="172.35" y1="305.95" x2="321.23" y2="305.95" fill="none" stroke="#808285" stroke-miterlimit="10" stroke-width="0.5"/><line x1="172.35" y1="328.81" x2="321.23" y2="328.81" fill="none" stroke="#808285" stroke-miterlimit="10" stroke-width="0.5"/><line x1="299" y1="112.5" x2="299" y2="339.27" fill="none" stroke="#808285" stroke-miterlimit="10" stroke-width="0.5"/><line x1="276.78" y1="112.5" x2="276.78" y2="339.27" fill="none" stroke="#808285" stroke-miterlimit="10" stroke-width="0.5"/><line x1="254.56" y1="112.5" x2="254.56" y2="339.27" fill="none" stroke="#808285" stroke-miterlimit="10" stroke-width="0.5"/><line x1="232.34" y1="112.5" x2="232.34" y2="339.27" fill="none" stroke="#808285" stroke-miterlimit="10" stroke-width="0.5"/><line x1="210.11" y1="112.5" x2="210.11" y2="339.27" fill="none" stroke="#808285" stroke-miterlimit="10" stroke-width="0.5"/><line x1="187.89" y1="112.5" x2="187.89" y2="339.27" fill="none" stroke="#808285" stroke-miterlimit="10" stroke-width="0.5"/><line x1="321.23" y1="112.5" x2="321.23" y2="339.27" fill="none" stroke="#808285" stroke-miterlimit="10" stroke-width="0.5"/><path d="M183.12,93.08h0l-1.7.92-.25-1,2.13-1.14h1.12v9.75h-1.27Z" fill="#939598"/><path d="M188.26,100.08a4.44,4.44,0,0,0,2.16.62c1.7,0,2.22-1.08,2.21-1.89,0-1.37-1.25-2-2.52-2h-.74v-1h.74c1,0,2.17-.49,2.17-1.65,0-.78-.49-1.47-1.71-1.47a3.5,3.5,0,0,0-1.95.65l-.34-1a4.59,4.59,0,0,1,2.55-.75c1.92,0,2.79,1.14,2.79,2.32a2.42,2.42,0,0,1-1.8,2.29v0a2.52,2.52,0,0,1,2.17,2.5c0,1.56-1.21,2.92-3.55,2.92a4.91,4.91,0,0,1-2.54-.66Z" fill="#939598"/><path d="M205.15,93.08h0l-1.69.92-.26-1,2.13-1.14h1.13v9.75h-1.27Z" fill="#939598"/><path d="M214.05,101.6V98.94h-4.53v-.87l4.35-6.22h1.43v6.06h1.36v1H215.3v2.66Zm0-3.69V94.65c0-.5,0-1,0-1.52h0c-.3.56-.54,1-.81,1.44l-2.38,3.31v0Z" fill="#939598"/><path d="M227.18,93.08h0l-1.7.92-.26-1,2.13-1.14h1.13v9.75h-1.27Z" fill="#939598"/><path d="M237.82,93H234.1l-.37,2.5a6.74,6.74,0,0,1,.79-.06,4.12,4.12,0,0,1,2.1.53,2.76,2.76,0,0,1,1.4,2.5,3.38,3.38,0,0,1-3.63,3.33,4.74,4.74,0,0,1-2.43-.6l.33-1a4.34,4.34,0,0,0,2.08.54,2.15,2.15,0,0,0,2.31-2.11c0-1.27-.85-2.17-2.8-2.17a9.16,9.16,0,0,0-1.35.11l.63-4.68h4.66Z" fill="#939598"/><path d="M249.2,93.08h0l-1.69.92-.26-1,2.13-1.14h1.13v9.75H249.2Z" fill="#939598"/><path d="M259.6,92.78a5.12,5.12,0,0,0-1,.06,4,4,0,0,0-3.39,3.46h0a2.93,2.93,0,0,1,2.36-1.12,2.89,2.89,0,0,1,2.94,3.15,3.26,3.26,0,0,1-3.24,3.43c-2.09,0-3.45-1.62-3.45-4.15a6.14,6.14,0,0,1,1.65-4.4,5.34,5.34,0,0,1,3.12-1.44,6.23,6.23,0,0,1,1-.07Zm-.38,5.62a2,2,0,0,0-2-2.23,2.19,2.19,0,0,0-1.89,1.2,1.1,1.1,0,0,0-.15.58c0,1.61.77,2.79,2.15,2.79C258.46,100.74,259.22,99.8,259.22,98.4Z" fill="#939598"/><path d="M271.23,93.08h0l-1.69.92-.26-1,2.13-1.14h1.13v9.75h-1.28Z" fill="#939598"/><path d="M282.39,91.85v.87l-4.24,8.88h-1.37L281,93v0h-4.77V91.85Z" fill="#939598"/><path d="M293.26,93.08h0l-1.69.92-.26-1,2.13-1.14h1.13v9.75h-1.28Z" fill="#939598"/><path d="M298,99.12a2.79,2.79,0,0,1,1.94-2.61l0,0a2.41,2.41,0,0,1-1.54-2.19,2.72,2.72,0,0,1,3-2.59c1.89,0,2.84,1.18,2.84,2.4a2.47,2.47,0,0,1-1.61,2.27v0a2.7,2.7,0,0,1,2,2.52c0,1.69-1.46,2.83-3.32,2.83C299.2,101.76,298,100.55,298,99.12Zm5.25-.05c0-1.19-.82-1.76-2.14-2.14a2.12,2.12,0,0,0-1.76,2,1.81,1.81,0,0,0,1.95,1.86A1.76,1.76,0,0,0,303.22,99.07Zm-3.63-4.88c0,1,.74,1.5,1.86,1.8a1.92,1.92,0,0,0,1.49-1.77,1.52,1.52,0,0,0-1.65-1.59A1.55,1.55,0,0,0,299.59,94.19Z" fill="#939598"/><path d="M315.29,93.08h0l-1.69.92-.26-1,2.13-1.14h1.13v9.75h-1.28Z" fill="#939598"/><path d="M320.89,100.67a5.16,5.16,0,0,0,1.06,0,3.64,3.64,0,0,0,2-.94,4.27,4.27,0,0,0,1.29-2.59h0a2.89,2.89,0,0,1-2.3,1,2.82,2.82,0,0,1-2.88-3,3.34,3.34,0,0,1,3.33-3.46c2,0,3.23,1.62,3.23,4.11a6.16,6.16,0,0,1-1.68,4.57,4.91,4.91,0,0,1-2.84,1.3,6.18,6.18,0,0,1-1.21.08Zm.48-5.61a1.87,1.87,0,0,0,1.87,2.07,2.18,2.18,0,0,0,1.92-1,.83.83,0,0,0,.12-.48c0-1.67-.61-2.94-2-2.94C322.16,92.69,321.37,93.68,321.37,95.06Z" fill="#939598"/><circle cx="299" cy="214.51" r="8.98" fill="#231f20" stroke="#231f20" stroke-miterlimit="10" opacity="0.5"/><circle cx="232.34" cy="168.79" r="8.98" fill="#231f20" stroke="#231f20" stroke-miterlimit="10" opacity="0.5"/><circle cx="254.56" cy="191.65" r="8.98" fill="#231f20" stroke="#231f20" stroke-miterlimit="10" opacity="0.5"/><circle cx="321.23" cy="214.51" r="8.98" fill="#231f20" stroke="#231f20" stroke-miterlimit="10" opacity="0.5"/><circle cx="210.11" cy="168.79" r="8.98" fill="#231f20" stroke="#231f20" stroke-miterlimit="10" opacity="0.5"/><circle cx="321.23" cy="191.65" r="8.98" fill="#231f20" stroke="#231f20" stroke-miterlimit="10"/><circle cx="276.78" cy="214.51" r="8.98" fill="#fff" stroke="#231f20" stroke-miterlimit="10"/><circle cx="321.23" cy="260.23" r="8.98" fill="#fff" stroke="#231f20" stroke-miterlimit="10" opacity="0.5"/><circle cx="343.45" cy="214.51" r="8.98" fill="#fff" stroke="#231f20" stroke-miterlimit="10" opacity="0.5"/><circle cx="210.11" cy="145.93" r="8.98" fill="#fff" stroke="#231f20" stroke-miterlimit="10" opacity="0.5"/><circle cx="210.11" cy="191.65" r="8.98" fill="#fff" stroke="#231f20" stroke-miterlimit="10" opacity="0.5"/><circle cx="276.68" cy="305.95" r="8.98" fill="#fff" stroke="#231f20" stroke-miterlimit="10" opacity="0.5"/><circle cx="299" cy="283.09" r="8.98" fill="#231f20" stroke="#231f20" stroke-miterlimit="10" opacity="0.5"/><circle cx="299" cy="237.37" r="8.98" fill="#231f20" stroke="#231f20" stroke-miterlimit="10" opacity="0.5"/><path d="M320.15,262c-7.47,2.1-34.18,30.17-41.65,40.86" fill="none" stroke="#ed2024" stroke-linecap="round" stroke-miterlimit="10"/><polygon points="276.78 300.96 276.68 305.94 281.05 303.54 276.78 300.96" fill="#ed2024"/><path d="M277.55,213.75c5.55,4,32.67,31.22,40.52,40.7" fill="none" stroke="#ed2024" stroke-linecap="round" stroke-miterlimit="10"/><polygon points="315.58 255.38 320.15 257.37 319.59 252.41 315.58 255.38" fill="#ed2024"/><line x1="316.38" y1="187.96" x2="329.66" y2="189.77" fill="none" stroke="#ed2024" stroke-miterlimit="10" stroke-width="3"/><line x1="323.93" y1="182.23" x2="322.12" y2="195.5" fill="none" stroke="#ed2024" stroke-miterlimit="10" stroke-width="3"/><path d="M342.17,212.46c-3.23-8.28-28.62-34-40.26-41.69" fill="none" stroke="#ed2024" stroke-linecap="round" stroke-miterlimit="10" stroke-dasharray="3 3"/><polygon points="303.78 169.03 298.79 169 301.26 173.34 303.78 169.03" fill="#ed2024"/><path d="M277.55,213.75c9-2.92,47.9-2.29,60.55-.15" fill="none" stroke="#ed2024" stroke-linecap="round" stroke-miterlimit="10"/><polygon points="336.79 215.9 341.57 214.51 337.98 211.06 336.79 215.9" fill="#ed2024"/><path d="M277.55,213.75c-4.9-11.06-45.89-55.17-62.45-65.79" fill="none" stroke="#ed2024" stroke-linecap="round" stroke-miterlimit="10"/><polygon points="216.95 146.22 211.97 146.23 214.47 150.54 216.95 146.22" fill="#ed2024"/><path d="M210.11,148c-3,7.52-4,28.63-2.39,38.64" fill="none" stroke="#ed2024" stroke-linecap="round" stroke-miterlimit="10"/><polygon points="205.18 186.43 208.57 190.08 210.05 185.32 205.18 186.43" fill="#ed2024"/><path d="M211.56,190.08a7.14,7.14,0,0,1,.75-1.29" fill="none" stroke="#ed2024" stroke-linecap="round" stroke-miterlimit="10"/><path d="M214.05,186.46c6.76-8.57,25.33-28.63,35.09-36.89" fill="none" stroke="#ed2024" stroke-linecap="round" stroke-miterlimit="10" stroke-dasharray="2.91 2.91"/><path d="M250.27,148.63c.41-.33.81-.64,1.18-.92" fill="none" stroke="#ed2024" stroke-linecap="round" stroke-miterlimit="10"/><polygon points="252.14 150.29 254.56 145.93 249.57 146.01 252.14 150.29" fill="#ed2024"/><line x1="217.22" y1="173.72" x2="230.05" y2="177.6" fill="none" stroke="#ed2024" stroke-miterlimit="10" stroke-width="3"/><line x1="225.57" y1="169.24" x2="221.7" y2="182.07" fill="none" stroke="#ed2024" stroke-miterlimit="10" stroke-width="3"/><circle cx="277.55" cy="213.75" r="2.05" fill="#ed2024"/><rect width="220.87" height="64.02" fill="#adafb2" opacity="0.9"/><path d="M12.77,16.66V12.37L9.58,6.55h1.49l1.42,2.79c.39.76.69,1.38,1,2.08h0c.29-.66.64-1.32,1-2.08L16,6.55h1.48l-3.38,5.8v4.31Z" fill="#231f20"/><path d="M24,13a3.54,3.54,0,0,1-3.61,3.85,3.45,3.45,0,0,1-3.48-3.73,3.55,3.55,0,0,1,3.6-3.86A3.44,3.44,0,0,1,24,13ZM18.27,13c0,1.59.91,2.79,2.2,2.79s2.21-1.18,2.21-2.82c0-1.23-.62-2.79-2.18-2.79S18.27,11.66,18.27,13Z" fill="#231f20"/><path d="M31.77,14.68c0,.75,0,1.41.05,2H30.65l-.07-1.19h0a2.71,2.71,0,0,1-2.4,1.35c-1.14,0-2.5-.63-2.5-3.18V9.4H27v4c0,1.38.42,2.31,1.61,2.31a1.94,1.94,0,0,0,1.75-1.2,2.11,2.11,0,0,0,.11-.68V9.4h1.33Z" fill="#231f20"/><path d="M51.59,16.39a4.89,4.89,0,0,1-2.09.42,3.45,3.45,0,0,1-3.61-3.71,3.69,3.69,0,0,1,3.9-3.85,4.42,4.42,0,0,1,1.83.37l-.3,1a3.08,3.08,0,0,0-1.53-.34A2.51,2.51,0,0,0,47.22,13a2.49,2.49,0,0,0,2.52,2.72,3.81,3.81,0,0,0,1.62-.36Z" fill="#231f20"/><path d="M57.15,16.66l-.1-.92h0a2.69,2.69,0,0,1-2.22,1.08,2.06,2.06,0,0,1-2.22-2.08c0-1.76,1.56-2.72,4.37-2.7v-.15a1.5,1.5,0,0,0-1.65-1.68,3.6,3.6,0,0,0-1.89.54l-.3-.87a4.5,4.5,0,0,1,2.38-.65c2.22,0,2.76,1.52,2.76,3v2.72a10.26,10.26,0,0,0,.12,1.74ZM57,13c-1.44,0-3.08.23-3.08,1.64a1.17,1.17,0,0,0,1.25,1.26,1.8,1.8,0,0,0,1.75-1.22,1.2,1.2,0,0,0,.08-.42Z" fill="#231f20"/><path d="M60.36,11.36c0-.75,0-1.36-.06-2h1.17l.08,1.2h0A2.67,2.67,0,0,1,64,9.23c1,0,2.56.6,2.56,3.09v4.34H65.22V12.47c0-1.17-.43-2.14-1.68-2.14a1.94,1.94,0,0,0-1.86,2v4.37H60.36Z" fill="#231f20"/><path d="M68.69,11.36c0-.75,0-1.36-.06-2H69.8l.07,1.2h0a2.67,2.67,0,0,1,2.4-1.37c1,0,2.57.6,2.57,3.09v4.34H73.55V12.47c0-1.17-.44-2.14-1.68-2.14a1.94,1.94,0,0,0-1.86,2v4.37H68.69Z" fill="#231f20"/><path d="M83.58,13A3.55,3.55,0,0,1,80,16.82a3.45,3.45,0,0,1-3.48-3.73,3.55,3.55,0,0,1,3.6-3.86A3.44,3.44,0,0,1,83.58,13ZM77.82,13c0,1.59.92,2.79,2.21,2.79s2.2-1.18,2.2-2.82c0-1.23-.61-2.79-2.17-2.79S77.82,11.66,77.82,13Z" fill="#231f20"/><path d="M86.84,7.31V9.4h1.89v1H86.84v3.92c0,.9.25,1.41,1,1.41a3.13,3.13,0,0,0,.76-.09l.06,1a3.32,3.32,0,0,1-1.17.18,1.82,1.82,0,0,1-1.42-.56,2.66,2.66,0,0,1-.51-1.89v-4H84.42v-1h1.13V7.66Z" fill="#231f20"/><path d="M100.9,18.76a2.13,2.13,0,0,0,1.44-.56c.36-.42.5-1,.5-2.73V9.4h1.32V16a4,4,0,0,1-.87,3,3.39,3.39,0,0,1-2.25.82Zm3.41-11.4a.78.78,0,0,1-.83.81.79.79,0,0,1-.81-.81.81.81,0,0,1,.84-.83A.79.79,0,0,1,104.31,7.36Z" fill="#231f20"/><path d="M112.39,14.68q0,1.13.06,2h-1.17l-.07-1.19h0a2.73,2.73,0,0,1-2.4,1.35c-1.14,0-2.51-.63-2.51-3.18V9.4h1.32v4c0,1.38.42,2.31,1.62,2.31a1.91,1.91,0,0,0,1.74-1.2,1.87,1.87,0,0,0,.12-.68V9.4h1.32Z" fill="#231f20"/><path d="M114.58,11.36c0-.75,0-1.36-.06-2h1.15l.07,1.17h0a2.51,2.51,0,0,1,2.28-1.34,2.16,2.16,0,0,1,2.06,1.46h0a3,3,0,0,1,.81-.95,2.45,2.45,0,0,1,1.6-.51c1,0,2.38.63,2.38,3.15v4.28h-1.29V12.55c0-1.4-.51-2.24-1.57-2.24a1.72,1.72,0,0,0-1.56,1.2,2.18,2.18,0,0,0-.1.66v4.49h-1.3V12.31c0-1.16-.5-2-1.51-2A1.8,1.8,0,0,0,116,11.63a1.74,1.74,0,0,0-.11.65v4.38h-1.29Z" fill="#231f20"/><path d="M127.09,11.77c0-.93,0-1.68-.06-2.37h1.18l.06,1.24h0a2.87,2.87,0,0,1,2.58-1.41c1.76,0,3.08,1.49,3.08,3.69,0,2.61-1.59,3.9-3.3,3.9a2.56,2.56,0,0,1-2.24-1.14h0v3.95h-1.3Zm1.3,1.93a2.87,2.87,0,0,0,.06.54,2,2,0,0,0,2,1.55c1.4,0,2.21-1.14,2.21-2.81,0-1.45-.77-2.7-2.16-2.7a2.12,2.12,0,0,0-2,1.64,2.34,2.34,0,0,0-.09.54Z" fill="#231f20"/><path d="M149.67,7.31V9.4h1.89v1h-1.89v3.92c0,.9.26,1.41,1,1.41a3.22,3.22,0,0,0,.77-.09l.06,1a3.37,3.37,0,0,1-1.17.18,1.84,1.84,0,0,1-1.43-.56,2.71,2.71,0,0,1-.51-1.89v-4h-1.12v-1h1.12V7.66Z" fill="#231f20"/><path d="M153.05,6h1.32v4.53h0a2.4,2.4,0,0,1,.94-.93,2.68,2.68,0,0,1,1.35-.38c1,0,2.54.6,2.54,3.11v4.32h-1.32V12.49c0-1.17-.44-2.16-1.68-2.16a1.89,1.89,0,0,0-1.77,1.32,1.5,1.5,0,0,0-.09.63v4.38h-1.32Z" fill="#231f20"/><path d="M162.11,13.27a2.33,2.33,0,0,0,2.49,2.52,4.8,4.8,0,0,0,2-.38l.22.95a5.85,5.85,0,0,1-2.41.45,3.37,3.37,0,0,1-3.57-3.66c0-2.19,1.29-3.92,3.4-3.92,2.37,0,3,2.09,3,3.42,0,.27,0,.48,0,.62Zm3.87-.95a1.88,1.88,0,0,0-1.83-2.14,2.19,2.19,0,0,0-2,2.14Z" fill="#231f20"/><path d="M181.17,15.31a3.51,3.51,0,0,0,1.74.52c1,0,1.41-.48,1.41-1.08s-.38-1-1.35-1.33c-1.31-.47-1.92-1.19-1.92-2.06a2.23,2.23,0,0,1,2.5-2.13,3.64,3.64,0,0,1,1.79.45l-.33,1a2.85,2.85,0,0,0-1.49-.42c-.78,0-1.21.45-1.21,1s.43.87,1.38,1.23c1.26.48,1.9,1.11,1.9,2.19,0,1.28-1,2.18-2.71,2.18a4.13,4.13,0,0,1-2-.5Z" fill="#231f20"/><path d="M191.31,16.66l-.11-.92h0a2.72,2.72,0,0,1-2.22,1.08,2.06,2.06,0,0,1-2.22-2.08c0-1.76,1.56-2.72,4.36-2.7v-.15a1.49,1.49,0,0,0-1.65-1.68,3.63,3.63,0,0,0-1.89.54l-.3-.87a4.51,4.51,0,0,1,2.39-.65c2.22,0,2.76,1.52,2.76,3v2.72a10.26,10.26,0,0,0,.12,1.74Zm-.2-3.71c-1.44,0-3.07.23-3.07,1.64a1.17,1.17,0,0,0,1.24,1.26A1.81,1.81,0,0,0,191,14.63a1.48,1.48,0,0,0,.07-.42Z" fill="#231f20"/><path d="M194.52,11.36c0-.75,0-1.36-.06-2h1.15l.06,1.17h.05A2.5,2.5,0,0,1,198,9.23a2.13,2.13,0,0,1,2.05,1.46h0a3.08,3.08,0,0,1,.81-.95,2.5,2.5,0,0,1,1.61-.51c1,0,2.38.63,2.38,3.15v4.28h-1.29V12.55c0-1.4-.51-2.24-1.57-2.24a1.71,1.71,0,0,0-1.56,1.2,2.17,2.17,0,0,0-.11.66v4.49h-1.29V12.31c0-1.16-.51-2-1.51-2a1.8,1.8,0,0,0-1.64,1.32,2,2,0,0,0-.1.65v4.38h-1.29Z" fill="#231f20"/><path d="M207.76,13.27a2.33,2.33,0,0,0,2.49,2.52,4.73,4.73,0,0,0,2-.38l.23.95a5.91,5.91,0,0,1-2.42.45,3.37,3.37,0,0,1-3.57-3.66c0-2.19,1.29-3.92,3.41-3.92,2.37,0,3,2.09,3,3.42a4.15,4.15,0,0,1,0,.62Zm3.87-.95a1.87,1.87,0,0,0-1.83-2.14,2.18,2.18,0,0,0-2,2.14Z" fill="#231f20"/><path d="M10.48,29.77c0-.93,0-1.68-.06-2.37H11.6l.07,1.24h0a2.85,2.85,0,0,1,2.57-1.41c1.76,0,3.08,1.49,3.08,3.69,0,2.61-1.59,3.9-3.3,3.9a2.56,2.56,0,0,1-2.24-1.14h0v4H10.48Zm1.31,1.93a2.23,2.23,0,0,0,.06.54,2,2,0,0,0,2,1.55c1.39,0,2.2-1.14,2.2-2.81,0-1.45-.76-2.7-2.16-2.7a2.12,2.12,0,0,0-2,1.64,2.34,2.34,0,0,0-.08.54Z" fill="#231f20"/><path d="M19,24h1.32V34.66H19Z" fill="#231f20"/><path d="M26.57,34.66l-.1-.92h0a2.68,2.68,0,0,1-2.21,1.08A2.07,2.07,0,0,1,22,32.74C22,31,23.54,30,26.35,30v-.15a1.5,1.5,0,0,0-1.65-1.68,3.6,3.6,0,0,0-1.89.54l-.3-.87a4.51,4.51,0,0,1,2.39-.65c2.21,0,2.75,1.52,2.75,3v2.72a10.26,10.26,0,0,0,.12,1.74ZM26.38,31c-1.44,0-3.08.23-3.08,1.64a1.17,1.17,0,0,0,1.25,1.26,1.8,1.8,0,0,0,1.75-1.22,1.2,1.2,0,0,0,.08-.42Z" fill="#231f20"/><path d="M30.14,27.4l1.59,4.29c.17.48.35,1.05.47,1.48h0c.13-.43.28-1,.46-1.51l1.44-4.26h1.4l-2,5.17c-.95,2.49-1.59,3.77-2.49,4.55a3.58,3.58,0,0,1-1.62.85l-.33-1.11a3.36,3.36,0,0,0,1.15-.64,4.09,4.09,0,0,0,1.11-1.47,1,1,0,0,0,.11-.32,1.13,1.13,0,0,0-.09-.34L28.7,27.4Z" fill="#231f20"/><path d="M37.31,31.27a2.33,2.33,0,0,0,2.49,2.52,4.73,4.73,0,0,0,2-.38l.23,1a5.91,5.91,0,0,1-2.42.45,3.37,3.37,0,0,1-3.57-3.66c0-2.19,1.29-3.92,3.41-3.92,2.37,0,3,2.09,3,3.42a4.15,4.15,0,0,1-.05.62Zm3.87-.95a1.87,1.87,0,0,0-1.83-2.14,2.18,2.18,0,0,0-2,2.14Z" fill="#231f20"/><path d="M44.09,29.66c0-.85,0-1.59-.06-2.26h1.16l0,1.42h.06a2.19,2.19,0,0,1,2-1.59,1.46,1.46,0,0,1,.38.05v1.24a2,2,0,0,0-.45,0,1.85,1.85,0,0,0-1.77,1.69,3.72,3.72,0,0,0-.06.62v3.87H44.09Z" fill="#231f20"/><path d="M56.3,25.31V27.4h1.89v1H56.3v3.92c0,.9.25,1.41,1,1.41a3.13,3.13,0,0,0,.76-.09l.06,1a3.32,3.32,0,0,1-1.17.18,1.82,1.82,0,0,1-1.42-.56A2.66,2.66,0,0,1,55,32.36v-4H53.88v-1H55V25.66Z" fill="#231f20"/><path d="M60.33,27.4l1,3.69c.21.81.41,1.56.54,2.31h.05c.16-.74.4-1.52.64-2.3l1.19-3.7h1.11L65.94,31c.27.87.48,1.63.65,2.37h0A22,22,0,0,1,67.19,31l1-3.64h1.31l-2.34,7.26H66l-1.11-3.47a23.15,23.15,0,0,1-.65-2.38h0a20.46,20.46,0,0,1-.66,2.4l-1.17,3.45h-1.2L59,27.4Z" fill="#231f20"/><path d="M72.32,25.36a.82.82,0,0,1-1.64,0,.81.81,0,0,1,.83-.83A.79.79,0,0,1,72.32,25.36Zm-1.47,9.3V27.4h1.32v7.26Z" fill="#231f20"/><path d="M79.53,34.39a4.83,4.83,0,0,1-2.08.42,3.46,3.46,0,0,1-3.62-3.71,3.69,3.69,0,0,1,3.9-3.85,4.42,4.42,0,0,1,1.83.37l-.3,1a3.05,3.05,0,0,0-1.53-.34A2.51,2.51,0,0,0,75.17,31a2.49,2.49,0,0,0,2.52,2.72,3.84,3.84,0,0,0,1.62-.36Z" fill="#231f20"/><path d="M81.72,31.27a2.33,2.33,0,0,0,2.49,2.52,4.73,4.73,0,0,0,2-.38l.23,1a5.91,5.91,0,0,1-2.42.45,3.37,3.37,0,0,1-3.57-3.66c0-2.19,1.29-3.92,3.41-3.92,2.37,0,3,2.09,3,3.42a4.15,4.15,0,0,1-.05.62Zm3.87-.95a1.87,1.87,0,0,0-1.83-2.14,2.18,2.18,0,0,0-2,2.14Z" fill="#231f20"/><path d="M95.68,25.36a.77.77,0,0,1-.84.81.78.78,0,0,1-.79-.81.8.8,0,0,1,.82-.83A.78.78,0,0,1,95.68,25.36Zm-1.47,9.3V27.4h1.32v7.26Z" fill="#231f20"/><path d="M97.72,29.36c0-.75,0-1.36-.06-2h1.17l.08,1.2h0a2.67,2.67,0,0,1,2.4-1.37c1,0,2.56.6,2.56,3.09v4.34h-1.32V30.47c0-1.17-.43-2.14-1.68-2.14a1.94,1.94,0,0,0-1.86,2v4.37H97.72Z" fill="#231f20"/><path d="M118.33,31a3.55,3.55,0,0,1-3.62,3.85,3.45,3.45,0,0,1-3.48-3.73,3.55,3.55,0,0,1,3.6-3.86A3.44,3.44,0,0,1,118.33,31Zm-5.76.07c0,1.59.91,2.79,2.2,2.79S117,32.65,117,31c0-1.23-.62-2.79-2.18-2.79S112.57,29.66,112.57,31Z" fill="#231f20"/><path d="M120,29.36c0-.75,0-1.36-.06-2h1.17l.08,1.2h0a2.67,2.67,0,0,1,2.4-1.37c1,0,2.56.6,2.56,3.09v4.34h-1.32V30.47c0-1.17-.43-2.14-1.68-2.14a1.94,1.94,0,0,0-1.86,2v4.37H120Z" fill="#231f20"/><path d="M129.05,31.27a2.33,2.33,0,0,0,2.49,2.52,4.73,4.73,0,0,0,2-.38l.23,1a5.91,5.91,0,0,1-2.42.45,3.37,3.37,0,0,1-3.57-3.66c0-2.19,1.29-3.92,3.41-3.92,2.37,0,3,2.09,3,3.42a4.15,4.15,0,0,1,0,.62Zm3.87-.95a1.87,1.87,0,0,0-1.83-2.14,2.18,2.18,0,0,0-2,2.14Z" fill="#231f20"/><path d="M141.54,29.36c0-.75,0-1.36-.06-2h1.15l.06,1.17h.05A2.51,2.51,0,0,1,145,27.23a2.13,2.13,0,0,1,2,1.46h0a3.08,3.08,0,0,1,.81-1,2.5,2.5,0,0,1,1.61-.51c1,0,2.38.63,2.38,3.15v4.28h-1.29V30.55c0-1.4-.51-2.24-1.57-2.24a1.71,1.71,0,0,0-1.56,1.2,2.17,2.17,0,0,0-.11.66v4.49h-1.29V30.31c0-1.16-.51-2-1.51-2a1.79,1.79,0,0,0-1.63,1.32,1.74,1.74,0,0,0-.11.65v4.38h-1.29Z" fill="#231f20"/><path d="M160.62,31A3.55,3.55,0,0,1,157,34.82a3.45,3.45,0,0,1-3.48-3.73,3.55,3.55,0,0,1,3.6-3.86A3.44,3.44,0,0,1,160.62,31Zm-5.76.07c0,1.59.91,2.79,2.2,2.79s2.21-1.18,2.21-2.82c0-1.23-.62-2.79-2.18-2.79S154.86,29.66,154.86,31Z" fill="#231f20"/><path d="M162.69,27.4l1.42,4.08a18.76,18.76,0,0,1,.59,1.86h0c.17-.6.38-1.2.62-1.86l1.41-4.08h1.38l-2.85,7.26H164l-2.76-7.26Z" fill="#231f20"/><path d="M170,31.27a2.33,2.33,0,0,0,2.49,2.52,4.8,4.8,0,0,0,2-.38l.22,1a5.85,5.85,0,0,1-2.41.45,3.37,3.37,0,0,1-3.57-3.66c0-2.19,1.29-3.92,3.4-3.92,2.37,0,3,2.09,3,3.42,0,.27,0,.48,0,.62Zm3.87-.95A1.88,1.88,0,0,0,172,28.18a2.2,2.2,0,0,0-2,2.14Z" fill="#231f20"/><path d="M176.27,33.88a.89.89,0,1,1,.88.94A.87.87,0,0,1,176.27,33.88Z" fill="#231f20"/><path d="M186.25,25.66h-3.07V24.55h7.48v1.11h-3.09v9h-1.32Z" fill="#231f20"/><path d="M191.64,24H193v4.53h0a2.4,2.4,0,0,1,.94-.93,2.68,2.68,0,0,1,1.35-.38c1,0,2.54.6,2.54,3.11v4.32H196.5V30.49c0-1.17-.44-2.16-1.68-2.16a1.89,1.89,0,0,0-1.77,1.32,1.5,1.5,0,0,0-.09.63v4.38h-1.32Z" fill="#231f20"/><path d="M200.7,31.27a2.33,2.33,0,0,0,2.49,2.52,4.8,4.8,0,0,0,2-.38l.22,1a5.85,5.85,0,0,1-2.41.45,3.37,3.37,0,0,1-3.57-3.66c0-2.19,1.29-3.92,3.4-3.92,2.37,0,3,2.09,3,3.42,0,.27,0,.48,0,.62Zm3.87-.95a1.88,1.88,0,0,0-1.83-2.14,2.19,2.19,0,0,0-2,2.14Z" fill="#231f20"/><path d="M208,27.4l1.59,4.29c.16.48.34,1.05.46,1.48h0c.14-.43.29-1,.47-1.51L212,27.4h1.39l-2,5.17c-.94,2.49-1.59,3.77-2.49,4.55a3.53,3.53,0,0,1-1.62.85l-.33-1.11a3.4,3.4,0,0,0,1.16-.64,4.09,4.09,0,0,0,1.11-1.47.93.93,0,0,0,.1-.32,1.13,1.13,0,0,0-.09-.34l-2.68-6.69Z" fill="#231f20"/><path d="M58.58,52.66l-.11-.92h0a2.72,2.72,0,0,1-2.22,1.08A2.06,2.06,0,0,1,54,50.74C54,49,55.55,48,58.35,48v-.15a1.49,1.49,0,0,0-1.65-1.68,3.63,3.63,0,0,0-1.89.54l-.3-.87a4.51,4.51,0,0,1,2.39-.65c2.22,0,2.76,1.52,2.76,3v2.72a10.26,10.26,0,0,0,.12,1.74ZM58.38,49c-1.44,0-3.07.23-3.07,1.64a1.17,1.17,0,0,0,1.24,1.26,1.81,1.81,0,0,0,1.76-1.22,1.48,1.48,0,0,0,.07-.42Z" fill="#231f20"/><path d="M61.79,47.66c0-.85,0-1.59-.06-2.26h1.15l0,1.42H63a2.18,2.18,0,0,1,2-1.59,1.38,1.38,0,0,1,.37.05v1.24a2,2,0,0,0-.45,0,1.85,1.85,0,0,0-1.77,1.69,3.72,3.72,0,0,0-.06.62v3.87h-1.3Z" fill="#231f20"/><path d="M67.28,49.27a2.33,2.33,0,0,0,2.49,2.52,4.8,4.8,0,0,0,2-.38l.22,1a5.85,5.85,0,0,1-2.41.45A3.37,3.37,0,0,1,66,49.15c0-2.19,1.29-3.92,3.4-3.92,2.37,0,3,2.09,3,3.42,0,.27,0,.48,0,.62Zm3.87-1a1.88,1.88,0,0,0-1.83-2.14,2.19,2.19,0,0,0-2,2.14Z" fill="#231f20"/><path d="M77.24,47.66c0-.85,0-1.59-.06-2.26h1.15l0,1.42h.06a2.18,2.18,0,0,1,2-1.59,1.38,1.38,0,0,1,.37.05v1.24a2,2,0,0,0-.45,0,1.85,1.85,0,0,0-1.77,1.69,3.72,3.72,0,0,0-.06.62v3.87h-1.3Z" fill="#231f20"/><path d="M82.73,49.27a2.33,2.33,0,0,0,2.49,2.52,4.8,4.8,0,0,0,2-.38l.22,1a5.85,5.85,0,0,1-2.41.45,3.37,3.37,0,0,1-3.57-3.66c0-2.19,1.29-3.92,3.4-3.92,2.37,0,3,2.09,3,3.42,0,.27,0,.48,0,.62Zm3.87-1a1.88,1.88,0,0,0-1.83-2.14,2.19,2.19,0,0,0-2,2.14Z" fill="#231f20"/><path d="M89.51,47.36c0-.75,0-1.36-.06-2H90.6l.06,1.17h0A2.5,2.5,0,0,1,93,45.23,2.13,2.13,0,0,1,95,46.69h0a3.08,3.08,0,0,1,.81-.95,2.5,2.5,0,0,1,1.61-.51c1,0,2.38.63,2.38,3.15v4.28H98.58V48.55c0-1.4-.51-2.24-1.57-2.24a1.71,1.71,0,0,0-1.56,1.2,2.17,2.17,0,0,0-.11.66v4.49H94.05V48.31c0-1.16-.51-2-1.51-2a1.8,1.8,0,0,0-1.64,1.32,2,2,0,0,0-.1.65v4.38H89.51Z" fill="#231f20"/><path d="M108.59,49A3.55,3.55,0,0,1,105,52.82a3.45,3.45,0,0,1-3.48-3.73,3.55,3.55,0,0,1,3.6-3.86A3.44,3.44,0,0,1,108.59,49Zm-5.76.07c0,1.59.91,2.79,2.2,2.79s2.21-1.18,2.21-2.82c0-1.23-.62-2.79-2.18-2.79S102.83,47.66,102.83,49Z" fill="#231f20"/><path d="M110.66,45.4l1.42,4.08a18.76,18.76,0,0,1,.59,1.86h0c.17-.6.38-1.2.62-1.86l1.41-4.08h1.38l-2.85,7.26H112l-2.76-7.26Z" fill="#231f20"/><path d="M118,49.27a2.33,2.33,0,0,0,2.49,2.52,4.8,4.8,0,0,0,2-.38l.22,1a5.85,5.85,0,0,1-2.41.45,3.37,3.37,0,0,1-3.57-3.66c0-2.19,1.29-3.92,3.4-3.92,2.37,0,3,2.09,3,3.42,0,.27,0,.48,0,.62Zm3.87-1A1.88,1.88,0,0,0,120,46.18a2.19,2.19,0,0,0-2,2.14Z" fill="#231f20"/><path d="M131,42v8.77c0,.65,0,1.38.07,1.88h-1.19l-.06-1.26h0a2.67,2.67,0,0,1-2.47,1.42c-1.76,0-3.11-1.48-3.11-3.69,0-2.41,1.49-3.9,3.26-3.9a2.46,2.46,0,0,1,2.19,1.11h0V42Zm-1.31,6.34a2.08,2.08,0,0,0-.07-.55,1.93,1.93,0,0,0-1.9-1.53c-1.36,0-2.17,1.2-2.17,2.8s.72,2.69,2.14,2.69a2,2,0,0,0,1.93-1.58,2.07,2.07,0,0,0,.07-.57Z" fill="#231f20"/><path d="M137.83,43.36a.77.77,0,0,1-.84.81.78.78,0,0,1-.79-.81.81.81,0,0,1,.82-.83A.78.78,0,0,1,137.83,43.36Zm-1.47,9.3V45.4h1.33v7.26Z" fill="#231f20"/><path d="M139.87,47.36c0-.75,0-1.36-.06-2H141l.06,1.17h0a2.51,2.51,0,0,1,2.28-1.34,2.16,2.16,0,0,1,2.06,1.46h0a3,3,0,0,1,.81-.95,2.45,2.45,0,0,1,1.6-.51c1,0,2.39.63,2.39,3.15v4.28H149V48.55c0-1.4-.51-2.24-1.58-2.24a1.72,1.72,0,0,0-1.56,1.2,2.18,2.18,0,0,0-.1.66v4.49h-1.29V48.31c0-1.16-.51-2-1.52-2a1.8,1.8,0,0,0-1.63,1.32,1.74,1.74,0,0,0-.11.65v4.38h-1.29Z" fill="#231f20"/><path d="M152.38,47.36c0-.75,0-1.36-.06-2h1.16l.06,1.17h0a2.51,2.51,0,0,1,2.28-1.34,2.16,2.16,0,0,1,2.06,1.46h0a3,3,0,0,1,.81-.95,2.45,2.45,0,0,1,1.6-.51c1,0,2.39.63,2.39,3.15v4.28h-1.29V48.55c0-1.4-.51-2.24-1.58-2.24a1.72,1.72,0,0,0-1.56,1.2,2.18,2.18,0,0,0-.1.66v4.49h-1.29V48.31c0-1.16-.51-2-1.52-2a1.8,1.8,0,0,0-1.63,1.32,1.74,1.74,0,0,0-.11.65v4.38h-1.29Z" fill="#231f20"/><path d="M165.63,49.27a2.33,2.33,0,0,0,2.49,2.52,4.8,4.8,0,0,0,2-.38l.22,1a5.85,5.85,0,0,1-2.41.45,3.37,3.37,0,0,1-3.57-3.66c0-2.19,1.29-3.92,3.4-3.92,2.37,0,3,2.09,3,3.42,0,.27,0,.48,0,.62Zm3.87-1a1.88,1.88,0,0,0-1.83-2.14,2.19,2.19,0,0,0-2,2.14Z" fill="#231f20"/><path d="M178.68,42v8.77c0,.65,0,1.38.06,1.88h-1.19l-.06-1.26h0A2.67,2.67,0,0,1,175,52.82c-1.76,0-3.11-1.48-3.11-3.69,0-2.41,1.49-3.9,3.26-3.9a2.44,2.44,0,0,1,2.19,1.11h0V42Zm-1.32,6.34a2.57,2.57,0,0,0-.06-.55,2,2,0,0,0-1.91-1.53c-1.36,0-2.17,1.2-2.17,2.8s.72,2.69,2.14,2.69a2,2,0,0,0,1.94-1.58,2.56,2.56,0,0,0,.06-.57Z" fill="#231f20"/><path d="M182.34,43.36a.82.82,0,0,1-1.64,0,.81.81,0,0,1,.83-.83A.79.79,0,0,1,182.34,43.36Zm-1.47,9.3V45.4h1.32v7.26Z" fill="#231f20"/><path d="M188.4,52.66l-.11-.92h0A2.72,2.72,0,0,1,186,52.82a2.06,2.06,0,0,1-2.22-2.08c0-1.76,1.56-2.72,4.36-2.7v-.15a1.49,1.49,0,0,0-1.65-1.68,3.63,3.63,0,0,0-1.89.54l-.3-.87a4.51,4.51,0,0,1,2.39-.65c2.22,0,2.76,1.52,2.76,3v2.72a10.26,10.26,0,0,0,.12,1.74ZM188.2,49c-1.44,0-3.07.23-3.07,1.64a1.17,1.17,0,0,0,1.24,1.26,1.81,1.81,0,0,0,1.76-1.22,1.48,1.48,0,0,0,.07-.42Z" fill="#231f20"/><path d="M193.14,43.31V45.4H195v1h-1.89v3.92c0,.9.25,1.41,1,1.41a3.13,3.13,0,0,0,.76-.09l.06,1a3.32,3.32,0,0,1-1.17.18,1.82,1.82,0,0,1-1.42-.56,2.66,2.66,0,0,1-.51-1.89v-4h-1.13v-1h1.13V43.66Z" fill="#231f20"/><path d="M197.16,49.27a2.33,2.33,0,0,0,2.49,2.52,4.8,4.8,0,0,0,2-.38l.22,1a5.85,5.85,0,0,1-2.41.45,3.37,3.37,0,0,1-3.57-3.66c0-2.19,1.29-3.92,3.4-3.92,2.37,0,3,2.09,3,3.42,0,.27,0,.48,0,.62Zm3.87-1a1.88,1.88,0,0,0-1.83-2.14,2.19,2.19,0,0,0-2,2.14Z" fill="#231f20"/><path d="M203.94,42h1.32V52.66h-1.32Z" fill="#231f20"/><path d="M208,45.4l1.59,4.29c.16.48.34,1.05.46,1.48h0c.14-.43.29-1,.47-1.51L212,45.4h1.39l-2,5.17c-.94,2.49-1.59,3.77-2.49,4.55a3.53,3.53,0,0,1-1.62.85l-.33-1.11a3.4,3.4,0,0,0,1.16-.64,4.09,4.09,0,0,0,1.11-1.47.93.93,0,0,0,.1-.32,1.13,1.13,0,0,0-.09-.34l-2.68-6.69Z" fill="#231f20"/><circle cx="27.26" cy="64.02" r="17.87" fill="#231f20"/><path d="M23.23,69.6A8.06,8.06,0,0,0,25,69.45a4.52,4.52,0,0,0,2.2-1.13A7.1,7.1,0,0,0,29,64.52h-.09a3.5,3.5,0,0,1-2.69,1.16c-2.44,0-4.44-2.17-4.44-5.62,0-3.25,2-6.62,5.63-6.62s5.33,3.19,5.33,7.75c0,4.26-1.36,7.25-3.1,9.11A8.07,8.07,0,0,1,25,72.67a11.86,11.86,0,0,1-1.77.09Zm2.29-9.86c0,1.82.61,3.33,1.77,3.33a1.65,1.65,0,0,0,1.45-1,5.74,5.74,0,0,0,.17-2c0-2.5-.69-3.89-1.71-3.89S25.49,57.45,25.52,59.74Z" fill="#fff"/><path d="M195.56,57.94c18.51,15.34,38.13,65.83,41.24,91.71" fill="none" stroke="#231f20" stroke-miterlimit="10"/><polygon points="234.21 149.18 237.14 153.22 239.17 148.67 234.21 149.18" fill="#231f20"/><rect x="334.47" y="60.33" width="220.87" height="64.02" fill="#adafb2" opacity="0.9"/><path d="M346.91,68h-3.07V66.88h7.48V68h-3.09v9h-1.32Z" fill="#231f20"/><path d="M352.3,66.34h1.32v4.53h0a2.54,2.54,0,0,1,.94-.93,2.78,2.78,0,0,1,1.35-.37c1,0,2.54.6,2.54,3.1V77h-1.32V72.82c0-1.17-.44-2.16-1.68-2.16A1.89,1.89,0,0,0,353.71,72a1.53,1.53,0,0,0-.09.63V77H352.3Z" fill="#231f20"/><path d="M361.36,73.6a2.32,2.32,0,0,0,2.49,2.52,4.82,4.82,0,0,0,2-.37l.22.94a5.85,5.85,0,0,1-2.41.45,3.37,3.37,0,0,1-3.57-3.66c0-2.19,1.29-3.91,3.4-3.91,2.37,0,3,2.08,3,3.42,0,.27,0,.48,0,.61Zm3.87-.94a1.89,1.89,0,0,0-1.83-2.15,2.19,2.19,0,0,0-2,2.15Z" fill="#231f20"/><path d="M382.83,66.34v8.78c0,.64,0,1.38.06,1.87h-1.18l-.06-1.26h0a2.7,2.7,0,0,1-2.48,1.43c-1.75,0-3.1-1.49-3.1-3.69,0-2.42,1.48-3.9,3.25-3.9a2.42,2.42,0,0,1,2.19,1.11h0V66.34Zm-1.32,6.35a2.14,2.14,0,0,0-.06-.56,1.93,1.93,0,0,0-1.9-1.53c-1.37,0-2.18,1.2-2.18,2.81s.72,2.68,2.15,2.68a2,2,0,0,0,1.93-1.57,2.08,2.08,0,0,0,.06-.57Z" fill="#231f20"/><path d="M385.76,73.6a2.32,2.32,0,0,0,2.49,2.52,4.82,4.82,0,0,0,2-.37l.22.94a5.87,5.87,0,0,1-2.42.45,3.37,3.37,0,0,1-3.56-3.66c0-2.19,1.29-3.91,3.4-3.91,2.37,0,3,2.08,3,3.42a3.87,3.87,0,0,1,0,.61Zm3.87-.94a1.89,1.89,0,0,0-1.83-2.15,2.19,2.19,0,0,0-2,2.15Z" fill="#231f20"/><path d="M392.67,77V70.74h-1v-1h1v-.34a3.46,3.46,0,0,1,.84-2.54,2.54,2.54,0,0,1,1.77-.67,2.93,2.93,0,0,1,1.12.21l-.17,1a2,2,0,0,0-.84-.17c-1.13,0-1.41,1-1.41,2.1v.39h1.75v1H394V77Z" fill="#231f20"/><path d="M397.46,73.6a2.32,2.32,0,0,0,2.48,2.52,4.75,4.75,0,0,0,2-.37l.23.94a5.85,5.85,0,0,1-2.41.45,3.38,3.38,0,0,1-3.58-3.66c0-2.19,1.29-3.91,3.41-3.91,2.37,0,3,2.08,3,3.42,0,.27,0,.48,0,.61Zm3.86-.94a1.88,1.88,0,0,0-1.83-2.15,2.18,2.18,0,0,0-2,2.15Z" fill="#231f20"/><path d="M404.23,71.7c0-.75,0-1.37-.05-2h1.17l.07,1.2h0a2.67,2.67,0,0,1,2.4-1.36c1,0,2.56.6,2.56,3.09V77h-1.32V72.81c0-1.17-.43-2.15-1.68-2.15A1.86,1.86,0,0,0,405.65,72a1.69,1.69,0,0,0-.09.62V77h-1.33Z" fill="#231f20"/><path d="M418.83,66.34v8.78c0,.64,0,1.38.06,1.87H417.7l-.05-1.26h0a2.68,2.68,0,0,1-2.47,1.43c-1.76,0-3.11-1.49-3.11-3.69,0-2.42,1.49-3.9,3.26-3.9a2.42,2.42,0,0,1,2.19,1.11h0V66.34Zm-1.32,6.35a2.67,2.67,0,0,0-.06-.56,2,2,0,0,0-1.91-1.53c-1.36,0-2.17,1.2-2.17,2.81s.72,2.68,2.15,2.68a2,2,0,0,0,1.93-1.57,2.56,2.56,0,0,0,.06-.57Z" fill="#231f20"/><path d="M421.75,73.6a2.32,2.32,0,0,0,2.49,2.52,4.75,4.75,0,0,0,2-.37l.23.94a5.91,5.91,0,0,1-2.42.45,3.37,3.37,0,0,1-3.57-3.66c0-2.19,1.29-3.91,3.41-3.91,2.37,0,3,2.08,3,3.42a3.87,3.87,0,0,1,0,.61Zm3.87-.94a1.88,1.88,0,0,0-1.83-2.15,2.18,2.18,0,0,0-2,2.15Z" fill="#231f20"/><path d="M428.53,72c0-.86,0-1.59-.06-2.27h1.16l0,1.43h.06a2.18,2.18,0,0,1,2-1.59,1.48,1.48,0,0,1,.38,0v1.25a2,2,0,0,0-.45,0,1.86,1.86,0,0,0-1.77,1.7,3.71,3.71,0,0,0-.06.61V77h-1.31Z" fill="#231f20"/><path d="M444.73,66.58a9.87,9.87,0,0,0-1.89,6.14,10.08,10.08,0,0,0,1.89,6.09h-1a9.75,9.75,0,0,1-2-6.09,9.91,9.91,0,0,1,2-6.14Z" fill="#231f20"/><path d="M454.63,71.83c0,3.48-2.12,5.33-4.7,5.33s-4.54-2.07-4.54-5.13c0-3.21,2-5.31,4.69-5.31S454.63,68.83,454.63,71.83Zm-7.85.17c0,2.16,1.17,4.09,3.23,4.09s3.24-1.9,3.24-4.2c0-2-1.05-4.11-3.23-4.11S446.78,69.78,446.78,72Z" fill="#231f20"/><path d="M471.27,73.3a3.55,3.55,0,0,1-3.61,3.86,3.45,3.45,0,0,1-3.48-3.74,3.54,3.54,0,0,1,3.6-3.85A3.43,3.43,0,0,1,471.27,73.3Zm-5.76.08c0,1.59.92,2.79,2.21,2.79s2.2-1.19,2.2-2.82c0-1.23-.61-2.79-2.17-2.79S465.51,72,465.51,73.38Z" fill="#231f20"/><path d="M472.94,71.7c0-.75,0-1.37-.06-2h1.17l.07,1.2h0a2.67,2.67,0,0,1,2.4-1.36c1,0,2.57.6,2.57,3.09V77H477.8V72.81c0-1.17-.44-2.15-1.68-2.15A1.88,1.88,0,0,0,474.35,72a1.93,1.93,0,0,0-.09.62V77h-1.32Z" fill="#231f20"/><path d="M491.28,67.65v2.08h1.89v1h-1.89v3.91c0,.9.25,1.41,1,1.41A2.69,2.69,0,0,0,493,76l.06,1a3.11,3.11,0,0,1-1.17.18,1.82,1.82,0,0,1-1.42-.55A2.67,2.67,0,0,1,490,74.7v-4h-1.13v-1H490V68Z" fill="#231f20"/><path d="M494.65,66.34H496v4.53h0a2.5,2.5,0,0,1,.95-.93,2.75,2.75,0,0,1,1.35-.37c1,0,2.53.6,2.53,3.1V77h-1.32V72.82c0-1.17-.43-2.16-1.68-2.16A1.9,1.9,0,0,0,496.06,72a1.71,1.71,0,0,0-.09.63V77h-1.32Z" fill="#231f20"/><path d="M503.71,73.6a2.32,2.32,0,0,0,2.49,2.52,4.75,4.75,0,0,0,2-.37l.23.94a5.91,5.91,0,0,1-2.42.45,3.37,3.37,0,0,1-3.57-3.66c0-2.19,1.29-3.91,3.41-3.91,2.37,0,3,2.08,3,3.42a3.87,3.87,0,0,1-.05.61Zm3.87-.94a1.88,1.88,0,0,0-1.83-2.15,2.18,2.18,0,0,0-2,2.15Z" fill="#231f20"/><path d="M518.92,72c0-.86,0-1.59-.06-2.27H520l0,1.43h.06a2.17,2.17,0,0,1,2-1.59,1.4,1.4,0,0,1,.37,0v1.25a1.93,1.93,0,0,0-.45,0,1.86,1.86,0,0,0-1.77,1.7,3.71,3.71,0,0,0-.06.61V77h-1.3Z" fill="#231f20"/><path d="M525.35,67.69a.77.77,0,0,1-.84.81.78.78,0,0,1-.79-.81.8.8,0,0,1,.82-.82A.78.78,0,0,1,525.35,67.69ZM523.88,77V69.73h1.32V77Z" fill="#231f20"/><path d="M533.65,69.73c0,.53-.06,1.11-.06,2v4.21c0,1.67-.33,2.69-1,3.32a3.83,3.83,0,0,1-2.64.87,4.65,4.65,0,0,1-2.41-.6l.33-1a4.09,4.09,0,0,0,2.13.57c1.35,0,2.34-.7,2.34-2.53v-.81h0A2.61,2.61,0,0,1,530,77a3.25,3.25,0,0,1-3.09-3.54c0-2.46,1.6-3.85,3.27-3.85a2.4,2.4,0,0,1,2.26,1.26h0l.06-1.1Zm-1.37,2.87a1.87,1.87,0,0,0-.07-.6,1.91,1.91,0,0,0-1.85-1.4c-1.26,0-2.16,1.07-2.16,2.75,0,1.42.72,2.61,2.15,2.61a1.93,1.93,0,0,0,1.83-1.35,2.48,2.48,0,0,0,.1-.71Z" fill="#231f20"/><path d="M535.78,66.34h1.32v4.53h0a2.54,2.54,0,0,1,.94-.93,2.78,2.78,0,0,1,1.35-.37c1,0,2.54.6,2.54,3.1V77h-1.32V72.82c0-1.17-.44-2.16-1.68-2.16A1.89,1.89,0,0,0,537.19,72a1.53,1.53,0,0,0-.09.63V77h-1.32Z" fill="#231f20"/><path d="M545.63,67.65v2.08h1.89v1h-1.89v3.91c0,.9.26,1.41,1,1.41a2.77,2.77,0,0,0,.77-.09l.06,1a3.14,3.14,0,0,1-1.17.18,1.84,1.84,0,0,1-1.43-.55,2.72,2.72,0,0,1-.51-1.89v-4h-1.12v-1h1.12V68Z" fill="#231f20"/><path d="M344.77,93.64a3.41,3.41,0,0,0,1.74.53c1,0,1.41-.48,1.41-1.08s-.38-1-1.35-1.34c-1.31-.46-1.92-1.18-1.92-2a2.23,2.23,0,0,1,2.5-2.13,3.64,3.64,0,0,1,1.79.45l-.33,1a2.85,2.85,0,0,0-1.49-.42c-.78,0-1.21.45-1.21,1s.43.87,1.38,1.23c1.26.48,1.9,1.11,1.9,2.19,0,1.27-1,2.17-2.71,2.17a4.13,4.13,0,0,1-2-.49Z" fill="#231f20"/><path d="M352.36,85.69a.82.82,0,0,1-1.64,0,.81.81,0,0,1,.83-.82A.79.79,0,0,1,352.36,85.69ZM350.89,95V87.73h1.32V95Z" fill="#231f20"/><path d="M360.67,84.34v8.78c0,.64,0,1.38.06,1.87h-1.19l-.06-1.26h0A2.68,2.68,0,0,1,357,95.16c-1.76,0-3.11-1.49-3.11-3.69,0-2.42,1.49-3.9,3.26-3.9a2.42,2.42,0,0,1,2.19,1.11h0V84.34Zm-1.32,6.35a2.67,2.67,0,0,0-.06-.56,2,2,0,0,0-1.91-1.53c-1.36,0-2.17,1.2-2.17,2.81s.72,2.68,2.14,2.68a2,2,0,0,0,1.94-1.57,2.56,2.56,0,0,0,.06-.57Z" fill="#231f20"/><path d="M363.59,91.6a2.32,2.32,0,0,0,2.49,2.52,4.75,4.75,0,0,0,2-.37l.23.94a5.91,5.91,0,0,1-2.42.45,3.37,3.37,0,0,1-3.57-3.66c0-2.19,1.29-3.91,3.41-3.91,2.37,0,3,2.08,3,3.42a3.87,3.87,0,0,1-.05.61Zm3.87-.94a1.88,1.88,0,0,0-1.83-2.15,2.18,2.18,0,0,0-2,2.15Z" fill="#231f20"/><path d="M369.58,96.81a10.21,10.21,0,0,0,1.89-6.14,10,10,0,0,0-1.89-6.09h1a9.56,9.56,0,0,1,2,6.11,9.75,9.75,0,0,1-2,6.12Z" fill="#231f20"/><path d="M388.48,94.72a4.89,4.89,0,0,1-2.09.42,3.44,3.44,0,0,1-3.61-3.7,3.69,3.69,0,0,1,3.9-3.86,4.4,4.4,0,0,1,1.83.38l-.3,1a3.07,3.07,0,0,0-1.53-.35,2.51,2.51,0,0,0-2.57,2.75,2.48,2.48,0,0,0,2.52,2.71,3.66,3.66,0,0,0,1.62-.36Z" fill="#231f20"/><path d="M394,95l-.1-.91h-.05a2.69,2.69,0,0,1-2.22,1.08,2.07,2.07,0,0,1-2.22-2.09c0-1.75,1.56-2.71,4.37-2.7v-.15a1.5,1.5,0,0,0-1.65-1.68,3.6,3.6,0,0,0-1.89.54l-.3-.87a4.5,4.5,0,0,1,2.38-.64c2.22,0,2.76,1.51,2.76,3v2.71a10.18,10.18,0,0,0,.12,1.74Zm-.19-3.7c-1.44,0-3.08.22-3.08,1.63A1.17,1.17,0,0,0,392,94.18,1.81,1.81,0,0,0,393.77,93a1.3,1.3,0,0,0,.08-.42Z" fill="#231f20"/><path d="M397.25,89.7c0-.75,0-1.37-.06-2h1.17l.08,1.2h0a2.67,2.67,0,0,1,2.4-1.36c1,0,2.56.6,2.56,3.09V95h-1.32V90.81c0-1.17-.43-2.15-1.68-2.15A1.89,1.89,0,0,0,398.66,90a1.93,1.93,0,0,0-.09.62V95h-1.32Z" fill="#231f20"/><path d="M405.58,89.7c0-.75,0-1.37-.06-2h1.17l.07,1.2h0a2.67,2.67,0,0,1,2.4-1.36c1,0,2.57.6,2.57,3.09V95h-1.32V90.81c0-1.17-.44-2.15-1.68-2.15A1.88,1.88,0,0,0,407,90a1.93,1.93,0,0,0-.09.62V95h-1.32Z" fill="#231f20"/><path d="M420.47,91.3a3.55,3.55,0,0,1-3.61,3.86,3.45,3.45,0,0,1-3.48-3.74,3.54,3.54,0,0,1,3.6-3.85A3.43,3.43,0,0,1,420.47,91.3Zm-5.76.08c0,1.59.92,2.79,2.21,2.79s2.2-1.19,2.2-2.82c0-1.23-.61-2.79-2.17-2.79S414.71,90,414.71,91.38Z" fill="#231f20"/><path d="M423.73,85.65v2.08h1.89v1h-1.89v3.91c0,.9.25,1.41,1,1.41a2.75,2.75,0,0,0,.76-.09l.06,1a3.11,3.11,0,0,1-1.17.18,1.82,1.82,0,0,1-1.42-.55,2.67,2.67,0,0,1-.51-1.89v-4h-1.13v-1h1.13V86Z" fill="#231f20"/><path d="M441,94.72a4.89,4.89,0,0,1-2.09.42,3.44,3.44,0,0,1-3.61-3.7,3.69,3.69,0,0,1,3.9-3.86A4.4,4.4,0,0,1,441,88l-.3,1a3.07,3.07,0,0,0-1.53-.35,2.51,2.51,0,0,0-2.57,2.75,2.48,2.48,0,0,0,2.52,2.71,3.66,3.66,0,0,0,1.62-.36Z" fill="#231f20"/><path d="M449,91.3a3.55,3.55,0,0,1-3.61,3.86,3.45,3.45,0,0,1-3.48-3.74,3.54,3.54,0,0,1,3.6-3.85A3.43,3.43,0,0,1,449,91.3Zm-5.76.08c0,1.59.92,2.79,2.21,2.79s2.2-1.19,2.2-2.82c0-1.23-.61-2.79-2.17-2.79S443.21,90,443.21,91.38Z" fill="#231f20"/><path d="M450.64,89.7c0-.75,0-1.37-.06-2h1.17l.07,1.2h0a2.67,2.67,0,0,1,2.4-1.36c1,0,2.57.6,2.57,3.09V95H455.5V90.81c0-1.17-.44-2.15-1.68-2.15A1.88,1.88,0,0,0,452.05,90a1.93,1.93,0,0,0-.09.62V95h-1.32Z" fill="#231f20"/><path d="M460.49,85.65v2.08h1.89v1h-1.89v3.91c0,.9.26,1.41,1,1.41a2.77,2.77,0,0,0,.77-.09l.06,1a3.14,3.14,0,0,1-1.17.18,1.84,1.84,0,0,1-1.43-.55,2.72,2.72,0,0,1-.51-1.89v-4h-1.12v-1h1.12V86Z" fill="#231f20"/><path d="M465.34,85.69a.82.82,0,0,1-1.64,0,.81.81,0,0,1,.83-.82A.79.79,0,0,1,465.34,85.69ZM463.87,95V87.73h1.32V95Z" fill="#231f20"/><path d="M467.38,89.7c0-.75,0-1.37-.06-2h1.17l.07,1.2h0a2.67,2.67,0,0,1,2.4-1.36c1,0,2.57.6,2.57,3.09V95h-1.32V90.81c0-1.17-.44-2.15-1.68-2.15A1.88,1.88,0,0,0,468.79,90a1.93,1.93,0,0,0-.09.62V95h-1.32Z" fill="#231f20"/><path d="M481.78,93c0,.75,0,1.41.06,2h-1.17l-.08-1.18h0a2.73,2.73,0,0,1-2.4,1.35c-1.14,0-2.5-.63-2.5-3.18V87.73H477v4c0,1.38.42,2.31,1.62,2.31a1.91,1.91,0,0,0,1.74-1.2,2,2,0,0,0,.12-.67V87.73h1.32Z" fill="#231f20"/><path d="M484.7,91.6a2.32,2.32,0,0,0,2.49,2.52,4.75,4.75,0,0,0,2-.37l.23.94a5.91,5.91,0,0,1-2.42.45,3.37,3.37,0,0,1-3.57-3.66c0-2.19,1.29-3.91,3.41-3.91,2.37,0,3,2.08,3,3.42a3.87,3.87,0,0,1-.05.61Zm3.87-.94a1.88,1.88,0,0,0-1.83-2.15,2.18,2.18,0,0,0-2,2.15Z" fill="#231f20"/><path d="M504.17,95l-.1-.91H504a2.69,2.69,0,0,1-2.22,1.08,2.07,2.07,0,0,1-2.22-2.09c0-1.75,1.56-2.71,4.37-2.7v-.15a1.5,1.5,0,0,0-1.65-1.68,3.6,3.6,0,0,0-1.89.54l-.3-.87a4.5,4.5,0,0,1,2.38-.64c2.22,0,2.76,1.51,2.76,3v2.71a10.18,10.18,0,0,0,.12,1.74Zm-.19-3.7c-1.44,0-3.08.22-3.08,1.63a1.17,1.17,0,0,0,1.25,1.26A1.81,1.81,0,0,0,503.9,93a1.3,1.3,0,0,0,.08-.42Z" fill="#231f20"/><path d="M514.28,97.09a2.12,2.12,0,0,0,1.44-.55c.36-.42.5-1,.5-2.73V87.73h1.32v6.59a4,4,0,0,1-.87,3,3.35,3.35,0,0,1-2.25.83Zm3.41-11.4a.78.78,0,0,1-.83.81.79.79,0,0,1-.81-.81.81.81,0,0,1,.84-.82A.78.78,0,0,1,517.69,85.69Z" fill="#231f20"/><path d="M525.77,93q0,1.13.06,2h-1.17l-.07-1.18h0a2.75,2.75,0,0,1-2.4,1.35c-1.14,0-2.51-.63-2.51-3.18V87.73H521v4c0,1.38.42,2.31,1.62,2.31a1.9,1.9,0,0,0,1.74-1.2,1.78,1.78,0,0,0,.12-.67V87.73h1.32Z" fill="#231f20"/><path d="M528,89.7c0-.75,0-1.37-.06-2h1.16l.06,1.17h0a2.5,2.5,0,0,1,2.28-1.33A2.16,2.16,0,0,1,533.5,89h0a2.91,2.91,0,0,1,.81-.94,2.45,2.45,0,0,1,1.6-.51c1,0,2.39.63,2.39,3.15V95H537V90.88c0-1.39-.51-2.23-1.58-2.23a1.71,1.71,0,0,0-1.56,1.2,2.18,2.18,0,0,0-.1.66V95h-1.29V90.64c0-1.15-.51-2-1.52-2A1.8,1.8,0,0,0,529.36,90a1.69,1.69,0,0,0-.11.64V95H528Z" fill="#231f20"/><path d="M540.47,90.1c0-.93,0-1.68-.06-2.37h1.19l.06,1.25h0a2.84,2.84,0,0,1,2.58-1.41c1.75,0,3.07,1.48,3.07,3.69,0,2.61-1.59,3.9-3.3,3.9A2.53,2.53,0,0,1,541.81,94h0V98h-1.31ZM541.78,92a3.08,3.08,0,0,0,.06.54,2,2,0,0,0,2,1.54c1.39,0,2.2-1.14,2.2-2.8,0-1.46-.76-2.7-2.16-2.7a2.09,2.09,0,0,0-2,1.63,2,2,0,0,0-.09.54Z" fill="#231f20"/><path d="M346.54,103.65v2.08h1.89v1h-1.89v3.91c0,.9.25,1.41,1,1.41a2.69,2.69,0,0,0,.76-.09l.06,1a3.11,3.11,0,0,1-1.17.18,1.82,1.82,0,0,1-1.42-.55,2.67,2.67,0,0,1-.51-1.89v-4h-1.13v-1h1.13V104Z" fill="#231f20"/><path d="M349.91,102.34h1.32v4.53h0a2.5,2.5,0,0,1,.95-.93,2.75,2.75,0,0,1,1.35-.37c1,0,2.53.6,2.53,3.1V113h-1.32v-4.17c0-1.17-.43-2.16-1.68-2.16a1.9,1.9,0,0,0-1.77,1.32,1.71,1.71,0,0,0-.09.63V113h-1.32Z" fill="#231f20"/><path d="M358.24,108c0-.86,0-1.59-.06-2.27h1.15l.05,1.43h.06a2.17,2.17,0,0,1,2-1.59,1.4,1.4,0,0,1,.37,0v1.25a1.93,1.93,0,0,0-.45,0,1.86,1.86,0,0,0-1.77,1.7,3.71,3.71,0,0,0-.06.61V113h-1.3Z" fill="#231f20"/><path d="M369.56,109.3a3.55,3.55,0,0,1-3.61,3.86,3.45,3.45,0,0,1-3.48-3.74,3.54,3.54,0,0,1,3.6-3.85A3.43,3.43,0,0,1,369.56,109.3Zm-5.76.08c0,1.59.92,2.79,2.21,2.79s2.2-1.19,2.2-2.82c0-1.23-.61-2.79-2.17-2.79S363.8,108,363.8,109.38Z" fill="#231f20"/><path d="M377.3,111c0,.75,0,1.41.06,2h-1.17l-.07-1.18h0a2.75,2.75,0,0,1-2.4,1.35c-1.14,0-2.51-.63-2.51-3.18v-4.25h1.32v4c0,1.38.42,2.31,1.62,2.31a1.9,1.9,0,0,0,1.74-1.2,1.78,1.78,0,0,0,.12-.67v-4.46h1.32Z" fill="#231f20"/><path d="M385.75,105.73c0,.53-.06,1.11-.06,2v4.21c0,1.67-.33,2.69-1,3.32a3.83,3.83,0,0,1-2.64.87,4.65,4.65,0,0,1-2.41-.6l.33-1a4.09,4.09,0,0,0,2.13.57c1.35,0,2.34-.7,2.34-2.53v-.81h0a2.61,2.61,0,0,1-2.31,1.21,3.25,3.25,0,0,1-3.09-3.54c0-2.46,1.6-3.85,3.27-3.85a2.4,2.4,0,0,1,2.26,1.26h0l.06-1.1Zm-1.37,2.87a1.87,1.87,0,0,0-.07-.6,1.91,1.91,0,0,0-1.85-1.4c-1.26,0-2.16,1.07-2.16,2.75,0,1.42.72,2.61,2.15,2.61a1.93,1.93,0,0,0,1.83-1.35,2.48,2.48,0,0,0,.1-.71Z" fill="#231f20"/><path d="M387.88,102.34h1.32v4.53h0a2.54,2.54,0,0,1,.94-.93,2.75,2.75,0,0,1,1.35-.37c1,0,2.54.6,2.54,3.1V113h-1.33v-4.17c0-1.17-.43-2.16-1.67-2.16a1.89,1.89,0,0,0-1.77,1.32,1.53,1.53,0,0,0-.09.63V113h-1.32Z" fill="#231f20"/><path d="M401,103.65v2.08h1.89v1H401v3.91c0,.9.26,1.41,1,1.41a2.77,2.77,0,0,0,.77-.09l0,1a3.11,3.11,0,0,1-1.17.18,1.82,1.82,0,0,1-1.42-.55,2.67,2.67,0,0,1-.51-1.89v-4h-1.12v-1h1.12V104Z" fill="#231f20"/><path d="M404.34,102.34h1.32v4.53h0a2.5,2.5,0,0,1,.95-.93,2.75,2.75,0,0,1,1.35-.37c1,0,2.53.6,2.53,3.1V113H409.2v-4.17c0-1.17-.43-2.16-1.68-2.16a1.9,1.9,0,0,0-1.77,1.32,1.71,1.71,0,0,0-.09.63V113h-1.32Z" fill="#231f20"/><path d="M413.4,109.6a2.32,2.32,0,0,0,2.49,2.52,4.75,4.75,0,0,0,2-.37l.23.94a5.91,5.91,0,0,1-2.42.45,3.37,3.37,0,0,1-3.57-3.66c0-2.19,1.29-3.91,3.41-3.91,2.37,0,3,2.08,3,3.42a3.87,3.87,0,0,1-.05.61Zm3.87-.94a1.88,1.88,0,0,0-1.83-2.15,2.18,2.18,0,0,0-2,2.15Z" fill="#231f20"/><path d="M421.65,103.69a.77.77,0,0,1-.84.81.78.78,0,0,1-.79-.81.8.8,0,0,1,.82-.82A.78.78,0,0,1,421.65,103.69Zm-1.47,9.3v-7.26h1.32V113Z" fill="#231f20"/><path d="M423.69,108c0-.86,0-1.59-.06-2.27h1.16l0,1.43h.06a2.18,2.18,0,0,1,2-1.59,1.48,1.48,0,0,1,.38,0v1.25a2,2,0,0,0-.45,0,1.86,1.86,0,0,0-1.77,1.7,3.71,3.71,0,0,0-.06.61V113h-1.31Z" fill="#231f20"/><path d="M432.51,109.6a2.32,2.32,0,0,0,2.49,2.52,4.75,4.75,0,0,0,2-.37l.23.94a5.91,5.91,0,0,1-2.42.45,3.37,3.37,0,0,1-3.57-3.66c0-2.19,1.29-3.91,3.41-3.91,2.37,0,3,2.08,3,3.42a3.87,3.87,0,0,1-.05.61Zm3.87-.94a1.88,1.88,0,0,0-1.83-2.15,2.18,2.18,0,0,0-2,2.15Z" fill="#231f20"/><path d="M439.29,107.7c0-.75,0-1.37-.06-2h1.17l.08,1.2h0a2.67,2.67,0,0,1,2.4-1.36c1,0,2.56.6,2.56,3.09V113h-1.32v-4.18c0-1.17-.43-2.15-1.68-2.15A1.89,1.89,0,0,0,440.7,108a1.93,1.93,0,0,0-.09.62V113h-1.32Z" fill="#231f20"/><path d="M453.89,102.34v8.78c0,.64,0,1.38.06,1.87h-1.19l-.06-1.26h0a2.68,2.68,0,0,1-2.47,1.43c-1.76,0-3.11-1.49-3.11-3.69,0-2.42,1.49-3.9,3.26-3.9a2.42,2.42,0,0,1,2.19,1.11h0v-4.34Zm-1.32,6.35a2.67,2.67,0,0,0-.06-.56,2,2,0,0,0-1.91-1.53c-1.36,0-2.17,1.2-2.17,2.81s.72,2.68,2.14,2.68a2,2,0,0,0,1.94-1.57,2.56,2.56,0,0,0,.06-.57Z" fill="#231f20"/><path d="M455.25,112.23l3.29-4.28c.31-.39.61-.73.94-1.12v0h-3.93v-1.07h5.54l0,.83-3.24,4.21c-.3.41-.6.77-.93,1.14v0h4.25v1h-5.9Z" fill="#231f20"/><path d="M469,109.3a3.55,3.55,0,0,1-3.61,3.86,3.45,3.45,0,0,1-3.48-3.74,3.54,3.54,0,0,1,3.6-3.85A3.43,3.43,0,0,1,469,109.3Zm-5.76.08c0,1.59.92,2.79,2.21,2.79s2.2-1.19,2.2-2.82c0-1.23-.61-2.79-2.17-2.79S463.2,108,463.2,109.38Z" fill="#231f20"/><path d="M470.63,107.7c0-.75,0-1.37-.06-2h1.17l.07,1.2h0a2.67,2.67,0,0,1,2.4-1.36c1,0,2.57.6,2.57,3.09V113h-1.32v-4.18c0-1.17-.44-2.15-1.68-2.15A1.88,1.88,0,0,0,472,108a1.93,1.93,0,0,0-.09.62V113h-1.32Z" fill="#231f20"/><path d="M479.69,109.6a2.32,2.32,0,0,0,2.49,2.52,4.82,4.82,0,0,0,2-.37l.22.94a5.85,5.85,0,0,1-2.41.45,3.37,3.37,0,0,1-3.57-3.66c0-2.19,1.29-3.91,3.4-3.91,2.37,0,3,2.08,3,3.42,0,.27,0,.48,0,.61Zm3.87-.94a1.89,1.89,0,0,0-1.83-2.15,2.2,2.2,0,0,0-2,2.15Z" fill="#231f20"/><circle cx="520.49" cy="123.07" r="21.57" fill="#231f20"/><path d="M508.58,117h-.05l-2.86,1.48-.57-2.68,3.87-2h3v16.9h-3.38Z" fill="#fff"/><path d="M525.48,122.17c0,6.06-2.21,8.74-4.94,8.74-3.69,0-4.94-4.24-4.94-8.58,0-4.87,1.56-8.74,5.07-8.74C524.57,113.59,525.48,118.14,525.48,122.17Zm-6.45.08c0,4,.44,5.74,1.59,5.74s1.43-1.87,1.43-5.74c0-3.62-.34-5.75-1.43-5.75S519,118.32,519,122.25Z" fill="#fff"/><path d="M533,130.7l-.18-1.25h-.06a3.31,3.31,0,0,1-2.8,1.46c-1.93,0-3.36-1.62-3.36-3.88,0-3.33,2.94-4.7,5.83-4.73V122a1.62,1.62,0,0,0-1.8-1.71,4.77,4.77,0,0,0-2.6.73l-.62-2.29a8.22,8.22,0,0,1,4-1c3.87,0,4.5,2.7,4.5,5.27v4.74a16.66,16.66,0,0,0,.21,2.91Zm-.47-6.19c-1.14,0-2.7.39-2.7,2.16,0,1.27.7,1.74,1.22,1.74a1.48,1.48,0,0,0,1.4-1.09,2.29,2.29,0,0,0,.08-.6Z" fill="#fff"/><path d="M389.47,118.12c-21.61,8.6-43.54,33-57.35,54.45" fill="none" stroke="#231f20" stroke-miterlimit="10"/><polygon points="330.49 170.63 330.21 175.61 334.66 173.36 330.49 170.63" fill="#231f20"/><rect x="344.28" y="242.15" width="194.24" height="64.02" fill="#adafb2" opacity="0.9"/><path d="M356.11,248.7v4.23H361V248.7h1.32v10.11H361v-4.74h-4.89v4.74H354.8V248.7Z" fill="#231f20"/><path d="M371.11,255.12a3.55,3.55,0,0,1-3.62,3.85,3.45,3.45,0,0,1-3.48-3.73,3.55,3.55,0,0,1,3.6-3.86A3.44,3.44,0,0,1,371.11,255.12Zm-5.76.07c0,1.59.91,2.79,2.2,2.79s2.21-1.18,2.21-2.82c0-1.23-.62-2.79-2.18-2.79S365.35,253.81,365.35,255.19Z" fill="#231f20"/><path d="M373.19,251.55l1,3.69c.21.81.41,1.56.54,2.31h.05c.16-.74.4-1.52.64-2.3l1.19-3.7h1.11l1.12,3.63c.27.87.48,1.63.65,2.37h0a22,22,0,0,1,.56-2.36l1-3.64h1.31l-2.34,7.26h-1.2l-1.11-3.47a23.15,23.15,0,0,1-.65-2.38h0a20.46,20.46,0,0,1-.66,2.4l-1.17,3.45H374l-2.19-7.26Z" fill="#231f20"/><path d="M384.29,255.42a2.33,2.33,0,0,0,2.49,2.52,4.73,4.73,0,0,0,2-.38l.23.95a5.91,5.91,0,0,1-2.42.45A3.37,3.37,0,0,1,383,255.3c0-2.19,1.29-3.92,3.41-3.92,2.37,0,3,2.09,3,3.42a4.15,4.15,0,0,1-.05.62Zm3.87-.95a1.87,1.87,0,0,0-1.83-2.14,2.18,2.18,0,0,0-2,2.14Z" fill="#231f20"/><path d="M391.58,251.55l1.43,4.08a18.59,18.59,0,0,1,.58,1.86h.05c.16-.6.37-1.2.61-1.86l1.41-4.08H397l-2.85,7.26h-1.26l-2.76-7.26Z" fill="#231f20"/><path d="M398.87,255.42a2.33,2.33,0,0,0,2.49,2.52,4.73,4.73,0,0,0,2-.38l.23.95a5.91,5.91,0,0,1-2.42.45,3.37,3.37,0,0,1-3.57-3.66c0-2.19,1.29-3.92,3.41-3.92,2.37,0,3,2.09,3,3.42a4.15,4.15,0,0,1,0,.62Zm3.87-.95a1.87,1.87,0,0,0-1.83-2.14,2.18,2.18,0,0,0-2,2.14Z" fill="#231f20"/><path d="M405.65,253.81c0-.85,0-1.59-.06-2.26h1.16l0,1.42h.06a2.19,2.19,0,0,1,2-1.59,1.46,1.46,0,0,1,.38.05v1.24a2,2,0,0,0-.45,0,1.85,1.85,0,0,0-1.77,1.69,3.72,3.72,0,0,0-.06.62v3.87h-1.31Z" fill="#231f20"/><path d="M408.91,260.65a22,22,0,0,0,.9-3.58l1.47-.15a18.51,18.51,0,0,1-1.43,3.64Z" fill="#231f20"/><path d="M419.53,258.81l-.1-.92h-.05a2.69,2.69,0,0,1-2.22,1.08,2.06,2.06,0,0,1-2.22-2.08c0-1.76,1.56-2.72,4.37-2.7V254a1.5,1.5,0,0,0-1.65-1.68,3.6,3.6,0,0,0-1.89.54l-.3-.87a4.5,4.5,0,0,1,2.38-.65c2.22,0,2.76,1.52,2.76,3v2.72a10.26,10.26,0,0,0,.12,1.74Zm-.19-3.71c-1.44,0-3.08.23-3.08,1.64a1.17,1.17,0,0,0,1.25,1.26,1.8,1.8,0,0,0,1.75-1.22,1.2,1.2,0,0,0,.08-.42Z" fill="#231f20"/><path d="M423.62,260.91a2.15,2.15,0,0,0,1.44-.56c.36-.42.49-1,.49-2.73v-6.07h1.32v6.58a4,4,0,0,1-.87,3,3.35,3.35,0,0,1-2.25.82Zm3.4-11.4a.77.77,0,0,1-.82.81.79.79,0,0,1-.81-.81.81.81,0,0,1,.84-.83A.78.78,0,0,1,427,249.51Z" fill="#231f20"/><path d="M435.11,256.83c0,.75,0,1.41.06,2H434l-.08-1.19h0a2.71,2.71,0,0,1-2.4,1.35c-1.14,0-2.5-.63-2.5-3.18v-4.24h1.32v4c0,1.38.42,2.31,1.62,2.31a1.92,1.92,0,0,0,1.74-1.2,2.11,2.11,0,0,0,.12-.68v-4.45h1.32Z" fill="#231f20"/><path d="M437.3,253.51c0-.75,0-1.36-.06-2h1.15l.06,1.17h.05a2.5,2.5,0,0,1,2.28-1.34,2.13,2.13,0,0,1,2.05,1.46h0a3.08,3.08,0,0,1,.81-1,2.5,2.5,0,0,1,1.61-.51c1,0,2.38.63,2.38,3.15v4.28h-1.29V254.7c0-1.4-.51-2.24-1.57-2.24a1.71,1.71,0,0,0-1.56,1.2,2.17,2.17,0,0,0-.11.66v4.49h-1.29v-4.35c0-1.16-.51-2-1.51-2a1.8,1.8,0,0,0-1.64,1.32,2,2,0,0,0-.1.65v4.38H437.3Z" fill="#231f20"/><path d="M449.81,253.92c0-.93,0-1.68-.06-2.37h1.18l.06,1.24h0a2.87,2.87,0,0,1,2.58-1.41c1.76,0,3.08,1.49,3.08,3.69,0,2.61-1.59,3.9-3.3,3.9a2.56,2.56,0,0,1-2.24-1.14h0v3.94h-1.3Zm1.3,1.93a2.87,2.87,0,0,0,.06.54,2,2,0,0,0,2,1.55c1.4,0,2.21-1.14,2.21-2.81,0-1.45-.77-2.7-2.16-2.7a2.12,2.12,0,0,0-2,1.64,2.34,2.34,0,0,0-.09.54Z" fill="#231f20"/><path d="M466.16,258.54a4.83,4.83,0,0,1-2.08.42,3.46,3.46,0,0,1-3.62-3.71,3.69,3.69,0,0,1,3.9-3.85,4.42,4.42,0,0,1,1.83.37l-.3,1a3.05,3.05,0,0,0-1.53-.34,2.74,2.74,0,0,0,0,5.46,3.84,3.84,0,0,0,1.62-.36Z" fill="#231f20"/><path d="M471.73,258.81l-.11-.92h0a2.72,2.72,0,0,1-2.22,1.08,2.06,2.06,0,0,1-2.22-2.08c0-1.76,1.56-2.72,4.36-2.7V254a1.49,1.49,0,0,0-1.65-1.68,3.63,3.63,0,0,0-1.89.54l-.3-.87a4.51,4.51,0,0,1,2.39-.65c2.22,0,2.76,1.52,2.76,3v2.72a10.26,10.26,0,0,0,.12,1.74Zm-.2-3.71c-1.44,0-3.07.23-3.07,1.64A1.17,1.17,0,0,0,469.7,258a1.81,1.81,0,0,0,1.76-1.22,1.48,1.48,0,0,0,.07-.42Z" fill="#231f20"/><path d="M474.94,253.51c0-.75,0-1.36-.06-2h1.17l.07,1.2h0a2.67,2.67,0,0,1,2.4-1.37c1,0,2.57.6,2.57,3.09v4.34H479.8v-4.19c0-1.17-.44-2.14-1.68-2.14a1.94,1.94,0,0,0-1.86,2v4.37h-1.32Z" fill="#231f20"/><path d="M485.85,258.81c0-.5.06-1.23.06-1.88v-8.77h1.3v4.56h0a2.72,2.72,0,0,1,2.48-1.34c1.8,0,3.07,1.5,3.06,3.71,0,2.59-1.64,3.88-3.26,3.88a2.58,2.58,0,0,1-2.43-1.36h0l-.06,1.2Zm1.36-2.91a2.52,2.52,0,0,0,.06.48,2,2,0,0,0,2,1.54c1.38,0,2.21-1.12,2.21-2.79,0-1.45-.75-2.7-2.16-2.7a2.11,2.11,0,0,0-2,1.62,2.57,2.57,0,0,0-.08.54Z" fill="#231f20"/><path d="M495.18,255.42a2.33,2.33,0,0,0,2.49,2.52,4.8,4.8,0,0,0,2-.38l.22.95a5.85,5.85,0,0,1-2.41.45,3.37,3.37,0,0,1-3.57-3.66c0-2.19,1.29-3.92,3.4-3.92,2.37,0,3,2.09,3,3.42,0,.27,0,.48,0,.62Zm3.87-.95a1.88,1.88,0,0,0-1.83-2.14,2.19,2.19,0,0,0-2,2.14Z" fill="#231f20"/><path d="M509.78,258.54a4.89,4.89,0,0,1-2.09.42,3.45,3.45,0,0,1-3.61-3.71,3.69,3.69,0,0,1,3.9-3.85,4.42,4.42,0,0,1,1.83.37l-.3,1a3.08,3.08,0,0,0-1.53-.34,2.74,2.74,0,0,0-.05,5.46,3.81,3.81,0,0,0,1.62-.36Z" fill="#231f20"/><path d="M517.8,255.12a3.55,3.55,0,0,1-3.61,3.85,3.45,3.45,0,0,1-3.48-3.73,3.55,3.55,0,0,1,3.6-3.86A3.44,3.44,0,0,1,517.8,255.12Zm-5.76.07c0,1.59.92,2.79,2.21,2.79s2.2-1.18,2.2-2.82c0-1.23-.61-2.79-2.17-2.79S512,253.81,512,255.19Z" fill="#231f20"/><path d="M519.47,253.51c0-.75,0-1.36-.06-2h1.17l.07,1.2h0a2.67,2.67,0,0,1,2.4-1.37c1,0,2.57.6,2.57,3.09v4.34h-1.32v-4.19c0-1.17-.44-2.14-1.68-2.14a1.94,1.94,0,0,0-1.86,2v4.37h-1.32Z" fill="#231f20"/><path d="M530.85,254.26v1h-3.7v-1Z" fill="#231f20"/><path d="M356.35,267.46v2.09h1.89v1h-1.89v3.92c0,.9.25,1.41,1,1.41a3.13,3.13,0,0,0,.76-.09l.06,1A3.32,3.32,0,0,1,357,277a1.82,1.82,0,0,1-1.42-.56,2.66,2.66,0,0,1-.51-1.89v-4h-1.13v-1h1.13v-1.74Z" fill="#231f20"/><path d="M361.19,267.51a.77.77,0,0,1-.84.81.78.78,0,0,1-.79-.81.8.8,0,0,1,.82-.83A.78.78,0,0,1,361.19,267.51Zm-1.47,9.3v-7.26H361v7.26Z" fill="#231f20"/><path d="M363.23,271.51c0-.75,0-1.36-.06-2h1.17l.08,1.2h0a2.67,2.67,0,0,1,2.4-1.37c1,0,2.56.6,2.56,3.09v4.34h-1.32v-4.19c0-1.17-.43-2.14-1.68-2.14a1.94,1.94,0,0,0-1.86,2v4.37h-1.32Z" fill="#231f20"/><path d="M377.63,274.83q0,1.13.06,2h-1.17l-.07-1.19h0A2.73,2.73,0,0,1,374,277c-1.14,0-2.51-.63-2.51-3.18v-4.24h1.32v4c0,1.38.42,2.31,1.62,2.31a1.91,1.91,0,0,0,1.74-1.2,1.87,1.87,0,0,0,.12-.68v-4.45h1.32Z" fill="#231f20"/><path d="M380.56,273.42a2.33,2.33,0,0,0,2.49,2.52,4.8,4.8,0,0,0,2-.38l.22.95a5.85,5.85,0,0,1-2.41.45,3.37,3.37,0,0,1-3.57-3.66c0-2.19,1.29-3.92,3.4-3.92,2.37,0,3,2.09,3,3.42,0,.27,0,.48,0,.62Zm3.87-.95a1.88,1.88,0,0,0-1.83-2.14,2.19,2.19,0,0,0-2,2.14Z" fill="#231f20"/><path d="M393.61,266.16v8.77c0,.65,0,1.38.06,1.88h-1.19l-.06-1.26h0a2.67,2.67,0,0,1-2.47,1.42c-1.76,0-3.11-1.48-3.11-3.69,0-2.41,1.49-3.9,3.26-3.9a2.44,2.44,0,0,1,2.19,1.11h0v-4.33Zm-1.32,6.34a2.57,2.57,0,0,0-.06-.55,2,2,0,0,0-1.91-1.53c-1.36,0-2.17,1.2-2.17,2.8s.72,2.69,2.14,2.69a2,2,0,0,0,1.94-1.58,2.56,2.56,0,0,0,.06-.57Z" fill="#231f20"/><path d="M402.14,267.46v2.09H404v1h-1.89v3.92c0,.9.26,1.41,1,1.41a3.22,3.22,0,0,0,.77-.09l.06,1a3.37,3.37,0,0,1-1.17.18,1.84,1.84,0,0,1-1.43-.56,2.71,2.71,0,0,1-.51-1.89v-4h-1.12v-1h1.12v-1.74Z" fill="#231f20"/><path d="M405.52,266.16h1.32v4.53h0a2.4,2.4,0,0,1,.94-.93,2.68,2.68,0,0,1,1.35-.38c1,0,2.54.6,2.54,3.11v4.32h-1.32v-4.17c0-1.17-.44-2.16-1.68-2.16a1.89,1.89,0,0,0-1.77,1.32,1.5,1.5,0,0,0-.09.63v4.38h-1.32Z" fill="#231f20"/><path d="M413.84,271.81c0-.85,0-1.59-.06-2.26h1.16l0,1.42H415a2.19,2.19,0,0,1,2-1.59,1.46,1.46,0,0,1,.38.05v1.24a2.09,2.09,0,0,0-.45,0,1.85,1.85,0,0,0-1.77,1.69,3.72,3.72,0,0,0-.06.62v3.87h-1.31Z" fill="#231f20"/><path d="M425.16,273.12a3.54,3.54,0,0,1-3.61,3.85,3.45,3.45,0,0,1-3.48-3.73,3.55,3.55,0,0,1,3.6-3.86A3.44,3.44,0,0,1,425.16,273.12Zm-5.76.07c0,1.59.92,2.79,2.21,2.79s2.2-1.18,2.2-2.82c0-1.23-.61-2.79-2.17-2.79S419.4,271.81,419.4,273.19Z" fill="#231f20"/><path d="M432.9,274.83q0,1.13.06,2h-1.17l-.07-1.19h0a2.73,2.73,0,0,1-2.4,1.35c-1.14,0-2.51-.63-2.51-3.18v-4.24h1.32v4c0,1.38.42,2.31,1.63,2.31a1.9,1.9,0,0,0,1.73-1.2,1.87,1.87,0,0,0,.12-.68v-4.45h1.32Z" fill="#231f20"/><path d="M441.35,269.55c0,.52-.06,1.11-.06,2v4.22c0,1.66-.33,2.68-1,3.31a3.83,3.83,0,0,1-2.64.87,4.65,4.65,0,0,1-2.41-.6l.33-1a4.09,4.09,0,0,0,2.13.57c1.35,0,2.34-.71,2.34-2.54v-.81h0a2.6,2.6,0,0,1-2.31,1.22,3.25,3.25,0,0,1-3.09-3.54c0-2.46,1.6-3.86,3.27-3.86a2.4,2.4,0,0,1,2.26,1.26h0l.06-1.09ZM440,272.41a1.91,1.91,0,0,0-1.92-2c-1.26,0-2.16,1.06-2.16,2.74,0,1.43.72,2.61,2.15,2.61a1.93,1.93,0,0,0,1.83-1.35,2.42,2.42,0,0,0,.1-.7Z" fill="#231f20"/><path d="M443.48,266.16h1.32v4.53h0a2.4,2.4,0,0,1,.94-.93,2.68,2.68,0,0,1,1.35-.38c1,0,2.54.6,2.54,3.11v4.32h-1.32v-4.17c0-1.17-.44-2.16-1.68-2.16a1.89,1.89,0,0,0-1.77,1.32,1.5,1.5,0,0,0-.09.63v4.38h-1.32Z" fill="#231f20"/><path d="M458.15,267.46v2.09H460v1h-1.89v3.92c0,.9.25,1.41,1,1.41a3.13,3.13,0,0,0,.76-.09l.06,1a3.32,3.32,0,0,1-1.17.18,1.82,1.82,0,0,1-1.42-.56,2.66,2.66,0,0,1-.51-1.89v-4h-1.13v-1h1.13v-1.74Z" fill="#231f20"/><path d="M461.52,266.16h1.32v4.53h0a2.36,2.36,0,0,1,.95-.93,2.66,2.66,0,0,1,1.35-.38c1,0,2.53.6,2.53,3.11v4.32h-1.32v-4.17c0-1.17-.43-2.16-1.68-2.16a1.9,1.9,0,0,0-1.77,1.32,1.68,1.68,0,0,0-.09.63v4.38h-1.32Z" fill="#231f20"/><path d="M470.58,273.42a2.33,2.33,0,0,0,2.49,2.52,4.73,4.73,0,0,0,2-.38l.23.95a5.91,5.91,0,0,1-2.42.45,3.37,3.37,0,0,1-3.57-3.66c0-2.19,1.29-3.92,3.41-3.92,2.37,0,3,2.09,3,3.42a4.15,4.15,0,0,1-.05.62Zm3.87-.95a1.87,1.87,0,0,0-1.83-2.14,2.18,2.18,0,0,0-2,2.14Z" fill="#231f20"/><path d="M488.37,269.55c0,.52-.06,1.11-.06,2v4.22c0,1.66-.33,2.68-1,3.31a3.86,3.86,0,0,1-2.64.87,4.72,4.72,0,0,1-2.42-.6l.33-1a4.09,4.09,0,0,0,2.13.57c1.35,0,2.34-.71,2.34-2.54v-.81h0a2.57,2.57,0,0,1-2.31,1.22,3.25,3.25,0,0,1-3.09-3.54c0-2.46,1.61-3.86,3.27-3.86a2.43,2.43,0,0,1,2.27,1.26h0l.06-1.09ZM487,272.41a1.94,1.94,0,0,0-1.92-2c-1.26,0-2.16,1.06-2.16,2.74,0,1.43.72,2.61,2.14,2.61a1.93,1.93,0,0,0,1.83-1.35,2.13,2.13,0,0,0,.11-.7Z" fill="#231f20"/><path d="M497.07,273.12a3.55,3.55,0,0,1-3.61,3.85,3.45,3.45,0,0,1-3.48-3.73,3.55,3.55,0,0,1,3.6-3.86A3.44,3.44,0,0,1,497.07,273.12Zm-5.76.07c0,1.59.92,2.79,2.21,2.79s2.2-1.18,2.2-2.82c0-1.23-.61-2.79-2.17-2.79S491.31,271.81,491.31,273.19Z" fill="#231f20"/><path d="M502.76,276.81l-.11-.92h0a2.72,2.72,0,0,1-2.22,1.08,2.06,2.06,0,0,1-2.22-2.08c0-1.76,1.56-2.72,4.36-2.7V272a1.49,1.49,0,0,0-1.65-1.68,3.63,3.63,0,0,0-1.89.54l-.3-.87a4.51,4.51,0,0,1,2.39-.65c2.22,0,2.76,1.52,2.76,3v2.72a10.26,10.26,0,0,0,.12,1.74Zm-.2-3.71c-1.44,0-3.07.23-3.07,1.64a1.17,1.17,0,0,0,1.24,1.26,1.81,1.81,0,0,0,1.76-1.22,1.48,1.48,0,0,0,.07-.42Z" fill="#231f20"/><path d="M506,266.16h1.32v10.65H506Z" fill="#231f20"/><path d="M509.51,266.16h1.32v10.65h-1.32Z" fill="#231f20"/><path d="M514.52,267.51a.82.82,0,0,1-1.64,0,.81.81,0,0,1,.83-.83A.79.79,0,0,1,514.52,267.51Zm-1.47,9.3v-7.26h1.32v7.26Z" fill="#231f20"/><path d="M516.56,271.51c0-.75,0-1.36-.06-2h1.17l.07,1.2h0a2.67,2.67,0,0,1,2.4-1.37c1,0,2.57.6,2.57,3.09v4.34h-1.32v-4.19c0-1.17-.44-2.14-1.68-2.14a1.94,1.94,0,0,0-1.86,2v4.37h-1.32Z" fill="#231f20"/><path d="M525.62,273.42a2.33,2.33,0,0,0,2.49,2.52,4.8,4.8,0,0,0,2-.38l.22.95a5.85,5.85,0,0,1-2.41.45,3.37,3.37,0,0,1-3.57-3.66c0-2.19,1.29-3.92,3.4-3.92,2.37,0,3,2.09,3,3.42,0,.27,0,.48,0,.62Zm3.87-.95a1.88,1.88,0,0,0-1.83-2.14,2.19,2.19,0,0,0-2,2.14Z" fill="#231f20"/><path d="M355.28,287.55l1,3.69c.21.81.41,1.56.54,2.31h.05c.16-.74.4-1.52.64-2.3l1.19-3.7h1.11l1.12,3.63c.27.87.48,1.63.65,2.37h0a22,22,0,0,1,.56-2.36l1-3.64h1.31l-2.34,7.26h-1.2l-1.11-3.47a23.15,23.15,0,0,1-.65-2.38h0a20.46,20.46,0,0,1-.66,2.4l-1.17,3.45h-1.2l-2.19-7.26Z" fill="#231f20"/><path d="M367.27,285.51a.82.82,0,0,1-1.64,0,.81.81,0,0,1,.83-.83A.79.79,0,0,1,367.27,285.51Zm-1.47,9.3v-7.26h1.32v7.26Z" fill="#231f20"/><path d="M370.9,285.46v2.09h1.89v1H370.9v3.92c0,.89.25,1.4,1,1.4a2.69,2.69,0,0,0,.76-.09l.06,1a3.11,3.11,0,0,1-1.17.18,1.82,1.82,0,0,1-1.42-.55,2.67,2.67,0,0,1-.51-1.89v-4h-1.13v-1h1.13v-1.74Z" fill="#231f20"/><path d="M374.27,284.16h1.32v4.53h0a2.36,2.36,0,0,1,.95-.93,2.66,2.66,0,0,1,1.35-.38c1,0,2.53.6,2.53,3.11v4.32h-1.32v-4.17c0-1.17-.43-2.16-1.68-2.16a1.9,1.9,0,0,0-1.77,1.32,1.68,1.68,0,0,0-.09.63v4.38h-1.32Z" fill="#231f20"/><path d="M389.17,291.11a3.55,3.55,0,0,1-3.62,3.86,3.45,3.45,0,0,1-3.48-3.73,3.55,3.55,0,0,1,3.6-3.86A3.44,3.44,0,0,1,389.17,291.11Zm-5.76.08c0,1.59.91,2.79,2.2,2.79s2.21-1.18,2.21-2.82c0-1.23-.62-2.79-2.18-2.79S383.41,289.81,383.41,291.19Z" fill="#231f20"/><path d="M396.91,292.83c0,.75,0,1.41.06,2H395.8l-.08-1.19h0a2.73,2.73,0,0,1-2.4,1.35c-1.14,0-2.5-.63-2.5-3.18v-4.24h1.32v4c0,1.37.42,2.3,1.62,2.3a1.91,1.91,0,0,0,1.74-1.19,2.11,2.11,0,0,0,.12-.68v-4.45h1.32Z" fill="#231f20"/><path d="M400.69,285.46v2.09h1.89v1h-1.89v3.92c0,.89.25,1.4,1,1.4a2.69,2.69,0,0,0,.76-.09l.06,1a3.11,3.11,0,0,1-1.17.18,1.82,1.82,0,0,1-1.42-.55,2.67,2.67,0,0,1-.51-1.89v-4h-1.13v-1h1.13v-1.74Z" fill="#231f20"/><path d="M407.24,284.16h1.32v10.65h-1.32Z" fill="#231f20"/><path d="M417.35,291.11a3.55,3.55,0,0,1-3.61,3.86,3.45,3.45,0,0,1-3.48-3.73,3.55,3.55,0,0,1,3.6-3.86A3.44,3.44,0,0,1,417.35,291.11Zm-5.76.08c0,1.59.92,2.79,2.21,2.79s2.2-1.18,2.2-2.82c0-1.23-.61-2.79-2.17-2.79S411.59,289.81,411.59,291.19Z" fill="#231f20"/><path d="M418.84,293.45a3.41,3.41,0,0,0,1.74.53c1,0,1.41-.48,1.41-1.08s-.38-1-1.35-1.33c-1.31-.47-1.92-1.19-1.92-2.06a2.23,2.23,0,0,1,2.5-2.13,3.64,3.64,0,0,1,1.79.45l-.33,1a2.85,2.85,0,0,0-1.49-.42c-.78,0-1.21.45-1.21,1s.43.87,1.38,1.23c1.26.48,1.9,1.11,1.9,2.19,0,1.28-1,2.17-2.71,2.17a4.13,4.13,0,0,1-2-.49Z" fill="#231f20"/><path d="M426.43,285.51a.82.82,0,0,1-1.64,0,.81.81,0,0,1,.83-.83A.79.79,0,0,1,426.43,285.51Zm-1.47,9.3v-7.26h1.32v7.26Z" fill="#231f20"/><path d="M428.47,289.51c0-.75,0-1.36-.06-2h1.17l.07,1.2h0a2.67,2.67,0,0,1,2.4-1.37c1,0,2.57.6,2.57,3.09v4.34h-1.32v-4.19c0-1.17-.44-2.14-1.68-2.14a1.94,1.94,0,0,0-1.86,2v4.37h-1.32Z" fill="#231f20"/><path d="M443.05,287.55c0,.52-.06,1.11-.06,2v4.22c0,1.66-.33,2.68-1,3.31a3.83,3.83,0,0,1-2.64.87,4.65,4.65,0,0,1-2.41-.6l.33-1a4.09,4.09,0,0,0,2.13.57c1.35,0,2.34-.71,2.34-2.54v-.81h0a2.59,2.59,0,0,1-2.31,1.21,3.24,3.24,0,0,1-3.09-3.53c0-2.47,1.6-3.86,3.27-3.86a2.4,2.4,0,0,1,2.26,1.26h0l.06-1.09Zm-1.37,2.86a1.91,1.91,0,0,0-1.92-2c-1.26,0-2.16,1.06-2.16,2.74,0,1.43.72,2.61,2.15,2.61a1.93,1.93,0,0,0,1.83-1.35,2.47,2.47,0,0,0,.1-.7Z" fill="#231f20"/><circle cx="485.22" cy="305.95" r="21.57" fill="#231f20"/><path d="M473.31,299.87h-.05l-2.86,1.49-.58-2.68,3.88-2h3v16.9h-3.38Z" fill="#fff"/><path d="M490.21,305.05c0,6.06-2.21,8.73-4.94,8.73-3.69,0-4.94-4.23-4.94-8.58,0-4.86,1.56-8.73,5.07-8.73C489.3,296.47,490.21,301,490.21,305.05Zm-6.45.08c-.05,3.95.44,5.74,1.59,5.74s1.43-1.87,1.43-5.74c0-3.62-.34-5.75-1.43-5.75S483.73,301.2,483.76,305.13Z" fill="#fff"/><path d="M491.87,313.58c.05-1.12.11-2.55.11-3.77V295.58h3.4v6.56h.06a3,3,0,0,1,2.65-1.49c2.47,0,3.59,2.79,3.59,6.22,0,4.44-1.77,6.91-4.14,6.91a2.64,2.64,0,0,1-2.5-1.71H495l-.19,1.51Zm3.51-4.55a2.42,2.42,0,0,0,.13.8c.29.91.76,1.17,1.17,1.17,1.15,0,1.61-1.43,1.61-3.87,0-2.19-.49-3.62-1.63-3.62-.52,0-1,.55-1.15,1.17a2.89,2.89,0,0,0-.13.78Z" fill="#fff"/><path d="M350.86,284.83c-16.95,12.44-33.3,16.43-57.32,11.81" fill="none" stroke="#231f20" stroke-miterlimit="10"/><polygon points="294.71 294.24 290.02 295.92 293.82 299.14 294.71 294.24" fill="#231f20"/></svg>