<svg xmlns="http://www.w3.org/2000/svg" width="358.84" height="289" viewBox="0 0 358.84 289"><line x1="260.66" y1="99.66" x2="358.84" y2="99.66" fill="none" stroke="#808285" stroke-miterlimit="10" stroke-width="0.5"/><line x1="260.66" y1="122.52" x2="358.84" y2="122.52" fill="none" stroke="#808285" stroke-miterlimit="10" stroke-width="0.5"/><line x1="260.66" y1="145.38" x2="358.84" y2="145.38" fill="none" stroke="#808285" stroke-miterlimit="10" stroke-width="0.5"/><line x1="260.66" y1="168.24" x2="358.84" y2="168.24" fill="none" stroke="#808285" stroke-miterlimit="10" stroke-width="0.5"/><line x1="260.66" y1="191.1" x2="358.84" y2="191.1" fill="none" stroke="#808285" stroke-miterlimit="10" stroke-width="0.5"/><line x1="260.66" y1="213.96" x2="358.84" y2="213.96" fill="none" stroke="#808285" stroke-miterlimit="10" stroke-width="0.5"/><line x1="260.66" y1="236.82" x2="358.84" y2="236.82" fill="none" stroke="#808285" stroke-miterlimit="10" stroke-width="0.5"/><line x1="260.66" y1="99.66" x2="260.66" y2="247.7" fill="none" stroke="#808285" stroke-miterlimit="10" stroke-width="0.5"/><line x1="349.55" y1="99.66" x2="349.55" y2="247.7" fill="none" stroke="#808285" stroke-miterlimit="10" stroke-width="0.5"/><line x1="327.33" y1="99.66" x2="327.33" y2="247.7" fill="none" stroke="#808285" stroke-miterlimit="10" stroke-width="0.5"/><line x1="305.11" y1="99.66" x2="305.11" y2="247.7" fill="none" stroke="#808285" stroke-miterlimit="10" stroke-width="0.5"/><line x1="282.89" y1="99.66" x2="282.89" y2="247.7" fill="none" stroke="#808285" stroke-miterlimit="10" stroke-width="0.5"/><path d="M237.93,103.19l-1.05,3.18h-1.35L239,96.26h1.57L244,106.37H242.6l-1.08-3.18Zm3.32-1-1-2.91c-.23-.66-.38-1.26-.53-1.84h0c-.15.6-.31,1.21-.51,1.83l-1,2.92Z" fill="#939598"/><path d="M237,119.23a12.66,12.66,0,0,1,2.39-.21,4.17,4.17,0,0,1,2.77.73,2.11,2.11,0,0,1,.84,1.79,2.4,2.4,0,0,1-1.71,2.22v0a2.6,2.6,0,0,1,2.09,2.53,2.75,2.75,0,0,1-.86,2,5.08,5.08,0,0,1-3.49.94,15.41,15.41,0,0,1-2-.12Zm1.31,4.14h1.18c1.38,0,2.19-.72,2.19-1.7,0-1.18-.9-1.65-2.22-1.65a5.93,5.93,0,0,0-1.15.09Zm0,4.84a6.34,6.34,0,0,0,1.09.06c1.35,0,2.6-.49,2.6-2s-1.19-2-2.61-2h-1.08Z" fill="#939598"/><path d="M243.7,151.7a6.48,6.48,0,0,1-2.67.48,4.73,4.73,0,0,1-5-5.11,5,5,0,0,1,5.28-5.31,5.4,5.4,0,0,1,2.4.45l-.31,1.06a4.77,4.77,0,0,0-2-.42c-2.37,0-4,1.52-4,4.17,0,2.48,1.43,4.07,3.89,4.07a5.34,5.34,0,0,0,2.13-.42Z" fill="#939598"/><path d="M235.73,164.89a18.62,18.62,0,0,1,2.77-.21,5.78,5.78,0,0,1,4.1,1.26,4.64,4.64,0,0,1,1.42,3.63,5.36,5.36,0,0,1-1.45,3.93A6.27,6.27,0,0,1,238.1,175a19.94,19.94,0,0,1-2.37-.12Zm1.3,8.94a8.32,8.32,0,0,0,1.32.07c2.79,0,4.31-1.56,4.31-4.29,0-2.38-1.34-3.9-4.1-3.9a7.08,7.08,0,0,0-1.53.14Z" fill="#939598"/><path d="M242.79,193h-3.93v3.65h4.38v1.09h-5.68v-10.1H243v1.09h-4.16v3.19h3.93Z" fill="#939598"/><path d="M243.63,240.91a9.41,9.41,0,0,1-3.1.55,4.74,4.74,0,0,1-5.19-5.1c0-3,2.08-5.22,5.47-5.22a6.21,6.21,0,0,1,2.52.47l-.31,1.06a5.28,5.28,0,0,0-2.24-.43,3.78,3.78,0,0,0-4.06,4.06c0,2.57,1.54,4.08,3.9,4.08a4.27,4.27,0,0,0,1.74-.27v-3H240.3v-1h3.33Z" fill="#939598"/><path d="M259.46,78.4h0l-1.7.91-.25-1,2.13-1.14h1.12v9.75h-1.27Z" fill="#939598"/><path d="M279.08,86.92v-.81l1-1c2.49-2.37,3.62-3.63,3.63-5.1a1.73,1.73,0,0,0-1.93-1.9,3.33,3.33,0,0,0-2.07.82l-.42-.93a4.26,4.26,0,0,1,2.76-1,2.74,2.74,0,0,1,3,2.84c0,1.8-1.3,3.25-3.36,5.23l-.78.72v0h4.38v1.1Z" fill="#939598"/><path d="M328.13,86.92V84.26H323.6v-.87L328,77.17h1.43v6.06h1.36v1h-1.36v2.66Zm0-3.69V80c0-.51,0-1,.05-1.53h-.05c-.3.57-.54,1-.81,1.44l-2.38,3.32v0Z" fill="#939598"/><path d="M352.36,78.28h-3.72l-.37,2.5a5.08,5.08,0,0,1,.79-.06,4.12,4.12,0,0,1,2.1.53,2.76,2.76,0,0,1,1.4,2.5,3.38,3.38,0,0,1-3.63,3.33,4.74,4.74,0,0,1-2.43-.6l.33-1a4.34,4.34,0,0,0,2.08.54,2.15,2.15,0,0,0,2.31-2.12c0-1.26-.85-2.16-2.8-2.16a9.16,9.16,0,0,0-1.35.11l.63-4.68h4.66Z" fill="#939598"/><circle cx="305.11" cy="145.38" r="8.98" fill="#fff" stroke="#231f20" stroke-miterlimit="10"/><circle cx="282.89" cy="123.93" r="8.98" fill="#231f20" stroke="#231f20" stroke-miterlimit="10"/><circle cx="260.66" cy="99.66" r="8.98" fill="#231f20" stroke="#231f20" stroke-miterlimit="10"/><circle cx="305.11" cy="122.52" r="8.98" fill="#231f20" stroke="#231f20" stroke-miterlimit="10"/><circle cx="305.11" cy="99.66" r="8.98" fill="#231f20" stroke="#231f20" stroke-miterlimit="10"/><circle cx="282.89" cy="145.38" r="8.98" fill="#231f20" stroke="#231f20" stroke-miterlimit="10" opacity="0.5"/><circle cx="260.66" cy="191.1" r="8.98" fill="#231f20" stroke="#231f20" stroke-miterlimit="10" opacity="0.5"/><circle cx="282.89" cy="168.24" r="8.98" fill="#231f20" stroke="#231f20" stroke-miterlimit="10" opacity="0.5"/><circle cx="240.05" cy="213.96" r="8.98" fill="#fff" stroke="#231f20" stroke-miterlimit="10" opacity="0.5"/><circle cx="260.66" cy="145.38" r="8.98" fill="#fff" stroke="#231f20" stroke-miterlimit="10" opacity="0.5"/><path d="M305.11,145.38c3.05-9.92,2.91-45.49.67-60.3" fill="none" stroke="#ed2024" stroke-linecap="round" stroke-miterlimit="10" stroke-dasharray="3 3"/><polygon points="308.33 85.36 305.11 81.56 303.42 86.25 308.33 85.36" fill="#ed2024"/><line x1="302.58" y1="106.39" x2="312.05" y2="115.86" fill="none" stroke="#ed2024" stroke-linecap="square" stroke-miterlimit="10" stroke-width="3"/><line x1="312.05" y1="106.39" x2="302.58" y2="115.86" fill="none" stroke="#ed2024" stroke-linecap="square" stroke-miterlimit="10" stroke-width="3"/><path d="M305.11,145.38c-.24-.37-.52-.79-.83-1.24" fill="none" stroke="#ed2024" stroke-linecap="round" stroke-miterlimit="10"/><path d="M302.51,141.69c-9.75-13.16-36.34-43.86-52.2-56.36" fill="none" stroke="#ed2024" stroke-linecap="round" stroke-miterlimit="10" stroke-dasharray="3.02 3.02"/><path d="M249.11,84.4l-1.2-.88" fill="none" stroke="#ed2024" stroke-linecap="round" stroke-miterlimit="10"/><polygon points="249.88 81.87 244.91 81.56 247.12 86.02 249.88 81.87" fill="#ed2024"/><line x1="270.08" y1="110.22" x2="283.36" y2="112.03" fill="none" stroke="#ed2024" stroke-linecap="square" stroke-miterlimit="10" stroke-width="3"/><line x1="277.63" y1="104.49" x2="275.82" y2="117.76" fill="none" stroke="#ed2024" stroke-linecap="square" stroke-miterlimit="10" stroke-width="3"/><path d="M305.11,145.38c-12.43,7.12-52.34,47.9-63.3,65.46" fill="none" stroke="#ed2024" stroke-miterlimit="10"/><polygon points="240.04 208.98 240.05 213.96 244.36 211.47 240.04 208.98" fill="#ed2024"/><path d="M305.11,145.38c-7.34-3.63-28.29-4.34-41-1.06" fill="none" stroke="#ed2024" stroke-miterlimit="10"/><polygon points="264.1 141.77 260.67 145.38 265.51 146.55 264.1 141.77" fill="#ed2024"/><rect x="169.45" y="17.87" width="141.3" height="41.18" fill="#adafb2" opacity="0.9"/><path d="M191.22,33.38V23.27h1.42l3.24,5.12a28.67,28.67,0,0,1,1.82,3.28h0c-.12-1.35-.15-2.58-.15-4.16V23.27h1.23V33.38h-1.32l-3.21-5.13a31.16,31.16,0,0,1-1.89-3.37h0c.08,1.28.11,2.49.11,4.17v4.32Z" fill="#231f20"/><path d="M207.61,29.69A3.55,3.55,0,0,1,204,33.55a3.45,3.45,0,0,1-3.48-3.74,3.54,3.54,0,0,1,3.6-3.85A3.43,3.43,0,0,1,207.61,29.69Zm-5.76.08c0,1.59.92,2.79,2.21,2.79s2.2-1.19,2.2-2.82c0-1.23-.61-2.79-2.17-2.79S201.85,28.39,201.85,29.77Z" fill="#231f20"/><path d="M215.57,35.48a2.14,2.14,0,0,0,1.44-.55c.36-.42.49-1,.49-2.73V26.12h1.32v6.59a4,4,0,0,1-.87,3,3.31,3.31,0,0,1-2.25.83Zm3.4-11.4a.77.77,0,0,1-.82.81.78.78,0,0,1-.81-.81.8.8,0,0,1,.84-.82A.77.77,0,0,1,219,24.08Z" fill="#231f20"/><path d="M227.06,31.4c0,.75,0,1.41.06,2H226l-.08-1.18h0a2.73,2.73,0,0,1-2.4,1.35c-1.14,0-2.5-.63-2.5-3.18V26.12h1.32v4c0,1.38.42,2.31,1.62,2.31a1.91,1.91,0,0,0,1.74-1.2,2,2,0,0,0,.12-.67V26.12h1.32Z" fill="#231f20"/><path d="M229.25,28.09c0-.75,0-1.37-.06-2h1.15l.06,1.17h0A2.49,2.49,0,0,1,232.73,26a2.14,2.14,0,0,1,2.05,1.45h0a3,3,0,0,1,.81-.94,2.5,2.5,0,0,1,1.61-.51c1,0,2.38.63,2.38,3.15v4.27h-1.29V29.27c0-1.39-.51-2.23-1.57-2.23a1.7,1.7,0,0,0-1.56,1.2,2.17,2.17,0,0,0-.11.66v4.48h-1.29V29c0-1.15-.51-2-1.51-2a1.8,1.8,0,0,0-1.64,1.32,1.91,1.91,0,0,0-.1.64v4.38h-1.29Z" fill="#231f20"/><path d="M241.76,28.49c0-.93,0-1.68-.06-2.37h1.18l.06,1.25h0A2.85,2.85,0,0,1,245.55,26c1.76,0,3.08,1.48,3.08,3.69,0,2.61-1.59,3.9-3.3,3.9a2.56,2.56,0,0,1-2.24-1.14h0v3.94h-1.3Zm1.3,1.94a3.08,3.08,0,0,0,.06.54,2,2,0,0,0,2,1.54c1.4,0,2.21-1.14,2.21-2.8,0-1.46-.77-2.7-2.16-2.7a2.11,2.11,0,0,0-2,1.63,2.44,2.44,0,0,0-.09.54Z" fill="#231f20"/><path d="M251.76,24.08a.77.77,0,0,1-.84.81.78.78,0,0,1-.79-.81.8.8,0,0,1,.82-.82A.78.78,0,0,1,251.76,24.08Zm-1.47,9.3V26.12h1.32v7.26Z" fill="#231f20"/><path d="M253.8,28.09c0-.75,0-1.37-.06-2h1.17l.08,1.2h0a2.67,2.67,0,0,1,2.4-1.36c1,0,2.56.6,2.56,3.09v4.33h-1.32V29.2c0-1.17-.43-2.15-1.68-2.15a1.89,1.89,0,0,0-1.77,1.35,1.93,1.93,0,0,0-.09.62v4.36H253.8Z" fill="#231f20"/><path d="M268.38,26.12c0,.53-.06,1.11-.06,2v4.21c0,1.67-.33,2.69-1,3.32a3.86,3.86,0,0,1-2.64.87,4.72,4.72,0,0,1-2.42-.6l.33-1a4.09,4.09,0,0,0,2.13.57c1.35,0,2.34-.7,2.34-2.53v-.81h0a2.59,2.59,0,0,1-2.31,1.21,3.25,3.25,0,0,1-3.09-3.54c0-2.46,1.61-3.85,3.27-3.85a2.43,2.43,0,0,1,2.27,1.26h0l.06-1.1ZM267,29a1.86,1.86,0,0,0-.08-.6A1.89,1.89,0,0,0,265.1,27c-1.26,0-2.16,1.07-2.16,2.75,0,1.42.72,2.61,2.14,2.61A1.93,1.93,0,0,0,266.91,31a2.19,2.19,0,0,0,.11-.71Z" fill="#231f20"/><path d="M278.57,28.49c0-.93,0-1.68-.06-2.37h1.19l.06,1.25h0A2.84,2.84,0,0,1,282.37,26c1.75,0,3.07,1.48,3.07,3.69,0,2.61-1.59,3.9-3.3,3.9a2.53,2.53,0,0,1-2.23-1.14h0v3.94h-1.31Zm1.31,1.94a3.08,3.08,0,0,0,.06.54,2,2,0,0,0,2,1.54c1.39,0,2.2-1.14,2.2-2.8,0-1.46-.76-2.7-2.16-2.7a2.09,2.09,0,0,0-2,1.63,2,2,0,0,0-.09.54Z" fill="#231f20"/><path d="M291.13,33.38l-.11-.91h0a2.72,2.72,0,0,1-2.22,1.08,2.07,2.07,0,0,1-2.22-2.09c0-1.75,1.56-2.71,4.36-2.7v-.15a1.49,1.49,0,0,0-1.65-1.68,3.63,3.63,0,0,0-1.89.54l-.3-.87a4.51,4.51,0,0,1,2.39-.64c2.22,0,2.76,1.51,2.76,3v2.71a10.18,10.18,0,0,0,.12,1.74Zm-.2-3.7c-1.44,0-3.07.22-3.07,1.63a1.16,1.16,0,0,0,1.24,1.26,1.81,1.81,0,0,0,1.76-1.21,1.6,1.6,0,0,0,.07-.42Z" fill="#231f20"/><path d="M294.16,32a3.41,3.41,0,0,0,1.74.53c1,0,1.41-.48,1.41-1.08s-.38-1-1.35-1.34C294.65,29.68,294,29,294,28.09a2.23,2.23,0,0,1,2.5-2.13,3.64,3.64,0,0,1,1.79.45l-.33,1a2.85,2.85,0,0,0-1.49-.42c-.78,0-1.21.45-1.21,1s.43.87,1.38,1.23c1.26.48,1.9,1.11,1.9,2.19,0,1.27-1,2.17-2.71,2.17a4.13,4.13,0,0,1-2-.49Z" fill="#231f20"/><path d="M301.87,24v2.08h1.89v1h-1.89V31c0,.9.25,1.41,1,1.41a2.69,2.69,0,0,0,.76-.09l.06,1a3.11,3.11,0,0,1-1.17.18,1.82,1.82,0,0,1-1.42-.55,2.67,2.67,0,0,1-.51-1.89v-4h-1.13v-1h1.13V24.38Z" fill="#231f20"/><path d="M184.7,42v2.08h1.89v1H184.7V49c0,.9.26,1.41,1,1.41a2.77,2.77,0,0,0,.77-.09l.06,1a3.14,3.14,0,0,1-1.17.18,1.84,1.84,0,0,1-1.43-.55,2.72,2.72,0,0,1-.51-1.89v-4h-1.12v-1h1.12V42.38Z" fill="#231f20"/><path d="M188.08,40.73h1.32v4.53h0a2.54,2.54,0,0,1,.94-.93,2.78,2.78,0,0,1,1.35-.37c1,0,2.54.6,2.54,3.1v4.32h-1.32V47.21c0-1.17-.44-2.16-1.68-2.16a1.89,1.89,0,0,0-1.77,1.32,1.53,1.53,0,0,0-.09.63v4.38h-1.32Z" fill="#231f20"/><path d="M197.14,48a2.32,2.32,0,0,0,2.49,2.52,4.82,4.82,0,0,0,2-.37l.22.94a5.85,5.85,0,0,1-2.41.45,3.37,3.37,0,0,1-3.57-3.66c0-2.19,1.29-3.91,3.4-3.91,2.37,0,3,2.08,3,3.42,0,.27,0,.48,0,.61Zm3.87-.94a1.89,1.89,0,0,0-1.83-2.15,2.19,2.19,0,0,0-2,2.15Z" fill="#231f20"/><path d="M208.69,42v2.08h1.89v1h-1.89V49c0,.9.25,1.41,1,1.41a2.69,2.69,0,0,0,.76-.09l.06,1a3.11,3.11,0,0,1-1.17.18,1.82,1.82,0,0,1-1.42-.55,2.67,2.67,0,0,1-.51-1.89v-4h-1.13v-1h1.13V42.38Z" fill="#231f20"/><path d="M218.54,47.69a3.55,3.55,0,0,1-3.61,3.86,3.45,3.45,0,0,1-3.48-3.74,3.54,3.54,0,0,1,3.6-3.85A3.43,3.43,0,0,1,218.54,47.69Zm-5.76.08c0,1.59.92,2.79,2.21,2.79s2.2-1.19,2.2-2.82c0-1.23-.61-2.79-2.17-2.79S212.78,46.39,212.78,47.77Z" fill="#231f20"/><path d="M220.21,46.49c0-.93,0-1.68-.06-2.37h1.18l.06,1.25h0A2.85,2.85,0,0,1,224,44c1.76,0,3.08,1.48,3.08,3.69,0,2.61-1.59,3.9-3.3,3.9a2.56,2.56,0,0,1-2.24-1.14h0v3.94h-1.3Zm1.3,1.94a3.08,3.08,0,0,0,.06.54,2,2,0,0,0,2,1.54c1.4,0,2.21-1.14,2.21-2.8,0-1.46-.77-2.7-2.16-2.7a2.11,2.11,0,0,0-2,1.63,2.44,2.44,0,0,0-.09.54Z" fill="#231f20"/><path d="M238.49,47.69a3.55,3.55,0,0,1-3.61,3.86,3.45,3.45,0,0,1-3.48-3.74A3.54,3.54,0,0,1,235,44,3.43,3.43,0,0,1,238.49,47.69Zm-5.76.08c0,1.59.92,2.79,2.21,2.79s2.2-1.19,2.2-2.82c0-1.23-.61-2.79-2.17-2.79S232.73,46.39,232.73,47.77Z" fill="#231f20"/><path d="M240.16,46.39c0-.86,0-1.59-.06-2.27h1.15l.05,1.43h.06a2.17,2.17,0,0,1,2-1.59,1.4,1.4,0,0,1,.37,0v1.25a1.93,1.93,0,0,0-.45,0,1.86,1.86,0,0,0-1.77,1.7,3.71,3.71,0,0,0-.06.61v3.87h-1.3Z" fill="#231f20"/><path d="M248.18,51.38c0-.49.06-1.23.06-1.87V40.73h1.31v4.56h0A2.69,2.69,0,0,1,252.05,44c1.8,0,3.08,1.5,3.06,3.7,0,2.6-1.63,3.89-3.25,3.89a2.59,2.59,0,0,1-2.43-1.37h-.05l-.06,1.2Zm1.37-2.91a2.42,2.42,0,0,0,.06.48,2,2,0,0,0,2,1.55c1.38,0,2.2-1.13,2.2-2.79,0-1.46-.75-2.7-2.16-2.7a2.1,2.1,0,0,0-2,1.62,2.63,2.63,0,0,0-.07.54Z" fill="#231f20"/><path d="M263.35,47.69a3.55,3.55,0,0,1-3.62,3.86,3.46,3.46,0,0,1-3.48-3.74,3.54,3.54,0,0,1,3.6-3.85A3.43,3.43,0,0,1,263.35,47.69Zm-5.76.08c0,1.59.91,2.79,2.2,2.79S262,49.37,262,47.74c0-1.23-.62-2.79-2.18-2.79S257.59,46.39,257.59,47.77Z" fill="#231f20"/><path d="M266.6,42v2.08h1.89v1H266.6V49c0,.9.26,1.41,1,1.41a2.77,2.77,0,0,0,.77-.09l.06,1a3.14,3.14,0,0,1-1.17.18,1.84,1.84,0,0,1-1.43-.55,2.72,2.72,0,0,1-.51-1.89v-4h-1.12v-1h1.12V42.38Z" fill="#231f20"/><path d="M271.57,42v2.08h1.89v1h-1.89V49c0,.9.25,1.41,1,1.41a2.69,2.69,0,0,0,.76-.09l.06,1a3.11,3.11,0,0,1-1.17.18,1.82,1.82,0,0,1-1.42-.55,2.67,2.67,0,0,1-.51-1.89v-4h-1.13v-1h1.13V42.38Z" fill="#231f20"/><path d="M281.42,47.69a3.55,3.55,0,0,1-3.61,3.86,3.45,3.45,0,0,1-3.48-3.74,3.54,3.54,0,0,1,3.6-3.85A3.43,3.43,0,0,1,281.42,47.69Zm-5.76.08c0,1.59.92,2.79,2.21,2.79s2.2-1.19,2.2-2.82c0-1.23-.61-2.79-2.17-2.79S275.66,46.39,275.66,47.77Z" fill="#231f20"/><path d="M283.09,46.09c0-.75,0-1.37-.06-2h1.15l.06,1.17h.05A2.49,2.49,0,0,1,286.57,44a2.14,2.14,0,0,1,2.05,1.45h0a3,3,0,0,1,.81-.94,2.5,2.5,0,0,1,1.61-.51c1,0,2.38.63,2.38,3.15v4.27h-1.29V47.27c0-1.39-.51-2.23-1.57-2.23a1.7,1.7,0,0,0-1.56,1.2,2.17,2.17,0,0,0-.11.66v4.48h-1.29V47c0-1.15-.51-2-1.51-2a1.8,1.8,0,0,0-1.64,1.32,1.91,1.91,0,0,0-.1.64v4.38h-1.29Z" fill="#231f20"/><circle cx="169.25" cy="17.87" r="17.87" fill="#231f20"/><path d="M168.35,7.53V10l-5.92,16.36h-3.71l5.8-15.47v-.05h-6.44V7.53Z" fill="#fff"/><path d="M177,26.39l-.2-1.4h-.06a3.69,3.69,0,0,1-3.13,1.63c-2.15,0-3.75-1.8-3.75-4.32,0-3.72,3.28-5.25,6.5-5.28V16.7a1.81,1.81,0,0,0-2-1.92,5.25,5.25,0,0,0-2.9.82l-.7-2.56A9.33,9.33,0,0,1,175.16,12c4.33,0,5,3,5,5.89v5.28a19.5,19.5,0,0,0,.23,3.25Zm-.52-6.91c-1.28,0-3,.44-3,2.41,0,1.42.78,1.94,1.36,1.94a1.64,1.64,0,0,0,1.57-1.22,2.34,2.34,0,0,0,.09-.66Z" fill="#fff"/><rect x="124.41" y="247.82" width="153.5" height="41.18" fill="#adafb2" opacity="0.9"/><path d="M151,263.33V259l-3.2-5.81h1.49l1.42,2.79c.39.76.69,1.38,1,2.08h0c.28-.66.63-1.32,1-2.08l1.45-2.79h1.49l-3.39,5.8v4.31Z" fill="#231f20"/><path d="M162.27,259.64a3.55,3.55,0,0,1-3.62,3.85,3.45,3.45,0,0,1-3.48-3.73,3.55,3.55,0,0,1,3.6-3.86A3.44,3.44,0,0,1,162.27,259.64Zm-5.76.07c0,1.59.91,2.79,2.2,2.79s2.21-1.18,2.21-2.82c0-1.23-.62-2.79-2.18-2.79S156.51,258.33,156.51,259.71Z" fill="#231f20"/><path d="M170,261.35c0,.75,0,1.41.06,2H168.9l-.08-1.19h0a2.73,2.73,0,0,1-2.4,1.35c-1.14,0-2.5-.63-2.5-3.18v-4.24h1.32v4c0,1.38.42,2.3,1.62,2.3a1.91,1.91,0,0,0,1.74-1.19,2.11,2.11,0,0,0,.12-.68v-4.45H170Z" fill="#231f20"/><path d="M183.36,263.06a4.92,4.92,0,0,1-2.09.41,3.44,3.44,0,0,1-3.61-3.7,3.69,3.69,0,0,1,3.9-3.85,4.42,4.42,0,0,1,1.83.37l-.3,1a3.08,3.08,0,0,0-1.53-.34,2.74,2.74,0,0,0-.05,5.46,3.81,3.81,0,0,0,1.62-.36Z" fill="#231f20"/><path d="M188.92,263.33l-.1-.92h0a2.68,2.68,0,0,1-2.21,1.08,2.07,2.07,0,0,1-2.23-2.08c0-1.76,1.56-2.72,4.37-2.7v-.15a1.5,1.5,0,0,0-1.65-1.68,3.6,3.6,0,0,0-1.89.54l-.3-.87a4.51,4.51,0,0,1,2.39-.65c2.21,0,2.75,1.52,2.75,3v2.72a10.26,10.26,0,0,0,.12,1.74Zm-.19-3.71c-1.44,0-3.08.23-3.08,1.64a1.17,1.17,0,0,0,1.25,1.25,1.81,1.81,0,0,0,1.75-1.21,1.3,1.3,0,0,0,.08-.42Z" fill="#231f20"/><path d="M192.13,258c0-.75,0-1.36,0-2h1.17l.07,1.2h0a2.67,2.67,0,0,1,2.4-1.37c1,0,2.56.6,2.56,3.09v4.34H197v-4.19c0-1.17-.43-2.14-1.68-2.14a1.9,1.9,0,0,0-1.85,2v4.37h-1.33Z" fill="#231f20"/><path d="M204.67,265.43a2.13,2.13,0,0,0,1.44-.56c.36-.42.5-1,.5-2.73v-6.07h1.32v6.58a4,4,0,0,1-.87,3,3.39,3.39,0,0,1-2.25.82Zm3.41-11.4a.78.78,0,0,1-.83.81.79.79,0,0,1-.81-.81.81.81,0,0,1,.84-.83A.79.79,0,0,1,208.08,254Z" fill="#231f20"/><path d="M216.16,261.35q0,1.13.06,2h-1.17l-.07-1.19h0a2.75,2.75,0,0,1-2.4,1.35c-1.14,0-2.51-.63-2.51-3.18v-4.24h1.32v4c0,1.38.42,2.3,1.62,2.3a1.9,1.9,0,0,0,1.74-1.19,1.87,1.87,0,0,0,.12-.68v-4.45h1.32Z" fill="#231f20"/><path d="M218.35,258c0-.75,0-1.36-.06-2h1.16l.06,1.17h0a2.51,2.51,0,0,1,2.28-1.34,2.16,2.16,0,0,1,2.06,1.46h0a3,3,0,0,1,.81-.95,2.45,2.45,0,0,1,1.6-.51c1,0,2.39.63,2.39,3.15v4.28h-1.29v-4.11c0-1.4-.51-2.24-1.58-2.24a1.72,1.72,0,0,0-1.56,1.2,2.18,2.18,0,0,0-.1.66v4.49H222.9V259c0-1.16-.51-2-1.52-2a1.8,1.8,0,0,0-1.63,1.32,1.74,1.74,0,0,0-.11.65v4.38h-1.29Z" fill="#231f20"/><path d="M230.86,258.44c0-.93,0-1.68-.06-2.37H232l.06,1.24h0a2.86,2.86,0,0,1,2.58-1.41c1.75,0,3.07,1.49,3.07,3.69,0,2.61-1.59,3.9-3.3,3.9a2.53,2.53,0,0,1-2.23-1.14h0v3.94h-1.31Zm1.31,1.93a3,3,0,0,0,.06.54,2,2,0,0,0,2,1.54c1.39,0,2.2-1.13,2.2-2.8,0-1.45-.76-2.7-2.16-2.7a2.1,2.1,0,0,0-2,1.64,1.91,1.91,0,0,0-.09.54Z" fill="#231f20"/><path d="M252,259.64a3.55,3.55,0,0,1-3.61,3.85,3.45,3.45,0,0,1-3.48-3.73,3.55,3.55,0,0,1,3.6-3.86A3.44,3.44,0,0,1,252,259.64Zm-5.76.07c0,1.59.92,2.79,2.21,2.79s2.2-1.18,2.2-2.82c0-1.23-.61-2.79-2.17-2.79S246.19,258.33,246.19,259.71Z" fill="#231f20"/><path d="M254,256.07l1.43,4.08A18.59,18.59,0,0,1,256,262h.05c.16-.6.37-1.2.61-1.86l1.41-4.08h1.38l-2.85,7.26h-1.26l-2.76-7.26Z" fill="#231f20"/><path d="M261.31,259.94a2.33,2.33,0,0,0,2.5,2.51,4.73,4.73,0,0,0,2-.37l.23.95a5.94,5.94,0,0,1-2.42.44,3.36,3.36,0,0,1-3.56-3.65c0-2.19,1.29-3.92,3.4-3.92,2.37,0,3,2.09,3,3.42a4.15,4.15,0,0,1,0,.62Zm3.88-.95a1.88,1.88,0,0,0-1.84-2.14,2.19,2.19,0,0,0-2,2.14Z" fill="#231f20"/><path d="M268.09,258.33c0-.85,0-1.59-.06-2.26h1.16l0,1.42h.06a2.19,2.19,0,0,1,2-1.59,1.46,1.46,0,0,1,.38,0v1.24a2,2,0,0,0-.45,0,1.85,1.85,0,0,0-1.77,1.69,3.72,3.72,0,0,0-.06.62v3.87h-1.31Z" fill="#231f20"/><path d="M133.66,272v2.09h1.89v1h-1.89V279c0,.9.26,1.4,1,1.4a3.33,3.33,0,0,0,.77-.08l.06,1a3.45,3.45,0,0,1-1.17.17,1.82,1.82,0,0,1-1.43-.55,2.66,2.66,0,0,1-.51-1.89v-4h-1.12v-1h1.12v-1.74Z" fill="#231f20"/><path d="M137,270.68h1.32v4.53h0a2.36,2.36,0,0,1,1-.93,2.66,2.66,0,0,1,1.35-.38c1,0,2.53.6,2.53,3.11v4.32h-1.32v-4.17c0-1.17-.43-2.16-1.68-2.16a1.91,1.91,0,0,0-1.77,1.32,1.68,1.68,0,0,0-.09.63v4.38H137Z" fill="#231f20"/><path d="M146.09,277.94a2.32,2.32,0,0,0,2.49,2.51,4.75,4.75,0,0,0,2-.37l.23.95a5.94,5.94,0,0,1-2.42.44,3.37,3.37,0,0,1-3.57-3.65c0-2.19,1.29-3.92,3.41-3.92,2.37,0,3,2.09,3,3.42a4.15,4.15,0,0,1-.05.62ZM150,277a1.87,1.87,0,0,0-1.83-2.14,2.18,2.18,0,0,0-2,2.14Z" fill="#231f20"/><path d="M156.05,270.68h1.32v10.65h-1.32Z" fill="#231f20"/><path d="M160.33,277.94a2.32,2.32,0,0,0,2.49,2.51,4.82,4.82,0,0,0,2-.37l.22.95a5.89,5.89,0,0,1-2.41.44,3.36,3.36,0,0,1-3.57-3.65c0-2.19,1.29-3.92,3.4-3.92,2.37,0,3,2.09,3,3.42,0,.27,0,.48,0,.62Zm3.87-.95a1.88,1.88,0,0,0-1.83-2.14,2.19,2.19,0,0,0-2,2.14Z" fill="#231f20"/><path d="M167.24,281.33v-6.26h-1v-1h1v-.35a3.42,3.42,0,0,1,.84-2.53,2.55,2.55,0,0,1,1.77-.68,3.2,3.2,0,0,1,1.13.21l-.18,1a2,2,0,0,0-.84-.16c-1.13,0-1.41,1-1.41,2.1v.39h1.75v1h-1.75v6.26Z" fill="#231f20"/><path d="M173.24,272v2.09h1.89v1h-1.89V279c0,.9.26,1.4,1,1.4a3.33,3.33,0,0,0,.77-.08l.06,1a3.4,3.4,0,0,1-1.17.17,1.84,1.84,0,0,1-1.43-.55A2.71,2.71,0,0,1,172,279v-4h-1.12v-1H172v-1.74Z" fill="#231f20"/><path d="M183.82,281.33l-.11-.92h0a2.72,2.72,0,0,1-2.22,1.08,2.07,2.07,0,0,1-2.22-2.08c0-1.76,1.56-2.72,4.36-2.7v-.15a1.49,1.49,0,0,0-1.65-1.68,3.63,3.63,0,0,0-1.89.54l-.3-.87a4.51,4.51,0,0,1,2.39-.65c2.22,0,2.76,1.52,2.76,3v2.72a10.26,10.26,0,0,0,.12,1.74Zm-.2-3.71c-1.44,0-3.07.23-3.07,1.64a1.16,1.16,0,0,0,1.24,1.25,1.81,1.81,0,0,0,1.76-1.21,1.6,1.6,0,0,0,.07-.42Z" fill="#231f20"/><path d="M187,276c0-.75,0-1.36-.06-2h1.17l.07,1.2h0a2.67,2.67,0,0,1,2.4-1.37c1,0,2.57.6,2.57,3.09v4.34h-1.32v-4.19c0-1.17-.44-2.14-1.68-2.14a1.94,1.94,0,0,0-1.86,2v4.37H187Z" fill="#231f20"/><path d="M201.62,270.68v8.77c0,.65,0,1.38.06,1.88H200.5l-.06-1.26h0a2.71,2.71,0,0,1-2.48,1.42c-1.75,0-3.1-1.48-3.1-3.69,0-2.41,1.48-3.9,3.25-3.9a2.44,2.44,0,0,1,2.19,1.11h0v-4.33ZM200.3,277a2.06,2.06,0,0,0-.06-.55,1.93,1.93,0,0,0-1.9-1.53c-1.37,0-2.18,1.2-2.18,2.8s.72,2.69,2.15,2.69a2,2,0,0,0,1.93-1.58,2.08,2.08,0,0,0,.06-.57Z" fill="#231f20"/><path d="M207,276.33c0-.85,0-1.59-.06-2.26h1.16l0,1.42h.06a2.19,2.19,0,0,1,2-1.59,1.46,1.46,0,0,1,.38.05v1.24a2,2,0,0,0-.45,0,1.85,1.85,0,0,0-1.77,1.69,3.72,3.72,0,0,0-.06.62v3.87H207Z" fill="#231f20"/><path d="M213.43,272a.82.82,0,0,1-1.64,0,.81.81,0,0,1,.83-.83A.79.79,0,0,1,213.43,272Zm-1.47,9.3v-7.26h1.32v7.26Z" fill="#231f20"/><path d="M221.72,274.07c0,.52-.06,1.11-.06,2v4.22c0,1.66-.33,2.68-1,3.31a3.86,3.86,0,0,1-2.64.87,4.72,4.72,0,0,1-2.42-.6l.33-1a4,4,0,0,0,2.13.58c1.35,0,2.34-.71,2.34-2.54v-.81h0A2.57,2.57,0,0,1,218,281.3a3.25,3.25,0,0,1-3.09-3.54c0-2.46,1.61-3.86,3.27-3.86a2.43,2.43,0,0,1,2.27,1.26h0l.06-1.09Zm-1.36,2.86a1.94,1.94,0,0,0-1.92-2c-1.26,0-2.16,1.06-2.16,2.74,0,1.43.72,2.61,2.14,2.61a1.93,1.93,0,0,0,1.83-1.35,2.13,2.13,0,0,0,.11-.7Z" fill="#231f20"/><path d="M223.85,270.68h1.32v4.53h0a2.36,2.36,0,0,1,1-.93,2.66,2.66,0,0,1,1.35-.38c1,0,2.53.6,2.53,3.11v4.32h-1.32v-4.17c0-1.17-.43-2.16-1.68-2.16a1.9,1.9,0,0,0-1.77,1.32,1.68,1.68,0,0,0-.09.63v4.38h-1.32Z" fill="#231f20"/><path d="M233.71,272v2.09h1.89v1h-1.89V279c0,.9.25,1.4,1,1.4a3.23,3.23,0,0,0,.76-.08l.06,1a3.36,3.36,0,0,1-1.17.17,1.82,1.82,0,0,1-1.42-.55,2.66,2.66,0,0,1-.51-1.89v-4h-1.13v-1h1.13v-1.74Z" fill="#231f20"/><path d="M241,277.94a2.32,2.32,0,0,0,2.49,2.51,4.82,4.82,0,0,0,2-.37l.22.95a5.89,5.89,0,0,1-2.41.44,3.36,3.36,0,0,1-3.57-3.65c0-2.19,1.29-3.92,3.4-3.92,2.37,0,3,2.09,3,3.42,0,.27,0,.48,0,.62Zm3.87-.95a1.88,1.88,0,0,0-1.83-2.14,2.19,2.19,0,0,0-2,2.14Z" fill="#231f20"/><path d="M247.78,276c0-.75,0-1.36-.06-2h1.17l.07,1.2h0a2.67,2.67,0,0,1,2.4-1.37c1,0,2.57.6,2.57,3.09v4.34h-1.32v-4.19c0-1.17-.44-2.14-1.68-2.14a1.94,1.94,0,0,0-1.86,2v4.37h-1.32Z" fill="#231f20"/><path d="M262.37,270.68v8.77c0,.65,0,1.38.06,1.88h-1.18l-.06-1.26h0a2.71,2.71,0,0,1-2.48,1.42c-1.75,0-3.1-1.48-3.1-3.69,0-2.41,1.48-3.9,3.25-3.9A2.44,2.44,0,0,1,261,275h0v-4.33ZM261.05,277a2.06,2.06,0,0,0-.06-.55,1.93,1.93,0,0,0-1.9-1.53c-1.37,0-2.18,1.2-2.18,2.8s.72,2.69,2.15,2.69a2,2,0,0,0,1.93-1.58,2.08,2.08,0,0,0,.06-.57Z" fill="#231f20"/><path d="M264.38,280a3.41,3.41,0,0,0,1.74.53c1,0,1.41-.48,1.41-1.08s-.37-1-1.35-1.33c-1.3-.47-1.92-1.19-1.92-2.06a2.24,2.24,0,0,1,2.51-2.13,3.6,3.6,0,0,1,1.78.45l-.33,1a2.81,2.81,0,0,0-1.48-.42c-.78,0-1.22.45-1.22,1s.44.87,1.38,1.23c1.26.48,1.91,1.11,1.91,2.19,0,1.28-1,2.17-2.72,2.17a4.15,4.15,0,0,1-2-.49Z" fill="#231f20"/><circle cx="124.2" cy="247.82" r="17.87" fill="#231f20"/><path d="M123.31,237.48V240l-5.92,16.36h-3.71l5.8-15.46v-.06H113v-3.33Z" fill="#fff"/><path d="M125.45,256.33c.06-1.25.11-2.84.11-4.21V236.26h3.8v7.31h.06a3.39,3.39,0,0,1,3-1.66c2.76,0,4,3.11,4,6.94,0,5-2,7.71-4.61,7.71a2.92,2.92,0,0,1-2.78-1.91h-.09l-.2,1.68Zm3.91-5.08a2.44,2.44,0,0,0,.15.9c.32,1,.84,1.31,1.3,1.31,1.28,0,1.8-1.6,1.8-4.32,0-2.44-.55-4-1.82-4-.58,0-1.08.61-1.28,1.31a2.79,2.79,0,0,0-.15.87Z" fill="#fff"/><rect x="17.87" y="81.66" width="173.28" height="124.09" fill="#adafb2" opacity="0.9"/><path d="M46.1,92.83H43V91.72h7.48v1.11H47.42v9H46.1Z" fill="#231f20"/><path d="M51.49,91.18h1.32v4.53h0a2.54,2.54,0,0,1,.94-.93,2.78,2.78,0,0,1,1.35-.37c1,0,2.54.6,2.54,3.1v4.32H56.35V97.66c0-1.17-.44-2.16-1.68-2.16a1.89,1.89,0,0,0-1.77,1.32,1.53,1.53,0,0,0-.09.63v4.38H51.49Z" fill="#231f20"/><path d="M60.55,98.44A2.32,2.32,0,0,0,63,101a4.82,4.82,0,0,0,2-.37l.22.94a5.85,5.85,0,0,1-2.41.45,3.37,3.37,0,0,1-3.57-3.66c0-2.19,1.29-3.91,3.4-3.91,2.37,0,3,2.08,3,3.42,0,.27,0,.48,0,.61Zm3.87-.94a1.89,1.89,0,0,0-1.83-2.15,2.19,2.19,0,0,0-2,2.15Z" fill="#231f20"/><path d="M77.27,94.57c0,.53-.06,1.11-.06,2v4.21c0,1.67-.33,2.69-1,3.32a3.83,3.83,0,0,1-2.64.87,4.65,4.65,0,0,1-2.41-.6l.33-1a4.09,4.09,0,0,0,2.13.57c1.35,0,2.34-.7,2.34-2.53v-.81h0a2.61,2.61,0,0,1-2.31,1.21,3.25,3.25,0,0,1-3.09-3.54c0-2.46,1.6-3.85,3.27-3.85A2.4,2.4,0,0,1,76,95.67h0l.06-1.1ZM75.9,97.44a1.87,1.87,0,0,0-.07-.6A1.91,1.91,0,0,0,74,95.44c-1.26,0-2.16,1.07-2.16,2.75,0,1.42.72,2.61,2.15,2.61a1.93,1.93,0,0,0,1.83-1.35,2.48,2.48,0,0,0,.1-.71Z" fill="#231f20"/><path d="M83.42,101.83l-.11-.91h0A2.72,2.72,0,0,1,81.05,102a2.07,2.07,0,0,1-2.22-2.09c0-1.75,1.56-2.71,4.36-2.7v-.15a1.49,1.49,0,0,0-1.65-1.68,3.63,3.63,0,0,0-1.89.54l-.3-.87a4.51,4.51,0,0,1,2.39-.64c2.22,0,2.76,1.51,2.76,3v2.71a10.18,10.18,0,0,0,.12,1.74Zm-.2-3.7c-1.44,0-3.07.22-3.07,1.63A1.16,1.16,0,0,0,81.39,101a1.81,1.81,0,0,0,1.76-1.21,1.6,1.6,0,0,0,.07-.42Z" fill="#231f20"/><path d="M86.63,96.54c0-.75,0-1.37-.06-2h1.15l.06,1.17h0a2.49,2.49,0,0,1,2.28-1.33,2.14,2.14,0,0,1,2,1.45h0a3,3,0,0,1,.81-.94,2.5,2.5,0,0,1,1.61-.51c1,0,2.38.63,2.38,3.15v4.27H95.7V97.72c0-1.39-.51-2.23-1.57-2.23a1.7,1.7,0,0,0-1.56,1.2,2.17,2.17,0,0,0-.11.66v4.48H91.17V97.48c0-1.15-.51-2-1.51-2A1.8,1.8,0,0,0,88,96.81a1.91,1.91,0,0,0-.1.64v4.38H86.63Z" fill="#231f20"/><path d="M99.87,98.44a2.32,2.32,0,0,0,2.49,2.52,4.75,4.75,0,0,0,2-.37l.23.94a5.91,5.91,0,0,1-2.42.45,3.37,3.37,0,0,1-3.57-3.66c0-2.19,1.29-3.91,3.41-3.91,2.37,0,3,2.08,3,3.42a3.87,3.87,0,0,1,0,.61Zm3.87-.94a1.88,1.88,0,0,0-1.83-2.15,2.18,2.18,0,0,0-2,2.15Z" fill="#231f20"/><path d="M111.07,98.44a2.32,2.32,0,0,0,2.49,2.52,4.75,4.75,0,0,0,2-.37l.23.94a5.91,5.91,0,0,1-2.42.45,3.37,3.37,0,0,1-3.57-3.66c0-2.19,1.29-3.91,3.41-3.91,2.37,0,3,2.08,3,3.42a3.87,3.87,0,0,1,0,.61Zm3.87-.94a1.88,1.88,0,0,0-1.83-2.15,2.18,2.18,0,0,0-2,2.15Z" fill="#231f20"/><path d="M117.85,96.54c0-.75,0-1.37-.06-2H119l.08,1.2h0a2.67,2.67,0,0,1,2.4-1.36c1,0,2.56.6,2.56,3.09v4.33h-1.32V97.65c0-1.17-.43-2.15-1.68-2.15a1.89,1.89,0,0,0-1.77,1.35,1.93,1.93,0,0,0-.09.62v4.36h-1.32Z" fill="#231f20"/><path d="M132.45,91.18V100c0,.64,0,1.38.06,1.87h-1.19l-.06-1.26h0a2.68,2.68,0,0,1-2.47,1.43c-1.76,0-3.11-1.49-3.11-3.69,0-2.42,1.49-3.9,3.26-3.9a2.42,2.42,0,0,1,2.19,1.11h0V91.18Zm-1.32,6.35a2.67,2.67,0,0,0-.06-.56,2,2,0,0,0-1.91-1.53c-1.36,0-2.17,1.2-2.17,2.81s.72,2.68,2.14,2.68a2,2,0,0,0,1.94-1.57,2.56,2.56,0,0,0,.06-.57Z" fill="#231f20"/><path d="M134.46,100.48a3.41,3.41,0,0,0,1.74.53c1,0,1.41-.48,1.41-1.08s-.38-1-1.35-1.34c-1.31-.46-1.92-1.18-1.92-2a2.23,2.23,0,0,1,2.5-2.13,3.64,3.64,0,0,1,1.79.45l-.33,1a2.85,2.85,0,0,0-1.49-.42c-.78,0-1.21.45-1.21,1s.43.87,1.38,1.23c1.26.48,1.9,1.11,1.9,2.19,0,1.27-1,2.17-2.71,2.17a4.13,4.13,0,0,1-2-.49Z" fill="#231f20"/><path d="M144.79,94.57l1,3.69c.21.81.41,1.56.54,2.31h.05c.16-.73.4-1.51.64-2.29l1.19-3.71h1.11l1.12,3.63c.27.87.48,1.64.65,2.37h0a21.85,21.85,0,0,1,.56-2.35l1-3.65H154l-2.34,7.26h-1.2l-1.11-3.46a22.66,22.66,0,0,1-.65-2.39h0a20.46,20.46,0,0,1-.66,2.4l-1.17,3.45h-1.2l-2.19-7.26Z" fill="#231f20"/><path d="M155.31,91.18h1.32v4.53h0a2.54,2.54,0,0,1,.94-.93,2.78,2.78,0,0,1,1.35-.37c1,0,2.54.6,2.54,3.1v4.32h-1.32V97.66c0-1.17-.44-2.16-1.68-2.16a1.89,1.89,0,0,0-1.77,1.32,1.53,1.53,0,0,0-.09.63v4.38h-1.32Z" fill="#231f20"/><path d="M164.37,98.44a2.32,2.32,0,0,0,2.49,2.52,4.82,4.82,0,0,0,2-.37l.22.94a5.85,5.85,0,0,1-2.41.45,3.37,3.37,0,0,1-3.57-3.66c0-2.19,1.29-3.91,3.4-3.91,2.37,0,3,2.08,3,3.42,0,.27,0,.48,0,.61Zm3.87-.94a1.89,1.89,0,0,0-1.83-2.15,2.19,2.19,0,0,0-2,2.15Z" fill="#231f20"/><path d="M171.15,96.54c0-.75,0-1.37-.06-2h1.17l.07,1.2h0a2.67,2.67,0,0,1,2.4-1.36c1,0,2.57.6,2.57,3.09v4.33H176V97.65c0-1.17-.44-2.15-1.68-2.15a1.88,1.88,0,0,0-1.77,1.35,1.93,1.93,0,0,0-.09.62v4.36h-1.32Z" fill="#231f20"/><path d="M28,110.49v2.08h1.89v1H28v3.91c0,.9.26,1.41,1,1.41a2.77,2.77,0,0,0,.77-.09l.06,1a3.14,3.14,0,0,1-1.17.18,1.84,1.84,0,0,1-1.43-.55,2.72,2.72,0,0,1-.51-1.89v-4H25.59v-1h1.12v-1.74Z" fill="#231f20"/><path d="M31.38,109.18H32.7v4.53h0a2.54,2.54,0,0,1,.94-.93,2.78,2.78,0,0,1,1.35-.37c1,0,2.54.6,2.54,3.1v4.32H36.24v-4.17c0-1.17-.44-2.16-1.68-2.16a1.89,1.89,0,0,0-1.77,1.32,1.53,1.53,0,0,0-.09.63v4.38H31.38Z" fill="#231f20"/><path d="M40.44,116.44A2.32,2.32,0,0,0,42.93,119a4.82,4.82,0,0,0,2-.37l.22.94a5.85,5.85,0,0,1-2.41.45,3.37,3.37,0,0,1-3.57-3.66c0-2.19,1.29-3.91,3.4-3.91,2.37,0,3,2.08,3,3.42,0,.27,0,.48,0,.61Zm3.87-.94a1.89,1.89,0,0,0-1.83-2.15,2.19,2.19,0,0,0-2,2.15Z" fill="#231f20"/><path d="M53.69,119.83c0-.49.06-1.23.06-1.87v-8.78h1.31v4.56h0a2.69,2.69,0,0,1,2.47-1.33c1.8,0,3.08,1.5,3.06,3.7,0,2.6-1.64,3.89-3.25,3.89a2.58,2.58,0,0,1-2.43-1.37h0l-.06,1.2Zm1.37-2.91a2.42,2.42,0,0,0,.06.48,2,2,0,0,0,2,1.55c1.38,0,2.2-1.13,2.2-2.79,0-1.46-.75-2.7-2.16-2.7a2.1,2.1,0,0,0-2,1.62,2.63,2.63,0,0,0-.07.54Z" fill="#231f20"/><path d="M66.31,119.83l-.11-.91h0A2.68,2.68,0,0,1,63.94,120a2.07,2.07,0,0,1-2.22-2.09c0-1.75,1.55-2.71,4.36-2.7v-.15a1.5,1.5,0,0,0-1.65-1.68,3.63,3.63,0,0,0-1.89.54l-.3-.87a4.51,4.51,0,0,1,2.39-.64c2.22,0,2.76,1.51,2.76,3v2.71a9.26,9.26,0,0,0,.12,1.74Zm-.2-3.7c-1.44,0-3.08.22-3.08,1.63A1.17,1.17,0,0,0,64.28,119,1.8,1.8,0,0,0,66,117.81a1.3,1.3,0,0,0,.08-.42Z" fill="#231f20"/><path d="M69.52,109.18h1.32v10.65H69.52Z" fill="#231f20"/><path d="M73.06,109.18h1.32v10.65H73.06Z" fill="#231f20"/><path d="M83.86,116.44A2.32,2.32,0,0,0,86.35,119a4.75,4.75,0,0,0,2-.37l.23.94a5.91,5.91,0,0,1-2.42.45,3.37,3.37,0,0,1-3.57-3.66c0-2.19,1.29-3.91,3.41-3.91,2.37,0,3,2.08,3,3.42a3.87,3.87,0,0,1-.05.61Zm3.87-.94a1.88,1.88,0,0,0-1.83-2.15,2.18,2.18,0,0,0-2,2.15Z" fill="#231f20"/><path d="M90.64,114.54c0-.75,0-1.37-.06-2h1.17l.08,1.2h0a2.67,2.67,0,0,1,2.4-1.36c1,0,2.56.6,2.56,3.09v4.33H95.5v-4.18c0-1.17-.43-2.15-1.68-2.15a1.89,1.89,0,0,0-1.77,1.35,1.93,1.93,0,0,0-.09.62v4.36H90.64Z" fill="#231f20"/><path d="M105.24,109.18V118c0,.64,0,1.38.06,1.87h-1.19l-.06-1.26h0a2.68,2.68,0,0,1-2.47,1.43c-1.76,0-3.11-1.49-3.11-3.69,0-2.42,1.49-3.9,3.26-3.9a2.42,2.42,0,0,1,2.19,1.11h0v-4.34Zm-1.32,6.35a2.67,2.67,0,0,0-.06-.56,2,2,0,0,0-1.91-1.53c-1.36,0-2.17,1.2-2.17,2.81s.72,2.68,2.14,2.68a2,2,0,0,0,1.94-1.57,2.56,2.56,0,0,0,.06-.57Z" fill="#231f20"/><path d="M107.25,118.48A3.41,3.41,0,0,0,109,119c1,0,1.41-.48,1.41-1.08s-.38-1-1.35-1.34c-1.31-.46-1.92-1.18-1.92-2a2.23,2.23,0,0,1,2.5-2.13,3.64,3.64,0,0,1,1.79.45l-.33,1a2.85,2.85,0,0,0-1.49-.42c-.78,0-1.21.45-1.21,1s.43.87,1.38,1.23c1.26.48,1.9,1.11,1.9,2.19,0,1.27-1,2.17-2.71,2.17a4.13,4.13,0,0,1-2-.49Z" fill="#231f20"/><path d="M126,117.85c0,.75,0,1.41.06,2h-1.17l-.08-1.18h0a2.73,2.73,0,0,1-2.4,1.35c-1.14,0-2.5-.63-2.5-3.18v-4.25h1.32v4c0,1.38.42,2.31,1.62,2.31a1.91,1.91,0,0,0,1.74-1.2,2,2,0,0,0,.12-.67v-4.46H126Z" fill="#231f20"/><path d="M128.17,114.94c0-.93,0-1.68-.06-2.37h1.18l.06,1.25h0a2.85,2.85,0,0,1,2.58-1.41c1.76,0,3.08,1.48,3.08,3.69,0,2.61-1.59,3.9-3.3,3.9a2.56,2.56,0,0,1-2.24-1.14h0v3.94h-1.3Zm1.3,1.94a3.08,3.08,0,0,0,.06.54,2,2,0,0,0,2,1.54c1.4,0,2.21-1.14,2.21-2.8,0-1.46-.77-2.7-2.16-2.7a2.11,2.11,0,0,0-2,1.63,2.44,2.44,0,0,0-.09.54Z" fill="#231f20"/><path d="M149.81,116.14a3.55,3.55,0,0,1-3.62,3.86,3.46,3.46,0,0,1-3.48-3.74,3.54,3.54,0,0,1,3.6-3.85A3.43,3.43,0,0,1,149.81,116.14Zm-5.76.08c0,1.59.91,2.79,2.2,2.79s2.21-1.19,2.21-2.82c0-1.23-.62-2.79-2.18-2.79S144.05,114.84,144.05,116.22Z" fill="#231f20"/><path d="M151.47,114.54c0-.75,0-1.37-.06-2h1.17l.08,1.2h0a2.67,2.67,0,0,1,2.4-1.36c1,0,2.56.6,2.56,3.09v4.33h-1.32v-4.18c0-1.17-.43-2.15-1.68-2.15a1.89,1.89,0,0,0-1.77,1.35,1.93,1.93,0,0,0-.09.62v4.36h-1.32Z" fill="#231f20"/><path d="M172.9,116.14a3.55,3.55,0,0,1-3.61,3.86,3.45,3.45,0,0,1-3.48-3.74,3.54,3.54,0,0,1,3.6-3.85A3.43,3.43,0,0,1,172.9,116.14Zm-5.76.08c0,1.59.92,2.79,2.21,2.79s2.2-1.19,2.2-2.82c0-1.23-.61-2.79-2.17-2.79S167.14,114.84,167.14,116.22Z" fill="#231f20"/><path d="M174.57,114.84c0-.86,0-1.59-.06-2.27h1.15l.05,1.43h.06a2.17,2.17,0,0,1,2-1.59,1.4,1.4,0,0,1,.37,0v1.25a1.93,1.93,0,0,0-.45,0,1.86,1.86,0,0,0-1.77,1.7,3.71,3.71,0,0,0-.06.61v3.87h-1.3Z" fill="#231f20"/><path d="M33,134.14A3.55,3.55,0,0,1,29.37,138a3.45,3.45,0,0,1-3.48-3.74,3.54,3.54,0,0,1,3.6-3.85A3.43,3.43,0,0,1,33,134.14Zm-5.76.08c0,1.59.92,2.79,2.21,2.79s2.2-1.19,2.2-2.82c0-1.23-.61-2.79-2.17-2.79S27.22,132.84,27.22,134.22Z" fill="#231f20"/><path d="M35.05,130.57l1.43,4.08a18.59,18.59,0,0,1,.58,1.86h0c.16-.6.37-1.2.61-1.86l1.41-4.08h1.38l-2.85,7.26H36.4l-2.76-7.26Z" fill="#231f20"/><path d="M42.34,134.44A2.32,2.32,0,0,0,44.83,137a4.75,4.75,0,0,0,2-.37l.23.94a5.91,5.91,0,0,1-2.42.45,3.37,3.37,0,0,1-3.57-3.66c0-2.19,1.29-3.91,3.41-3.91,2.37,0,3,2.08,3,3.42a3.87,3.87,0,0,1-.05.61Zm3.87-.94a1.88,1.88,0,0,0-1.83-2.15,2.18,2.18,0,0,0-2,2.15Z" fill="#231f20"/><path d="M49.12,132.84c0-.86,0-1.59-.06-2.27h1.16l0,1.43h.06a2.18,2.18,0,0,1,2-1.59,1.48,1.48,0,0,1,.38,0v1.25a2,2,0,0,0-.45,0,1.86,1.86,0,0,0-1.77,1.7,3.71,3.71,0,0,0-.06.61v3.87H49.12Z" fill="#231f20"/><path d="M63.4,128.49v2.08h1.89v1H63.4v3.91c0,.9.26,1.41,1,1.41a2.77,2.77,0,0,0,.77-.09l.06,1a3.14,3.14,0,0,1-1.17.18,1.84,1.84,0,0,1-1.43-.55,2.72,2.72,0,0,1-.51-1.89v-4H61v-1h1.12v-1.74Z" fill="#231f20"/><path d="M66.78,127.18H68.1v4.53h0a2.54,2.54,0,0,1,.94-.93,2.78,2.78,0,0,1,1.35-.37c1,0,2.54.6,2.54,3.1v4.32H71.64v-4.17c0-1.17-.44-2.16-1.68-2.16a1.89,1.89,0,0,0-1.77,1.32,1.53,1.53,0,0,0-.09.63v4.38H66.78Z" fill="#231f20"/><path d="M75.84,134.44A2.32,2.32,0,0,0,78.33,137a4.82,4.82,0,0,0,2-.37l.22.94a5.85,5.85,0,0,1-2.41.45,3.37,3.37,0,0,1-3.57-3.66c0-2.19,1.29-3.91,3.4-3.91,2.37,0,3,2.08,3,3.42,0,.27,0,.48,0,.61Zm3.87-.94a1.89,1.89,0,0,0-1.83-2.15,2.19,2.19,0,0,0-2,2.15Z" fill="#231f20"/><path d="M96.66,130.57c0,.53-.06,1.11-.06,2v4.21c0,1.67-.33,2.69-1,3.32a3.83,3.83,0,0,1-2.64.87,4.65,4.65,0,0,1-2.41-.6l.33-1a4.09,4.09,0,0,0,2.13.57c1.35,0,2.34-.7,2.34-2.53v-.81h0A2.61,2.61,0,0,1,93,137.8a3.25,3.25,0,0,1-3.09-3.54c0-2.46,1.6-3.85,3.27-3.85a2.4,2.4,0,0,1,2.26,1.26h0l.06-1.1Zm-1.37,2.87a1.87,1.87,0,0,0-.07-.6,1.91,1.91,0,0,0-1.85-1.4c-1.26,0-2.16,1.07-2.16,2.75,0,1.42.72,2.61,2.15,2.61a1.93,1.93,0,0,0,1.83-1.35,2.48,2.48,0,0,0,.1-.71Z" fill="#231f20"/><path d="M105.36,134.14a3.55,3.55,0,0,1-3.62,3.86,3.46,3.46,0,0,1-3.48-3.74,3.54,3.54,0,0,1,3.6-3.85A3.43,3.43,0,0,1,105.36,134.14Zm-5.76.08c0,1.59.91,2.79,2.2,2.79s2.21-1.19,2.21-2.82c0-1.23-.62-2.79-2.18-2.79S99.6,132.84,99.6,134.22Z" fill="#231f20"/><path d="M111,137.83l-.1-.91h0a2.69,2.69,0,0,1-2.22,1.08,2.07,2.07,0,0,1-2.22-2.09c0-1.75,1.56-2.71,4.37-2.7v-.15a1.5,1.5,0,0,0-1.65-1.68,3.6,3.6,0,0,0-1.89.54l-.3-.87a4.5,4.5,0,0,1,2.38-.64c2.22,0,2.76,1.51,2.76,3v2.71a10.18,10.18,0,0,0,.12,1.74Zm-.19-3.7c-1.44,0-3.08.22-3.08,1.63A1.17,1.17,0,0,0,109,137a1.81,1.81,0,0,0,1.75-1.21,1.3,1.3,0,0,0,.08-.42Z" fill="#231f20"/><path d="M114.25,127.18h1.32v10.65h-1.32Z" fill="#231f20"/><path d="M117.79,127.18h1.32v10.65h-1.32Z" fill="#231f20"/><path d="M122.8,128.53a.77.77,0,0,1-.84.81.78.78,0,0,1-.79-.81.8.8,0,0,1,.82-.82A.78.78,0,0,1,122.8,128.53Zm-1.47,9.3v-7.26h1.32v7.26Z" fill="#231f20"/><path d="M124.84,132.54c0-.75,0-1.37-.06-2H126l.08,1.2h0a2.67,2.67,0,0,1,2.4-1.36c1,0,2.56.6,2.56,3.09v4.33H129.7v-4.18c0-1.17-.43-2.15-1.68-2.15a1.89,1.89,0,0,0-1.77,1.35,1.93,1.93,0,0,0-.09.62v4.36h-1.32Z" fill="#231f20"/><path d="M133.9,134.44a2.32,2.32,0,0,0,2.49,2.52,4.75,4.75,0,0,0,2-.37l.23.94a5.91,5.91,0,0,1-2.42.45,3.37,3.37,0,0,1-3.57-3.66c0-2.19,1.29-3.91,3.41-3.91,2.37,0,3,2.08,3,3.42a3.87,3.87,0,0,1-.05.61Zm3.87-.94a1.88,1.88,0,0,0-1.83-2.15,2.18,2.18,0,0,0-2,2.15Z" fill="#231f20"/><path d="M140.5,136.48a3.41,3.41,0,0,0,1.74.53c1,0,1.41-.48,1.41-1.08s-.38-1-1.35-1.34c-1.3-.46-1.92-1.18-1.92-2.05a2.24,2.24,0,0,1,2.51-2.13,3.6,3.6,0,0,1,1.78.45l-.33,1a2.82,2.82,0,0,0-1.49-.42c-.77,0-1.21.45-1.21,1s.44.87,1.38,1.23c1.26.48,1.91,1.11,1.91,2.19,0,1.27-1,2.17-2.72,2.17a4.15,4.15,0,0,1-2-.49Z" fill="#231f20"/><path d="M157.27,127.42a9.93,9.93,0,0,0-1.89,6.14,10.14,10.14,0,0,0,1.89,6.09h-1a9.69,9.69,0,0,1-2-6.09,9.9,9.9,0,0,1,2-6.14Z" fill="#231f20"/><path d="M160.26,128.49v2.08h1.89v1h-1.89v3.91c0,.9.25,1.41,1,1.41a2.69,2.69,0,0,0,.76-.09l.06,1a3.11,3.11,0,0,1-1.17.18,1.82,1.82,0,0,1-1.42-.55,2.67,2.67,0,0,1-.51-1.89v-4h-1.13v-1H159v-1.74Z" fill="#231f20"/><path d="M163.63,127.18H165v4.53h0a2.5,2.5,0,0,1,1-.93,2.75,2.75,0,0,1,1.35-.37c1,0,2.53.6,2.53,3.1v4.32h-1.32v-4.17c0-1.17-.43-2.16-1.68-2.16a1.9,1.9,0,0,0-1.77,1.32,1.71,1.71,0,0,0-.09.63v4.38h-1.32Z" fill="#231f20"/><path d="M172.69,134.44a2.32,2.32,0,0,0,2.49,2.52,4.75,4.75,0,0,0,2-.37l.23.94A5.91,5.91,0,0,1,175,138a3.37,3.37,0,0,1-3.57-3.66c0-2.19,1.29-3.91,3.41-3.91,2.37,0,3,2.08,3,3.42a3.87,3.87,0,0,1-.05.61Zm3.87-.94a1.88,1.88,0,0,0-1.83-2.15,2.18,2.18,0,0,0-2,2.15Z" fill="#231f20"/><path d="M26.41,145.18h1.32v10.65H26.41Z" fill="#231f20"/><path d="M30.69,152.44A2.32,2.32,0,0,0,33.18,155a4.82,4.82,0,0,0,2-.37l.22.94A5.85,5.85,0,0,1,33,156a3.37,3.37,0,0,1-3.57-3.66c0-2.19,1.29-3.91,3.4-3.91,2.37,0,3,2.08,3,3.42,0,.27,0,.48,0,.61Zm3.87-.94a1.89,1.89,0,0,0-1.83-2.15,2.19,2.19,0,0,0-2,2.15Z" fill="#231f20"/><path d="M37.6,155.83v-6.25h-1v-1h1v-.34a3.46,3.46,0,0,1,.84-2.54,2.54,2.54,0,0,1,1.77-.67,3,3,0,0,1,1.13.21l-.18,1a2,2,0,0,0-.84-.17c-1.13,0-1.41,1-1.41,2.1v.39h1.75v1H38.91v6.25Z" fill="#231f20"/><path d="M43.6,146.49v2.08h1.89v1H43.6v3.91c0,.9.26,1.41,1,1.41a2.77,2.77,0,0,0,.77-.09l.06,1a3.14,3.14,0,0,1-1.17.18,1.84,1.84,0,0,1-1.43-.55,2.72,2.72,0,0,1-.51-1.89v-4H41.19v-1h1.12v-1.74Z" fill="#231f20"/><path d="M56.73,152.14A3.55,3.55,0,0,1,53.11,156a3.46,3.46,0,0,1-3.48-3.74,3.54,3.54,0,0,1,3.6-3.85A3.43,3.43,0,0,1,56.73,152.14Zm-5.76.08c0,1.59.91,2.79,2.2,2.79s2.21-1.19,2.21-2.82c0-1.23-.62-2.79-2.18-2.79S51,150.84,51,152.22Z" fill="#231f20"/><path d="M58.39,150.84c0-.86,0-1.59-.06-2.27h1.16l0,1.43h.06a2.18,2.18,0,0,1,2-1.59,1.53,1.53,0,0,1,.38,0v1.25a2,2,0,0,0-.45,0,1.86,1.86,0,0,0-1.77,1.7,3.71,3.71,0,0,0-.06.61v3.87H58.39Z" fill="#231f20"/><path d="M66.48,150.84c0-.86,0-1.59-.06-2.27h1.15l.05,1.43h.06a2.17,2.17,0,0,1,2-1.59,1.4,1.4,0,0,1,.37,0v1.25a1.93,1.93,0,0,0-.45,0,1.86,1.86,0,0,0-1.77,1.7,3.71,3.71,0,0,0-.06.61v3.87h-1.3Z" fill="#231f20"/><path d="M72.91,146.53a.77.77,0,0,1-.84.81.79.79,0,0,1-.8-.81.81.81,0,0,1,.83-.82A.78.78,0,0,1,72.91,146.53Zm-1.47,9.3v-7.26h1.32v7.26Z" fill="#231f20"/><path d="M81.2,148.57c0,.53-.06,1.11-.06,2v4.21c0,1.67-.33,2.69-1,3.32a3.86,3.86,0,0,1-2.64.87,4.72,4.72,0,0,1-2.42-.6l.33-1a4.09,4.09,0,0,0,2.13.57c1.35,0,2.34-.7,2.34-2.53v-.81h0a2.59,2.59,0,0,1-2.31,1.21,3.25,3.25,0,0,1-3.09-3.54c0-2.46,1.61-3.85,3.27-3.85A2.43,2.43,0,0,1,80,149.67h0l.06-1.1Zm-1.36,2.87a1.86,1.86,0,0,0-.08-.6,1.89,1.89,0,0,0-1.84-1.4c-1.26,0-2.16,1.07-2.16,2.75,0,1.42.72,2.61,2.14,2.61a1.93,1.93,0,0,0,1.83-1.35,2.19,2.19,0,0,0,.11-.71Z" fill="#231f20"/><path d="M83.33,145.18h1.32v4.53h0a2.5,2.5,0,0,1,.95-.93,2.75,2.75,0,0,1,1.35-.37c1,0,2.53.6,2.53,3.1v4.32H88.19v-4.17c0-1.17-.43-2.16-1.68-2.16a1.9,1.9,0,0,0-1.77,1.32,1.71,1.71,0,0,0-.09.63v4.38H83.33Z" fill="#231f20"/><path d="M93.19,146.49v2.08h1.89v1H93.19v3.91c0,.9.25,1.41,1,1.41a2.69,2.69,0,0,0,.76-.09l.06,1a3.11,3.11,0,0,1-1.17.18,1.82,1.82,0,0,1-1.42-.55,2.67,2.67,0,0,1-.51-1.89v-4H90.77v-1H91.9v-1.74Z" fill="#231f20"/><path d="M104.92,155.56a4.89,4.89,0,0,1-2.09.42,3.44,3.44,0,0,1-3.61-3.7,3.69,3.69,0,0,1,3.9-3.86,4.4,4.4,0,0,1,1.83.38l-.3,1a3.07,3.07,0,0,0-1.53-.35,2.51,2.51,0,0,0-2.57,2.75,2.48,2.48,0,0,0,2.52,2.71,3.66,3.66,0,0,0,1.62-.36Z" fill="#231f20"/><path d="M112.94,152.14a3.55,3.55,0,0,1-3.61,3.86,3.45,3.45,0,0,1-3.48-3.74,3.54,3.54,0,0,1,3.6-3.85A3.43,3.43,0,0,1,112.94,152.14Zm-5.76.08c0,1.59.92,2.79,2.21,2.79s2.2-1.19,2.2-2.82c0-1.23-.61-2.79-2.17-2.79S107.18,150.84,107.18,152.22Z" fill="#231f20"/><path d="M114.61,145.18h1.32v10.65h-1.32Z" fill="#231f20"/><path d="M124.22,153.85q0,1.13.06,2h-1.17l-.07-1.18h0a2.75,2.75,0,0,1-2.4,1.35c-1.14,0-2.51-.63-2.51-3.18v-4.25h1.32v4c0,1.38.42,2.31,1.62,2.31a1.9,1.9,0,0,0,1.74-1.2,1.78,1.78,0,0,0,.12-.67v-4.46h1.32Z" fill="#231f20"/><path d="M126.41,150.54c0-.75,0-1.37-.06-2h1.16l.06,1.17h0a2.5,2.5,0,0,1,2.28-1.33,2.16,2.16,0,0,1,2.06,1.45h0a2.91,2.91,0,0,1,.81-.94,2.45,2.45,0,0,1,1.6-.51c1,0,2.39.63,2.39,3.15v4.27h-1.29v-4.11c0-1.39-.51-2.23-1.58-2.23a1.71,1.71,0,0,0-1.56,1.2,2.18,2.18,0,0,0-.1.66v4.48H131v-4.35c0-1.15-.51-2-1.52-2a1.8,1.8,0,0,0-1.63,1.32,1.69,1.69,0,0,0-.11.64v4.38h-1.29Z" fill="#231f20"/><path d="M138.92,150.54c0-.75,0-1.37-.06-2H140l.08,1.2h0a2.67,2.67,0,0,1,2.4-1.36c1,0,2.56.6,2.56,3.09v4.33h-1.32v-4.18c0-1.17-.43-2.15-1.68-2.15a1.89,1.89,0,0,0-1.77,1.35,1.93,1.93,0,0,0-.09.62v4.36h-1.32Z" fill="#231f20"/><path d="M147.07,154.48a3.41,3.41,0,0,0,1.74.53c1,0,1.41-.48,1.41-1.08s-.38-1-1.35-1.34c-1.31-.46-1.92-1.18-1.92-2.05a2.23,2.23,0,0,1,2.5-2.13,3.64,3.64,0,0,1,1.79.45l-.33,1a2.85,2.85,0,0,0-1.49-.42c-.78,0-1.21.45-1.21,1s.43.87,1.38,1.23c1.26.48,1.9,1.11,1.9,2.19,0,1.27-1,2.17-2.71,2.17a4.13,4.13,0,0,1-2-.49Z" fill="#231f20"/><path d="M152.39,157.65a10.15,10.15,0,0,0,1.89-6.14,10,10,0,0,0-1.89-6.09h1a9.56,9.56,0,0,1,2,6.11,9.75,9.75,0,0,1-2,6.12Z" fill="#231f20"/><path d="M157.13,155.05a.89.89,0,0,1,.9-.94.87.87,0,0,1,.89.94.9.9,0,1,1-1.79,0Z" fill="#231f20"/><path d="M33.92,171.84v1h-3.7v-1Z" fill="#231f20"/><path d="M47.33,171.23c0,3.48-2.11,5.32-4.69,5.32s-4.55-2.07-4.55-5.13,2-5.31,4.7-5.31S47.33,168.23,47.33,171.23Zm-7.84.16c0,2.16,1.17,4.1,3.22,4.1s3.24-1.91,3.24-4.2c0-2-1.05-4.11-3.22-4.11S39.49,169.17,39.49,171.39Z" fill="#231f20"/><path d="M52.69,169.13l1,3.69c.21.81.4,1.56.54,2.31h0c.17-.74.41-1.52.65-2.3l1.18-3.7h1.11l1.12,3.63c.27.87.48,1.63.65,2.37H59a19.68,19.68,0,0,1,.55-2.36l1-3.64h1.3l-2.34,7.26h-1.2l-1.11-3.47c-.25-.81-.46-1.53-.65-2.38h0a22.6,22.6,0,0,1-.67,2.4l-1.16,3.45h-1.2l-2.19-7.26Z" fill="#231f20"/><path d="M64.67,167.09a.77.77,0,0,1-.84.81.78.78,0,0,1-.79-.81.8.8,0,0,1,.82-.83A.78.78,0,0,1,64.67,167.09Zm-1.47,9.3v-7.26h1.32v7.26Z" fill="#231f20"/><path d="M66.71,171.09c0-.75,0-1.36-.06-2h1.17l.07,1.2h0a2.66,2.66,0,0,1,2.4-1.37c1,0,2.56.6,2.56,3.09v4.34H71.57V172.2c0-1.17-.44-2.14-1.68-2.14A1.94,1.94,0,0,0,68,172v4.37H66.71Z" fill="#231f20"/><path d="M74.86,175a3.51,3.51,0,0,0,1.74.52c1,0,1.41-.48,1.41-1.08s-.38-1-1.35-1.33c-1.31-.47-1.92-1.19-1.92-2.06a2.23,2.23,0,0,1,2.5-2.13,3.64,3.64,0,0,1,1.79.45l-.33,1a2.85,2.85,0,0,0-1.49-.42c-.78,0-1.21.45-1.21,1s.43.87,1.38,1.23c1.26.48,1.9,1.11,1.9,2.19,0,1.28-1,2.18-2.71,2.18a4.13,4.13,0,0,1-2-.5Z" fill="#231f20"/><path d="M90.72,172.7a3.55,3.55,0,0,1-3.61,3.85,3.45,3.45,0,0,1-3.48-3.73,3.55,3.55,0,0,1,3.6-3.86A3.44,3.44,0,0,1,90.72,172.7Zm-5.76.07c0,1.59.92,2.79,2.21,2.79s2.2-1.18,2.2-2.82c0-1.23-.61-2.79-2.17-2.79S85,171.39,85,172.77Z" fill="#231f20"/><path d="M92.39,171.09c0-.75,0-1.36-.06-2H93.5l.07,1.2h0A2.67,2.67,0,0,1,96,169c1,0,2.57.6,2.57,3.09v4.34H97.25V172.2c0-1.17-.44-2.14-1.68-2.14a1.94,1.94,0,0,0-1.86,2v4.37H92.39Z" fill="#231f20"/><path d="M105.48,167v2.09h1.89v1h-1.89v3.92c0,.9.26,1.41,1,1.41a3.22,3.22,0,0,0,.77-.09l.06,1a3.37,3.37,0,0,1-1.17.18,1.84,1.84,0,0,1-1.43-.56,2.71,2.71,0,0,1-.51-1.89v-4h-1.12v-1h1.12v-1.74Z" fill="#231f20"/><path d="M108.86,165.74h1.32v4.53h0a2.4,2.4,0,0,1,.94-.93,2.68,2.68,0,0,1,1.35-.38c1,0,2.54.6,2.54,3.11v4.32h-1.32v-4.17c0-1.17-.44-2.16-1.68-2.16a1.89,1.89,0,0,0-1.77,1.32,1.5,1.5,0,0,0-.09.63v4.38h-1.32Z" fill="#231f20"/><path d="M117.92,173a2.33,2.33,0,0,0,2.49,2.52,4.8,4.8,0,0,0,2-.38l.22,1a5.85,5.85,0,0,1-2.41.45,3.37,3.37,0,0,1-3.57-3.66c0-2.19,1.29-3.92,3.4-3.92,2.37,0,3,2.09,3,3.42,0,.27,0,.48,0,.62Zm3.87-.95a1.88,1.88,0,0,0-1.83-2.14,2.19,2.19,0,0,0-2,2.14Z" fill="#231f20"/><path d="M127.88,165.74h1.32v10.65h-1.32Z" fill="#231f20"/><path d="M132.15,173a2.33,2.33,0,0,0,2.49,2.52,4.73,4.73,0,0,0,2-.38l.23,1a5.91,5.91,0,0,1-2.42.45,3.37,3.37,0,0,1-3.57-3.66c0-2.19,1.29-3.92,3.41-3.92,2.37,0,3,2.09,3,3.42a4.15,4.15,0,0,1-.05.62Zm3.87-.95a1.87,1.87,0,0,0-1.83-2.14,2.18,2.18,0,0,0-2,2.14Z" fill="#231f20"/><path d="M139.07,176.39v-6.26h-1v-1h1v-.35a3.38,3.38,0,0,1,.84-2.53,2.51,2.51,0,0,1,1.77-.68,3.14,3.14,0,0,1,1.12.21l-.18,1a2,2,0,0,0-.84-.16c-1.12,0-1.41,1-1.41,2.1v.39h1.76v1h-1.76v6.26Z" fill="#231f20"/><path d="M145.07,167v2.09H147v1h-1.89v3.92c0,.9.25,1.41,1,1.41a3.13,3.13,0,0,0,.76-.09l.06,1a3.32,3.32,0,0,1-1.17.18,1.82,1.82,0,0,1-1.42-.56,2.66,2.66,0,0,1-.51-1.89v-4h-1.13v-1h1.13v-1.74Z" fill="#231f20"/><path d="M151.44,175a3.51,3.51,0,0,0,1.74.52c1,0,1.41-.48,1.41-1.08s-.37-1-1.35-1.33c-1.3-.47-1.92-1.19-1.92-2.06a2.24,2.24,0,0,1,2.51-2.13,3.6,3.6,0,0,1,1.78.45l-.33,1a2.81,2.81,0,0,0-1.48-.42c-.78,0-1.22.45-1.22,1s.44.87,1.38,1.23c1.26.48,1.91,1.11,1.91,2.19,0,1.28-1,2.18-2.72,2.18a4.15,4.15,0,0,1-2-.5Z" fill="#231f20"/><path d="M159,167.09a.77.77,0,0,1-.84.81.78.78,0,0,1-.79-.81.8.8,0,0,1,.82-.83A.78.78,0,0,1,159,167.09Zm-1.47,9.3v-7.26h1.32v7.26Z" fill="#231f20"/><path d="M167.34,165.74v8.77c0,.65,0,1.38.06,1.88h-1.18l-.06-1.26h0a2.69,2.69,0,0,1-2.48,1.42c-1.75,0-3.1-1.48-3.1-3.69,0-2.41,1.48-3.9,3.25-3.9a2.44,2.44,0,0,1,2.19,1.11h0v-4.33ZM166,172.08a2.06,2.06,0,0,0-.06-.55,1.93,1.93,0,0,0-1.9-1.53c-1.37,0-2.18,1.2-2.18,2.8s.72,2.69,2.15,2.69a2,2,0,0,0,1.93-1.58,2.08,2.08,0,0,0,.06-.57Z" fill="#231f20"/><path d="M170.27,173a2.33,2.33,0,0,0,2.49,2.52,4.8,4.8,0,0,0,2-.38l.22,1a5.85,5.85,0,0,1-2.41.45,3.37,3.37,0,0,1-3.57-3.66c0-2.19,1.29-3.92,3.4-3.92,2.37,0,3,2.09,3,3.42,0,.27,0,.48,0,.62Zm3.87-.95a1.88,1.88,0,0,0-1.83-2.14,2.19,2.19,0,0,0-2,2.14Z" fill="#231f20"/><path d="M33.92,189.84v1h-3.7v-1Z" fill="#231f20"/><path d="M44.23,194.39l-1.29-2.24c-.53-.85-.86-1.41-1.17-2h0c-.29.58-.57,1.12-1.1,2l-1.21,2.22h-1.5L41,189.27l-3-5h1.51l1.34,2.37c.37.66.66,1.17.93,1.71h0c.29-.6.54-1.07.92-1.71l1.38-2.37h1.5l-3.08,4.92,3.15,5.19Z" fill="#231f20"/><path d="M50.92,187.13l1,3.69c.21.81.4,1.56.54,2.31h0c.17-.74.41-1.52.65-2.3l1.18-3.7H55.4l1.13,3.63c.27.87.48,1.63.64,2.37h0a21.81,21.81,0,0,1,.55-2.36l1-3.64h1.3l-2.34,7.26h-1.2l-1.11-3.47c-.25-.81-.46-1.53-.64-2.38h0a22.61,22.61,0,0,1-.66,2.4L53,194.39h-1.2l-2.19-7.26Z" fill="#231f20"/><path d="M62.9,185.09a.77.77,0,0,1-.84.81.78.78,0,0,1-.79-.81.8.8,0,0,1,.82-.83A.78.78,0,0,1,62.9,185.09Zm-1.47,9.3v-7.26h1.32v7.26Z" fill="#231f20"/><path d="M64.94,189.09c0-.75,0-1.36-.06-2h1.17l.08,1.2h0a2.67,2.67,0,0,1,2.4-1.37c1,0,2.56.6,2.56,3.09v4.34H69.8V190.2c0-1.17-.43-2.14-1.68-2.14a1.94,1.94,0,0,0-1.86,2v4.37H64.94Z" fill="#231f20"/><path d="M73.09,193a3.51,3.51,0,0,0,1.74.52c1,0,1.41-.48,1.41-1.08s-.38-1-1.35-1.33C73.58,190.68,73,190,73,189.09a2.23,2.23,0,0,1,2.5-2.13,3.64,3.64,0,0,1,1.79.45l-.33,1a2.85,2.85,0,0,0-1.49-.42c-.78,0-1.21.45-1.21,1s.43.87,1.38,1.23c1.26.48,1.9,1.11,1.9,2.19,0,1.28-1,2.18-2.71,2.18a4.13,4.13,0,0,1-2-.5Z" fill="#231f20"/><path d="M89,190.7a3.55,3.55,0,0,1-3.61,3.85,3.45,3.45,0,0,1-3.48-3.73,3.55,3.55,0,0,1,3.6-3.86A3.44,3.44,0,0,1,89,190.7Zm-5.76.07c0,1.59.92,2.79,2.21,2.79s2.2-1.18,2.2-2.82c0-1.23-.61-2.79-2.17-2.79S83.19,189.39,83.19,190.77Z" fill="#231f20"/><path d="M90.62,189.09c0-.75,0-1.36-.06-2h1.17l.07,1.2h0a2.67,2.67,0,0,1,2.4-1.37c1,0,2.57.6,2.57,3.09v4.34H95.48V190.2c0-1.17-.44-2.14-1.68-2.14a1.94,1.94,0,0,0-1.86,2v4.37H90.62Z" fill="#231f20"/><path d="M103.71,185v2.09h1.89v1h-1.89v3.92c0,.9.26,1.41,1,1.41a3.22,3.22,0,0,0,.77-.09l.06,1a3.37,3.37,0,0,1-1.17.18,1.84,1.84,0,0,1-1.43-.56,2.71,2.71,0,0,1-.51-1.89v-4H101.3v-1h1.12v-1.74Z" fill="#231f20"/><path d="M107.09,183.74h1.32v4.53h0a2.4,2.4,0,0,1,.94-.93,2.68,2.68,0,0,1,1.35-.38c1,0,2.54.6,2.54,3.11v4.32H112v-4.17c0-1.17-.44-2.16-1.68-2.16a1.89,1.89,0,0,0-1.77,1.32,1.5,1.5,0,0,0-.09.63v4.38h-1.32Z" fill="#231f20"/><path d="M116.15,191a2.33,2.33,0,0,0,2.49,2.52,4.8,4.8,0,0,0,2-.38l.22,1a5.85,5.85,0,0,1-2.41.45,3.37,3.37,0,0,1-3.57-3.66c0-2.19,1.29-3.92,3.4-3.92,2.37,0,3,2.09,3,3.42,0,.27,0,.48,0,.62Zm3.87-.95a1.88,1.88,0,0,0-1.83-2.14,2.19,2.19,0,0,0-2,2.14Z" fill="#231f20"/><path d="M126.11,189.39c0-.85,0-1.59-.06-2.26h1.15l0,1.42h.06a2.18,2.18,0,0,1,2-1.59,1.38,1.38,0,0,1,.37,0v1.24a2,2,0,0,0-.45,0,1.85,1.85,0,0,0-1.77,1.69,3.72,3.72,0,0,0-.06.62v3.87h-1.3Z" fill="#231f20"/><path d="M132.54,185.09a.77.77,0,0,1-.84.81.78.78,0,0,1-.79-.81.8.8,0,0,1,.82-.83A.78.78,0,0,1,132.54,185.09Zm-1.47,9.3v-7.26h1.32v7.26Z" fill="#231f20"/><path d="M140.84,187.13c0,.52-.06,1.11-.06,2v4.22c0,1.66-.33,2.68-1,3.31a3.83,3.83,0,0,1-2.64.87,4.65,4.65,0,0,1-2.41-.6l.33-1a4.09,4.09,0,0,0,2.13.57c1.35,0,2.34-.71,2.34-2.54v-.81h0a2.6,2.6,0,0,1-2.31,1.22,3.25,3.25,0,0,1-3.09-3.54c0-2.46,1.6-3.86,3.27-3.86a2.4,2.4,0,0,1,2.26,1.26h0l.06-1.09ZM139.47,190a1.91,1.91,0,0,0-1.92-2c-1.26,0-2.16,1.06-2.16,2.74,0,1.43.72,2.61,2.15,2.61a1.93,1.93,0,0,0,1.83-1.35,2.42,2.42,0,0,0,.1-.7Z" fill="#231f20"/><path d="M143,183.74h1.32v4.53h0a2.4,2.4,0,0,1,.94-.93,2.68,2.68,0,0,1,1.35-.38c1,0,2.54.6,2.54,3.11v4.32h-1.32v-4.17c0-1.17-.44-2.16-1.68-2.16a1.89,1.89,0,0,0-1.77,1.32,1.5,1.5,0,0,0-.09.63v4.38H143Z" fill="#231f20"/><path d="M152.82,185v2.09h1.89v1h-1.89v3.92c0,.9.26,1.41,1,1.41a3.22,3.22,0,0,0,.77-.09l.06,1a3.37,3.37,0,0,1-1.17.18A1.84,1.84,0,0,1,152,194a2.71,2.71,0,0,1-.51-1.89v-4h-1.12v-1h1.12v-1.74Z" fill="#231f20"/><path d="M159.2,193a3.51,3.51,0,0,0,1.74.52c1,0,1.41-.48,1.41-1.08s-.38-1-1.35-1.33c-1.31-.47-1.92-1.19-1.92-2.06a2.23,2.23,0,0,1,2.5-2.13,3.64,3.64,0,0,1,1.79.45l-.33,1a2.85,2.85,0,0,0-1.49-.42c-.78,0-1.21.45-1.21,1s.43.87,1.38,1.23c1.26.48,1.9,1.11,1.9,2.19,0,1.28-1,2.18-2.71,2.18a4.13,4.13,0,0,1-2-.5Z" fill="#231f20"/><path d="M166.79,185.09a.82.82,0,0,1-1.64,0,.81.81,0,0,1,.83-.83A.79.79,0,0,1,166.79,185.09Zm-1.47,9.3v-7.26h1.32v7.26Z" fill="#231f20"/><path d="M175.1,183.74v8.77c0,.65,0,1.38.06,1.88H174l-.06-1.26h0a2.67,2.67,0,0,1-2.47,1.42c-1.76,0-3.11-1.48-3.11-3.69,0-2.41,1.49-3.9,3.26-3.9a2.44,2.44,0,0,1,2.19,1.11h0v-4.33Zm-1.32,6.34a2.57,2.57,0,0,0-.06-.55,2,2,0,0,0-1.91-1.53c-1.36,0-2.17,1.2-2.17,2.8s.72,2.69,2.14,2.69a2,2,0,0,0,1.94-1.58,2.56,2.56,0,0,0,.06-.57Z" fill="#231f20"/><path d="M178,191a2.33,2.33,0,0,0,2.49,2.52,4.73,4.73,0,0,0,2-.38l.23,1a5.91,5.91,0,0,1-2.42.45,3.37,3.37,0,0,1-3.57-3.66c0-2.19,1.29-3.92,3.41-3.92,2.37,0,3,2.09,3,3.42a4.15,4.15,0,0,1,0,.62Zm3.87-.95a1.87,1.87,0,0,0-1.83-2.14,2.18,2.18,0,0,0-2,2.14Z" fill="#231f20"/><circle cx="17.87" cy="81.66" r="17.87" fill="#231f20"/><path d="M12.28,85.27a5.88,5.88,0,0,1,2.84-5v-.06a5,5,0,0,1-2.32-4.14c0-3.08,2.44-5,5.34-5A4.6,4.6,0,0,1,23,75.73a4.82,4.82,0,0,1-2.47,4.17V80a5.49,5.49,0,0,1,2.91,4.93,5.34,5.34,0,0,1-5.66,5.51C14.57,90.4,12.28,88.34,12.28,85.27ZM19.76,85a3.88,3.88,0,0,0-2.17-3.48A3.89,3.89,0,0,0,16,84.83c0,1.63.67,3,2,3S19.76,86.63,19.76,85Zm-3.39-9.11a3.13,3.13,0,0,0,1.85,2.84,3.09,3.09,0,0,0,1.31-2.7c0-1.27-.44-2.43-1.54-2.43S16.37,74.77,16.37,75.93Z" fill="#fff"/><path d="M184.73,130.29c13.25-3,35.46-3.63,51.26,2.49" fill="none" stroke="#231f20" stroke-miterlimit="10"/><polygon points="234.34 134.83 239.29 134.2 236.27 130.23 234.34 134.83" fill="#231f20"/><path d="M184.73,139.42c18.39,1,37.68,21.67,45.55,54.77" fill="none" stroke="#231f20" stroke-miterlimit="10"/><polygon points="227.65 194.06 231.06 197.69 232.5 192.92 227.65 194.06" fill="#231f20"/></svg>