<?xml version="1.0" encoding="utf-8"?>
<!-- Generator: Adobe Illustrator 24.1.2, SVG Export Plug-In . SVG Version: 6.00 Build 0)  -->
<svg version="1.1" id="Layer_1" xmlns="http://www.w3.org/2000/svg" xmlns:xlink="http://www.w3.org/1999/xlink" x="0px" y="0px"
	 viewBox="0 0 76.8 88.6" enable-background="new 0 0 76.8 88.6" xml:space="preserve">
<path d="M38.4,0L0,22.1v44.3l38.4,22.2l38.4-22.2V22.1L38.4,0z M57.3,32.7L39,22.1V1.6l36.1,20.9L57.3,32.7z M20,34.4l17.8,10.3
	v20.5L20,54.9V34.4z M39,44.6l17.8-10.3v20.5L39,65.2V44.6z M38.4,43.6L20.6,33.4l17.8-10.3l17.8,10.3L38.4,43.6z M37.8,22.1
	L19.5,32.7L1.7,22.5L37.8,1.6V22.1z M18.9,33.7v21.2L1.1,65.2V23.4L18.9,33.7z M19.4,55.9l18.4,10.6V87L1.7,66.1L19.4,55.9z
	 M39,66.5l18.4-10.6l17.8,10.3L39,87V66.5z M57.9,54.9V33.7l17.8-10.3v41.7L57.9,54.9z"/>
</svg>
